# 3ds Max Wavefront OBJ Exporter v0.97b - (c)2007 guruware
# File Created: 22.06.2016 10:46:24

#
# object mazeCapTSectionTall_leafs
#

v  5.1241 4.0104 5.6592
v  2.2837 3.3697 5.6592
v  4.2239 2.0132 5.0200
v  3.2173 0.0729 5.6592
v  6.2702 0.6000 5.6592
v  3.7417 14.1842 5.6592
v  1.2637 12.6552 5.6592
v  3.5393 12.0029 5.0200
v  3.2180 9.8408 5.6592
v  5.9339 11.3314 5.6592
v  5.3509 20.8673 3.4300
v  2.6574 21.5277 4.3172
v  3.9272 19.4377 4.4962
v  2.9023 18.8524 6.4439
v  5.7679 18.0294 5.6016
v  3.3070 20.7370 1.1748
v  2.0530 20.6964 -1.4527
v  1.1817 20.0288 0.7399
v  -0.9531 20.5993 0.1889
v  0.2375 20.6378 3.0488
v  1.2182 7.7387 5.6592
v  -1.5970 6.9952 5.6592
v  0.3912 5.7102 5.0200
v  -0.5441 3.7345 5.6592
v  2.4876 4.3723 5.6592
v  2.5365 17.7810 5.6592
v  -0.3670 17.5620 5.6592
v  1.3542 15.9368 5.0200
v  0.0751 14.1642 5.6592
v  3.1723 14.2399 5.6592
v  5.3243 8.2241 5.6592
v  2.4289 7.9158 5.6592
v  4.1994 6.3443 5.0200
v  2.9755 4.5332 5.6592
v  6.0688 4.7042 5.6592
v  1.7634 2.6470 5.6592
v  -1.1473 2.7253 5.6592
v  0.3992 0.9329 5.0200
v  -1.0540 -0.6999 5.6592
v  2.0347 -0.9406 5.6592
v  -0.4604 12.1395 5.6592
v  -2.3424 9.9178 5.6592
v  0.0233 10.0029 5.0200
v  0.3880 7.8477 5.6592
v  2.5081 10.1068 5.6592
v  3.4446 21.8645 0.8984
v  5.9766 21.3581 2.2441
v  4.6852 19.9597 0.6984
v  6.5555 18.9707 -0.1445
v  3.8991 19.3974 -1.6805
v  0.0632 21.4887 3.5068
v  -2.1585 19.8288 4.3940
v  0.2621 19.4809 4.5730
v  0.0627 18.3176 6.5207
v  2.5193 20.0070 5.6784
v  4.2743 17.0110 5.6592
v  2.2065 14.9610 5.6592
v  4.5707 14.8405 5.0200
v  4.7469 12.6617 5.6591
v  7.0551 14.7282 5.6592
v  2.8072 6.2558 5.6592
v  0.3374 4.7135 5.6592
v  2.6165 4.0735 5.0200
v  2.3069 1.9096 5.6592
v  5.0147 3.4149 5.6592
v  3.0264 10.3049 5.6592
v  0.3387 9.1848 5.6592
v  2.4834 8.1826 5.0200
v  1.8260 6.0979 5.6592
v  4.7426 7.1428 5.6592
v  2.3199 20.2996 5.6592
v  -0.0988 18.6785 5.6592
v  2.1997 18.1122 5.0200
v  1.9599 15.9395 5.6592
v  4.6179 17.5313 5.6592
v  0.8887 14.6542 5.6591
v  -1.3525 12.7954 5.6592
v  0.9917 12.4659 5.0200
v  0.9743 10.2801 5.6592
v  3.4564 12.1340 5.6592
v  4.5604 19.3403 5.6592
v  2.4796 17.3035 5.6592
v  4.8430 17.1680 5.0200
v  5.0054 14.9881 5.6592
v  7.3267 17.0399 5.6592
v  5.3859 11.5858 5.6592
v  2.7312 10.3897 5.6592
v  4.9035 9.4489 5.0200
v  4.3056 7.3464 5.6592
v  7.1913 8.4738 5.6592
v  7.3319 19.3904 3.6222
v  6.2377 20.0044 0.9947
v  5.1467 19.8838 3.1873
v  3.6149 21.4764 2.6363
v  4.6537 20.8935 5.4962
v  4.6010 21.0488 2.6930
v  3.3634 20.8421 0.0655
v  2.5886 20.0647 2.2581
v  0.3969 20.3467 1.7071
v  1.5718 20.5429 4.5670
v  2.7967 21.2033 3.0350
v  1.5763 20.9118 0.4075
v  0.8568 20.0829 2.6002
v  -1.3490 20.2132 2.0491
v  -0.1905 20.4899 4.9090
v  1.8889 9.3293 5.6592
v  -1.0024 9.6740 5.6592
v  0.3733 7.7475 5.0200
v  -1.2234 6.2547 5.6591
v  1.8302 5.7320 5.6592
v  3.0632 8.3282 5.6592
v  0.3105 7.3790 5.6592
v  2.3881 6.2442 5.0200
v  1.6011 4.2049 5.6592
v  4.5775 5.0647 5.6592
v  3.3077 3.7202 5.6592
v  0.4889 2.9903 5.6592
v  2.4708 1.6957 5.0200
v  1.5259 -0.2754 5.6592
v  4.5607 0.3477 5.6592
v  2.0354 13.2134 5.6592
v  -0.2905 11.4617 5.6592
v  2.0357 11.0228 5.0200
v  1.9158 8.8402 5.6592
v  4.4822 10.5757 5.6592
v  1.4641 19.6552 5.6592
v  -1.4063 19.1666 5.6592
v  0.4589 17.7088 5.0200
v  -0.6495 15.8248 5.6592
v  2.4272 16.1887 5.6592
v  1.4754 5.3671 5.6592
v  -1.4341 5.2516 5.6592
v  0.2282 3.5661 5.0200
v  -1.1132 1.8402 5.6592
v  1.9847 1.8055 5.6592
v  5.3970 20.3301 0.9226
v  4.1535 20.4976 -1.7049
v  3.1839 19.9834 0.4877
v  1.1729 20.8993 -0.0633
v  2.3534 20.7402 2.7966
v  2.7070 12.6328 5.6592
v  1.1237 10.1892 5.6592
v  3.4593 10.5754 5.0200
v  4.0959 8.4842 5.6592
v  5.9105 10.9953 5.6592
v  -0.3078 16.4758 5.6592
v  -2.1131 14.1912 5.6592
v  0.2484 14.3569 5.0200
v  0.6864 12.2153 5.6592
v  2.7282 14.5453 5.6592
# 150 vertices

vn 0.0000 0.0000 1.0000
vn 0.0000 0.0022 1.0000
vn 0.0000 0.9239 0.3827
vn 0.1962 0.9607 -0.1962
vn -0.1962 0.9607 -0.1962
vn 0.7071 0.0002 -0.7071
# 6 vertex normals

vt -0.1068 0.5381 0.0000
vt 0.2069 -0.1188 0.0000
vt 0.4300 0.4294 0.0000
vt 0.9588 0.2916 0.0000
vt 0.6610 1.0066 0.0000
# 5 texture coords

g mazeCapTSectionTall_leafs
s 1
f 1/1/1 2/2/1 3/3/1 
f 2/2/1 4/4/1 3/3/1 
f 4/4/1 5/5/1 3/3/1 
f 5/5/1 1/1/1 3/3/1 
f 6/1/2 7/2/2 8/3/2 
f 7/2/2 9/4/2 8/3/2 
f 9/4/2 10/5/2 8/3/2 
f 10/5/2 6/1/2 8/3/2 
f 11/1/3 12/2/3 13/3/2 
f 12/2/3 14/4/2 13/3/2 
f 14/4/2 15/5/2 13/3/2 
f 15/5/2 11/1/3 13/3/2 
f 16/1/4 17/2/5 18/3/5 
f 17/2/5 19/4/5 18/3/5 
f 19/4/5 20/5/3 18/3/5 
f 20/5/3 16/1/4 18/3/5 
f 21/1/1 22/2/1 23/3/1 
f 22/2/1 24/4/1 23/3/1 
f 24/4/1 25/5/1 23/3/1 
f 25/5/1 21/1/1 23/3/1 
f 26/1/2 27/2/2 28/3/2 
f 27/2/2 29/4/2 28/3/2 
f 29/4/2 30/5/2 28/3/2 
f 30/5/2 26/1/2 28/3/2 
f 31/1/1 32/2/1 33/3/1 
f 32/2/1 34/4/1 33/3/1 
f 34/4/1 35/5/1 33/3/1 
f 35/5/1 31/1/1 33/3/1 
f 36/1/1 37/2/1 38/3/1 
f 37/2/1 39/4/1 38/3/1 
f 39/4/1 40/5/1 38/3/1 
f 40/5/1 36/1/1 38/3/1 
f 41/1/2 42/2/2 43/3/2 
f 42/2/2 44/4/1 43/3/2 
f 44/4/1 45/5/2 43/3/2 
f 45/5/2 41/1/2 43/3/2 
f 46/1/4 47/2/4 48/3/4 
f 47/2/4 49/4/6 48/3/4 
f 49/4/6 50/5/4 48/3/4 
f 50/5/4 46/1/4 48/3/4 
f 51/1/3 52/2/3 53/3/2 
f 52/2/3 54/4/2 53/3/2 
f 54/4/2 55/5/2 53/3/2 
f 55/5/2 51/1/3 53/3/2 
f 56/1/2 57/2/2 58/3/2 
f 57/2/2 59/4/2 58/3/2 
f 59/4/2 60/5/2 58/3/2 
f 60/5/2 56/1/2 58/3/2 
f 61/1/1 62/2/1 63/3/1 
f 62/2/1 64/4/1 63/3/1 
f 64/4/1 65/5/1 63/3/1 
f 65/5/1 61/1/1 63/3/1 
f 66/1/2 67/2/1 68/3/1 
f 67/2/1 69/4/1 68/3/1 
f 69/4/1 70/5/1 68/3/1 
f 70/5/1 66/1/2 68/3/1 
f 71/1/2 72/2/2 73/3/2 
f 72/2/2 74/4/2 73/3/2 
f 74/4/2 75/5/2 73/3/2 
f 75/5/2 71/1/2 73/3/2 
f 76/1/2 77/2/2 78/3/2 
f 77/2/2 79/4/2 78/3/2 
f 79/4/2 80/5/2 78/3/2 
f 80/5/2 76/1/2 78/3/2 
f 81/1/2 82/2/2 83/3/2 
f 82/2/2 84/4/2 83/3/2 
f 84/4/2 85/5/2 83/3/2 
f 85/5/2 81/1/2 83/3/2 
f 86/1/2 87/2/2 88/3/1 
f 87/2/2 89/4/1 88/3/1 
f 89/4/1 90/5/1 88/3/1 
f 90/5/1 86/1/2 88/3/1 
f 91/1/3 92/2/4 93/3/3 
f 92/2/4 94/4/3 93/3/3 
f 94/4/3 95/5/3 93/3/3 
f 95/5/3 91/1/3 93/3/3 
f 96/1/3 97/2/4 98/3/4 
f 97/2/4 99/4/5 98/3/4 
f 99/4/5 100/5/3 98/3/4 
f 100/5/3 96/1/3 98/3/4 
f 101/1/3 102/2/5 103/3/3 
f 102/2/5 104/4/5 103/3/3 
f 104/4/5 105/5/3 103/3/3 
f 105/5/3 101/1/3 103/3/3 
f 106/1/1 107/2/2 108/3/1 
f 107/2/2 109/4/1 108/3/1 
f 109/4/1 110/5/1 108/3/1 
f 110/5/1 106/1/1 108/3/1 
f 111/1/1 112/2/1 113/3/1 
f 112/2/1 114/4/1 113/3/1 
f 114/4/1 115/5/1 113/3/1 
f 115/5/1 111/1/1 113/3/1 
f 116/1/1 117/2/1 118/3/1 
f 117/2/1 119/4/1 118/3/1 
f 119/4/1 120/5/1 118/3/1 
f 120/5/1 116/1/1 118/3/1 
f 121/1/2 122/2/2 123/3/2 
f 122/2/2 124/4/1 123/3/2 
f 124/4/1 125/5/2 123/3/2 
f 125/5/2 121/1/2 123/3/2 
f 126/1/2 127/2/2 128/3/2 
f 127/2/2 129/4/2 128/3/2 
f 129/4/2 130/5/2 128/3/2 
f 130/5/2 126/1/2 128/3/2 
f 131/1/1 132/2/1 133/3/1 
f 132/2/1 134/4/1 133/3/1 
f 134/4/1 135/5/1 133/3/1 
f 135/5/1 131/1/1 133/3/1 
f 136/1/4 137/2/4 138/3/4 
f 137/2/4 139/4/5 138/3/4 
f 139/4/5 140/5/3 138/3/4 
f 140/5/3 136/1/4 138/3/4 
f 141/1/2 142/2/2 143/3/2 
f 142/2/2 144/4/1 143/3/2 
f 144/4/1 145/5/2 143/3/2 
f 145/5/2 141/1/2 143/3/2 
f 146/1/2 147/2/2 148/3/2 
f 147/2/2 149/4/2 148/3/2 
f 149/4/2 150/5/2 148/3/2 
f 150/5/2 146/1/2 148/3/2 
# 0 polygons - 120 triangles

#
# object mazeCapTSectionTall_base
#

v  -0.0000 0.0000 5.0000
v  5.0000 0.0000 5.0000
v  5.0000 19.0000 5.0000
v  -0.0000 19.0000 5.0000
v  5.0000 20.0000 4.0000
v  -0.0000 20.0000 4.0000
v  4.0000 20.0000 -0.0000
v  1.0000 20.0000 -0.0000
v  -0.0000 20.0000 1.0000
v  5.0000 20.0000 1.0000
v  -0.0000 19.0000 -0.0000
v  5.0000 19.0000 -0.0000
# 12 vertices

vn 0.0000 0.0000 1.0000
vn 0.0000 0.0022 1.0000
vn 0.0000 0.9239 0.3827
vn 0.1962 0.9607 -0.1962
vn -0.1962 0.9607 -0.1962
vn -0.7071 0.0002 -0.7071
vn 0.7071 0.0002 -0.7071
# 7 vertex normals

vt 0.0000 0.2165 0.0000
vt 0.0000 0.0148 0.0000
vt 0.7667 0.0148 0.0000
vt 0.7667 0.2165 0.0000
vt 0.8238 0.0148 0.0000
vt 0.8238 0.2165 0.0000
vt 0.9852 0.0551 0.0000
vt 0.9852 0.1762 0.0000
vt 0.9449 0.2165 0.0000
vt 0.9449 0.0148 0.0000
vt 1.0000 0.2313 0.0000
vt 1.0000 0.0000 0.0000
# 12 texture coords

g mazeCapTSectionTall_base
s 1
f 151/6/7 152/7/7 153/8/8 154/9/8 
f 155/10/9 156/11/9 154/9/8 153/8/8 
f 157/12/10 158/13/11 159/14/11 160/15/10 
f 155/10/9 160/15/10 159/14/11 156/11/9 
f 159/14/11 158/13/11 161/16/12 
f 157/12/10 160/15/10 162/17/13 
# 4 polygons - 2 triangles

