# 3ds Max Wavefront OBJ Exporter v0.97b - (c)2007 guruware
# File Created: 22.06.2016 10:47:08

#
# object mazeSemiColumnSmall_leafs
#

v  7.4799 3.3384 -0.6592
v  9.7637 1.5322 -0.6591
v  7.4277 1.1484 -0.0200
v  7.4958 -1.0364 -0.6592
v  4.9713 0.7594 -0.6592
v  10.3798 10.9146 1.9006
v  9.1323 10.7802 -0.7269
v  8.3136 10.0491 1.4658
v  6.1420 10.4580 0.9147
v  7.3263 10.5856 3.7746
v  2.0261 6.4857 3.7373
v  -0.2150 6.4231 1.8793
v  0.9965 4.5961 2.9778
v  -0.8483 3.2621 3.0401
v  1.4974 3.1829 5.0624
v  6.7587 2.4711 5.3637
v  3.9387 2.2197 6.0437
v  5.4361 0.6813 4.8589
v  4.3287 -1.1579 5.6189
v  7.3350 -1.0470 4.8787
v  4.9408 8.0903 5.3465
v  3.1405 5.9052 6.0265
v  5.2872 5.8919 4.8417
v  5.8199 3.8122 5.6017
v  7.8511 6.0313 4.8614
v  3.2844 12.0839 3.1210
v  1.0395 10.6967 1.8904
v  2.6583 9.9353 3.5675
v  1.1486 8.5453 4.5550
v  3.5326 9.9162 5.9817
v  4.7771 8.0307 -0.6592
v  7.5291 7.0795 -0.6591
v  5.4507 5.9462 -0.0200
v  6.2362 3.9064 -0.6592
v  3.2604 4.7683 -0.6592
v  -1.0408 10.3839 1.4516
v  -0.6596 9.1715 -1.1682
v  -0.0670 8.3562 1.0672
v  -0.3501 6.1772 0.4686
v  -0.7398 7.3241 3.3200
v  8.8045 6.5558 2.8706
v  7.4520 4.7678 4.7286
v  8.7800 4.2785 2.7262
v  9.5228 2.2970 3.5678
v  11.0514 4.0780 1.5455
v  2.8758 11.1373 1.5257
v  5.6056 10.7430 0.5923
v  3.6194 9.3247 0.3557
v  4.3175 8.4901 -1.6450
v  1.3655 8.8042 -0.7589
v  -1.2383 4.1299 1.4084
v  -0.7503 2.9565 -1.2114
v  -0.0872 2.1974 1.0240
v  -0.1744 0.0018 0.4254
v  -0.6651 1.1093 3.2768
v  1.8551 8.2175 -0.6592
v  4.3238 6.6734 -0.6592
v  2.0442 6.0350 -0.0200
v  2.3522 3.8709 -0.6592
v  -0.3545 5.3782 -0.6591
v  9.7775 2.2275 3.3550
v  7.6473 1.5285 5.2130
v  8.4600 0.3698 3.2106
v  7.9416 -1.6819 4.0522
v  10.2125 -1.0890 2.0299
v  9.5799 7.9602 -0.7486
v  11.3615 5.8291 0.1247
v  8.9140 5.9095 -0.0012
v  8.7516 3.6770 -0.4209
v  6.7436 5.8363 -1.3714
v  6.3786 11.2453 3.2301
v  3.9724 10.6743 4.7672
v  5.9727 9.3120 4.3726
v  5.8054 8.2814 6.3965
v  8.4395 8.7763 4.8427
v  9.0819 10.6311 3.1268
v  7.3869 9.1637 4.9847
v  8.5840 8.4088 2.9823
v  8.8982 6.3161 3.8240
v  10.7639 7.7400 1.8017
v  3.6946 5.5825 5.3836
v  1.1220 4.4003 4.7036
v  3.3792 3.4435 4.6537
v  2.6217 1.3489 5.1284
v  5.4169 2.4612 5.8686
v  4.6210 5.0648 -0.6592
v  6.1647 2.5959 -0.6591
v  3.8357 3.0197 -0.0200
v  3.1655 0.9391 -0.6592
v  1.3915 3.4790 -0.6592
v  0.1640 9.1831 4.3414
v  -0.8598 7.1886 2.4834
v  1.3248 7.3711 3.5819
v  1.6061 5.1120 3.6442
v  2.8046 7.1299 5.6665
v  9.7005 5.4152 -0.3263
v  10.0755 4.2009 2.2934
v  9.4018 3.2050 0.1564
v  10.3696 1.2051 0.6567
v  9.9858 2.3539 -2.1948
v  9.0129 4.4426 3.7952
v  7.0088 3.4377 5.6532
v  7.9832 2.4113 3.6508
v  7.7725 0.3056 4.4924
v  9.9314 1.2263 2.4701
v  11.2526 9.7766 0.6548
v  10.0812 8.9613 3.1929
v  9.6357 8.1865 0.9095
v  9.1092 6.0835 1.6072
v  10.3057 6.8150 -1.1553
v  4.7734 10.3226 -0.6592
v  7.6846 10.3774 -0.6592
v  6.1238 8.5976 -0.0200
v  7.5638 6.9531 -0.6592
v  4.4732 6.7373 -0.6591
v  7.0861 11.6039 2.5960
v  5.9445 11.0833 -0.0315
v  5.3978 10.1315 2.1611
v  3.2080 9.8354 1.6101
v  4.2918 10.3296 4.4700
v  9.2978 2.6810 1.0127
v  9.0766 1.2711 3.5508
v  9.3281 0.4134 1.2674
v  10.4831 -1.4212 1.9651
v  10.7822 -0.0510 -0.7974
v  4.1881 11.2566 1.8158
v  2.9752 10.9355 -0.8118
v  2.2762 10.0892 1.3809
v  0.0677 10.1657 0.8298
v  1.2192 10.4706 3.6898
v  0.9743 4.5199 3.9408
v  -0.9115 3.3075 2.0828
v  1.0703 2.3702 3.1813
v  0.1811 0.2744 3.2436
v  2.2298 1.4196 5.2659
v  4.4401 9.2941 5.4349
v  1.6617 8.7496 4.7548
v  3.6308 7.2891 4.7050
v  2.4023 5.4312 5.1797
v  5.3806 5.8554 5.9199
v  2.1936 3.7820 5.2252
v  0.2307 1.7417 4.5451
v  2.6813 1.6757 4.4952
v  2.7415 -0.5509 4.9700
v  4.9371 1.5057 5.7102
v  -0.2295 5.0066 -0.6592
v  2.6653 5.3203 -0.6592
v  1.2690 3.4086 -0.0200
v  2.8497 1.8988 -0.6592
v  -0.2094 1.4089 -0.6591
v  3.6116 7.0960 -0.6592
v  6.0651 5.5280 -0.6592
v  3.7794 4.9118 -0.0200
v  4.0664 2.7449 -0.6592
v  1.3744 4.2784 -0.6592
v  7.4852 5.7623 4.9951
v  4.8605 4.7008 5.6751
v  6.7409 3.6650 4.4903
v  6.2169 1.5831 5.2503
v  9.0607 2.5644 4.5101
v  2.7678 9.1986 -0.6592
v  5.6665 9.4740 -0.6592
v  4.2451 7.5810 -0.0200
v  5.8056 6.0504 -0.6592
v  2.7403 5.6009 -0.6592
v  0.4426 3.6168 -0.6591
v  3.2890 3.0034 -0.6592
v  1.3619 1.6284 -0.0200
v  2.3870 -0.3022 -0.6592
v  -0.6708 0.1956 -0.6591
v  2.3154 7.3810 5.2384
v  0.2920 5.4007 4.5583
v  2.7395 5.2609 4.5085
v  2.7326 3.0335 4.9832
v  4.9891 5.0230 5.7234
v  5.6872 5.0846 -0.6592
v  8.5945 5.2456 -0.6592
v  7.0997 3.4100 -0.0200
v  8.5987 1.8192 -0.6592
v  5.5181 1.4908 -0.6591
v  7.7687 9.2655 4.1450
v  6.2557 7.6110 6.0030
v  7.5325 7.0004 4.0006
v  8.0878 4.9583 4.8422
v  9.7754 6.5895 2.8199
v  -0.5923 8.3664 1.0447
v  -0.4290 7.1061 -1.5751
v  0.0119 6.1997 0.6603
v  -0.6478 4.1038 0.0617
v  -0.8310 5.3011 2.9132
v  1.1086 10.8674 -0.6591
v  3.8301 9.8323 -0.6592
v  1.7180 8.7632 -0.0200
v  2.4407 6.7002 -0.6592
v  -0.5073 7.6529 -0.6591
v  7.7239 9.0780 -0.6592
v  9.5311 6.7950 -0.6592
v  7.1695 6.9587 -0.0200
v  6.7334 4.8168 -0.6592
v  4.6895 7.1451 -0.6591
v  -0.9013 10.9399 3.3751
v  -1.8278 8.8984 1.5171
v  0.3455 9.1860 2.6156
v  0.7354 6.9431 2.6779
v  1.8352 9.0165 4.7002
v  10.1348 4.4873 1.5130
v  9.3946 3.2671 4.0510
v  9.3015 2.3783 1.7676
v  9.6729 0.2424 2.4653
v  10.4701 1.3962 -0.2972
v  1.0673 2.6625 2.1730
v  -0.1948 1.9962 -0.3650
v  0.2956 0.5963 1.5875
v  -1.5106 -0.7415 1.2207
v  -0.2337 -0.1615 3.9832
v  6.7507 4.4067 5.4165
v  3.9196 4.4334 6.0966
v  5.2587 2.7555 4.9117
v  3.9761 1.0339 5.6717
v  6.9788 0.8491 4.9315
v  10.0269 7.4607 1.0627
v  9.4052 6.1761 3.6007
v  9.3963 5.2824 1.3173
v  9.9677 3.1912 2.0150
v  10.6525 4.4151 -0.7475
v  3.6706 11.3387 5.5607
v  1.5268 9.4894 4.8807
v  3.9608 9.1962 4.8308
v  3.8140 6.9737 5.3055
v  6.1910 8.8176 6.0458
v  5.2433 4.0719 -0.6592
v  7.6752 2.4707 -0.6591
v  5.3814 1.8856 -0.0200
v  5.6389 -0.2850 -0.6592
v  2.9681 1.2849 -0.6592
v  9.1700 8.6616 3.1479
v  7.4123 7.2699 5.0058
v  8.5752 6.4633 3.0034
v  8.7974 4.3588 3.8451
v  10.7238 5.6996 1.8228
v  -1.0430 6.4747 -0.4250
v  1.7347 6.4648 -1.2983
v  0.4764 4.8350 0.0333
v  1.6998 3.0822 -0.7527
v  -1.2453 2.9370 0.1978
v  9.5570 3.6103 -0.6402
v  11.6163 1.7462 0.2331
v  9.1813 1.4871 0.1072
v  9.3294 -0.7463 -0.3125
v  7.0419 1.1142 -1.2630
v  1.7184 11.1988 2.0428
v  3.0441 9.2944 0.2838
v  0.6648 9.6150 0.7823
v  0.0241 8.9327 -1.2939
v  -1.5198 10.9340 0.4975
v  6.0172 9.3310 3.0636
v  4.9384 9.9717 0.4361
v  3.8448 9.8778 2.6287
v  2.3524 11.5074 2.0776
v  3.3766 10.8992 4.9376
v  0.9328 9.2703 2.6757
v  -0.2443 8.4633 0.1377
v  0.4038 7.1291 2.0902
v  -1.2366 5.5925 1.7234
v  -0.0349 6.3155 4.4859
v  5.2622 9.8326 5.2535
v  3.4844 7.6291 5.9335
v  5.6311 7.6379 4.7487
v  6.1852 5.5638 5.5087
v  8.1935 7.8036 4.7685
v  6.8995 11.9317 2.1754
v  5.5698 11.2014 4.6607
v  7.1021 9.9218 3.2368
v  7.9548 8.7653 5.0037
v  9.4736 9.4270 2.3858
v  8.0062 7.2214 -0.6592
v  10.1719 5.2750 -0.6592
v  7.8164 5.0390 -0.0200
v  7.7470 2.8542 -0.6592
v  5.3404 4.8053 -0.6592
v  7.2661 7.4830 4.9813
v  4.7771 6.1337 5.6614
v  6.7618 5.3155 4.4765
v  6.4748 3.1879 5.2365
v  9.1905 4.4821 4.4963
v  0.3197 3.0337 -0.3444
v  2.4371 1.2358 -1.2177
v  0.4246 0.8006 0.1139
v  0.2304 -1.3280 -0.6721
v  -2.1150 0.4591 0.2784
v  7.9515 3.5886 5.0655
v  5.1236 3.4519 5.7456
v  6.5573 1.8540 4.5607
v  5.3762 0.0612 5.3207
v  8.3845 0.0500 4.5805
v  4.5403 11.3028 2.2509
v  7.2157 11.9732 1.3176
v  5.9158 9.9076 1.0810
v  6.8782 9.4001 -0.9197
v  4.0276 8.5712 -0.0336
v  4.2524 6.0170 -0.6592
v  7.1639 5.9783 -0.6591
v  5.5467 4.2495 -0.0200
v  6.9331 2.5596 -0.6592
v  3.8372 2.4432 -0.6592
v  -0.7125 6.0072 2.1584
v  -1.2012 4.6663 -0.3796
v  0.1018 3.9574 1.5729
v  -0.3398 1.7535 1.2060
v  0.2177 3.0403 3.9685
v  7.5956 11.2011 1.6057
v  10.4964 10.9487 1.5931
v  8.7660 9.4999 0.6342
v  10.1148 8.8339 -1.0757
v  7.0233 9.0040 -1.1853
v  2.2385 3.6356 -0.6592
v  5.0967 3.0798 -0.6592
v  3.1978 1.6662 -0.0200
v  4.2616 -0.2433 -0.6592
v  1.1944 0.1927 -0.6591
v  0.9472 3.0958 3.6984
v  -1.0389 2.0558 1.8404
v  0.8517 0.9460 2.9389
v  -0.2202 -1.0624 3.0012
v  1.9221 -0.1038 5.0235
v  7.2213 10.4623 -0.6592
v  9.9902 9.5614 -0.6592
v  7.9328 8.3904 -0.0200
v  8.7554 6.3652 -0.6592
v  5.7644 7.1727 -0.6592
v  1.3071 7.9835 3.4748
v  -0.8729 7.4598 1.6169
v  0.6896 5.9221 2.7154
v  -0.8402 4.2362 2.7777
v  1.4713 4.6427 4.8000
v  5.9356 11.9273 4.3959
v  4.9074 11.2081 1.7684
v  4.5425 10.1729 3.9610
v  2.4428 9.4843 3.4100
v  3.4189 10.1670 6.2699
v  7.3809 9.0191 -0.7305
v  10.1425 9.3179 0.1428
v  8.7170 7.3267 0.0169
v  10.4838 5.9524 -0.4028
v  7.5730 5.4808 -1.3533
v  0.9359 7.3343 1.8708
v  -0.3113 6.6404 -0.6673
v  0.2097 5.2516 1.2853
v  -1.5667 3.8745 0.9184
v  -0.3029 4.4825 3.6809
v  2.6811 8.2364 4.7046
v  0.4723 7.8523 2.8467
v  1.9338 6.2184 3.9452
v  0.3000 4.6331 4.0075
v  2.6327 4.8919 6.0298
v  11.0722 8.3570 1.4603
v  9.8850 7.5650 3.9983
v  9.4242 6.7992 1.7149
v  8.8563 4.7070 2.4126
v  10.0671 5.4147 -0.3499
v  3.1435 10.5392 4.7785
v  0.9017 10.5597 2.9205
v  2.0447 8.6890 4.0190
v  0.1518 7.4242 4.0813
v  2.4930 7.2582 6.1036
v  1.0855 6.3458 -0.6592
v  3.9958 6.2558 -0.6592
v  2.3483 4.5558 -0.0200
v  3.7048 2.8417 -0.6592
v  0.6073 2.7799 -0.6591
v  3.8780 9.3866 5.7147
v  2.0406 7.2326 5.0347
v  4.4909 7.3132 4.9848
v  4.6840 5.0942 5.4596
v  6.7527 7.2783 6.1998
v  9.4782 9.5485 2.9614
v  8.3468 10.0907 0.3339
v  7.2658 9.9000 2.5266
v  5.6345 11.3906 1.9755
v  6.7087 10.8758 4.8354
v  1.8049 9.5123 -0.6592
v  3.4615 7.1178 -0.6592
v  1.1153 7.4331 -0.0200
v  0.5424 5.3236 -0.6592
v  -1.3475 7.7785 -0.6592
# 385 vertices

vn 0.1686 -0.0000 -0.9857
vn 0.7934 -0.0000 -0.6088
vn 0.0000 -0.0000 -1.0000
vn 0.3569 0.9091 -0.2146
vn 0.1697 0.0002 -0.9855
vn -0.0000 0.9338 -0.3579
vn 0.2129 0.9049 0.3687
vn -0.5000 -0.0004 0.8660
vn -0.8630 -0.0002 0.5052
vn -0.8660 0.0000 0.5000
vn -0.5000 0.0000 0.8660
vn 0.5000 0.0000 0.8660
vn 0.0000 0.0000 1.0000
vn -0.0000 -0.0004 1.0000
vn 0.5000 -0.0004 0.8660
vn -0.2129 0.9049 0.3687
vn -0.3621 0.9060 0.2191
vn 0.0000 0.0006 -1.0000
vn -0.9958 0.0000 0.0916
vn -0.7893 -0.0006 -0.6140
vn 0.8630 -0.0002 0.5052
vn 0.8660 0.0000 0.5000
vn 0.9957 -0.0000 0.0923
vn -0.1697 0.0002 -0.9855
vn -0.9957 0.0000 0.0923
vn -0.7934 0.0000 -0.6088
vn -0.1686 -0.0000 -0.9857
vn 0.7893 -0.0006 -0.6140
vn -0.0000 0.9049 0.4257
vn 0.3621 0.9060 0.2191
vn 0.9958 0.0000 0.0916
vn -0.3569 0.9091 -0.2146
# 32 vertex normals

vt -0.1068 0.5381 0.0000
vt 0.2069 -0.1188 0.0000
vt 0.4300 0.4294 0.0000
vt 0.9588 0.2916 0.0000
vt 0.6610 1.0066 0.0000
# 5 texture coords

g mazeSemiColumnSmall_leafs
s 1
f 1/1/1 2/2/2 3/3/1 
f 2/2/2 4/4/1 3/3/1 
f 4/4/1 5/5/3 3/3/1 
f 5/5/3 1/1/1 3/3/1 
f 6/1/4 7/2/5 8/3/4 
f 7/2/5 9/4/6 8/3/4 
f 9/4/6 10/5/7 8/3/4 
f 10/5/7 6/1/4 8/3/4 
f 11/1/8 12/2/9 13/3/9 
f 12/2/9 14/4/10 13/3/9 
f 14/4/10 15/5/11 13/3/9 
f 15/5/11 11/1/8 13/3/9 
f 16/1/12 17/2/13 18/3/13 
f 17/2/13 19/4/13 18/3/13 
f 19/4/13 20/5/12 18/3/13 
f 20/5/12 16/1/12 18/3/13 
f 21/1/14 22/2/14 23/3/14 
f 22/2/14 24/4/13 23/3/14 
f 24/4/13 25/5/15 23/3/14 
f 25/5/15 21/1/14 23/3/14 
f 26/1/16 27/2/17 28/3/16 
f 27/2/17 29/4/8 28/3/16 
f 29/4/8 30/5/14 28/3/16 
f 30/5/14 26/1/16 28/3/16 
f 31/1/18 32/2/5 33/3/18 
f 32/2/5 34/4/3 33/3/18 
f 34/4/3 35/5/18 33/3/18 
f 35/5/18 31/1/18 33/3/18 
f 36/1/19 37/2/20 38/3/19 
f 37/2/20 39/4/20 38/3/19 
f 39/4/20 40/5/9 38/3/19 
f 40/5/9 36/1/19 38/3/19 
f 41/1/21 42/2/15 43/3/22 
f 42/2/15 44/4/22 43/3/22 
f 44/4/22 45/5/23 43/3/22 
f 45/5/23 41/1/21 43/3/22 
f 46/1/17 47/2/6 48/3/18 
f 47/2/6 49/4/18 48/3/18 
f 49/4/18 50/5/24 48/3/18 
f 50/5/24 46/1/17 48/3/18 
f 51/1/25 52/2/26 53/3/25 
f 52/2/26 54/4/26 53/3/25 
f 54/4/26 55/5/10 53/3/25 
f 55/5/10 51/1/25 53/3/25 
f 56/1/24 57/2/18 58/3/24 
f 57/2/18 59/4/27 58/3/24 
f 59/4/27 60/5/20 58/3/24 
f 60/5/20 56/1/24 58/3/24 
f 61/1/22 62/2/12 63/3/22 
f 62/2/12 64/4/12 63/3/22 
f 64/4/12 65/5/22 63/3/22 
f 65/5/22 61/1/22 63/3/22 
f 66/1/28 67/2/28 68/3/5 
f 67/2/28 69/4/1 68/3/5 
f 69/4/1 70/5/5 68/3/5 
f 70/5/5 66/1/28 68/3/5 
f 71/1/7 72/2/29 73/3/15 
f 72/2/29 74/4/14 73/3/15 
f 74/4/14 75/5/15 73/3/15 
f 75/5/15 71/1/7 73/3/15 
f 76/1/30 77/2/15 78/3/21 
f 77/2/15 79/4/21 78/3/21 
f 79/4/21 80/5/31 78/3/21 
f 80/5/31 76/1/30 78/3/21 
f 81/1/14 82/2/11 83/3/11 
f 82/2/11 84/4/11 83/3/11 
f 84/4/11 85/5/13 83/3/11 
f 85/5/13 81/1/14 83/3/11 
f 86/1/18 87/2/3 88/3/3 
f 87/2/3 89/4/3 88/3/3 
f 89/4/3 90/5/27 88/3/3 
f 90/5/27 86/1/18 88/3/3 
f 91/1/9 92/2/9 93/3/8 
f 92/2/9 94/4/8 93/3/8 
f 94/4/8 95/5/8 93/3/8 
f 95/5/8 91/1/9 93/3/8 
f 96/1/28 97/2/22 98/3/2 
f 97/2/22 99/4/23 98/3/2 
f 99/4/23 100/5/2 98/3/2 
f 100/5/2 96/1/28 98/3/2 
f 101/1/22 102/2/12 103/3/12 
f 102/2/12 104/4/12 103/3/12 
f 104/4/12 105/5/22 103/3/12 
f 105/5/22 101/1/22 103/3/12 
f 106/1/31 107/2/21 108/3/31 
f 107/2/21 109/4/31 108/3/31 
f 109/4/31 110/5/28 108/3/31 
f 110/5/28 106/1/31 108/3/31 
f 111/1/18 112/2/5 113/3/18 
f 112/2/5 114/4/5 113/3/18 
f 114/4/5 115/5/18 113/3/18 
f 115/5/18 111/1/18 113/3/18 
f 116/1/7 117/2/6 118/3/6 
f 117/2/6 119/4/6 118/3/6 
f 119/4/6 120/5/29 118/3/6 
f 120/5/29 116/1/7 118/3/6 
f 121/1/23 122/2/22 123/3/23 
f 122/2/22 124/4/23 123/3/23 
f 124/4/23 125/5/2 123/3/23 
f 125/5/2 121/1/23 123/3/23 
f 126/1/6 127/2/18 128/3/17 
f 127/2/18 129/4/32 128/3/17 
f 129/4/32 130/5/16 128/3/17 
f 130/5/16 126/1/6 128/3/17 
f 131/1/8 132/2/10 133/3/10 
f 132/2/10 134/4/10 133/3/10 
f 134/4/10 135/5/11 133/3/10 
f 135/5/11 131/1/8 133/3/10 
f 136/1/14 137/2/8 138/3/14 
f 137/2/8 139/4/8 138/3/14 
f 139/4/8 140/5/14 138/3/14 
f 140/5/14 136/1/14 138/3/14 
f 141/1/11 142/2/11 143/3/11 
f 142/2/11 144/4/11 143/3/11 
f 144/4/11 145/5/13 143/3/11 
f 145/5/13 141/1/11 143/3/11 
f 146/1/20 147/2/24 148/3/27 
f 147/2/24 149/4/3 148/3/27 
f 149/4/3 150/5/26 148/3/27 
f 150/5/26 146/1/20 148/3/27 
f 151/1/18 152/2/18 153/3/18 
f 152/2/18 154/4/3 153/3/18 
f 154/4/3 155/5/27 153/3/18 
f 155/5/27 151/1/18 153/3/18 
f 156/1/15 157/2/14 158/3/12 
f 157/2/14 159/4/12 158/3/12 
f 159/4/12 160/5/12 158/3/12 
f 160/5/12 156/1/15 158/3/12 
f 161/1/18 162/2/18 163/3/18 
f 162/2/18 164/4/18 163/3/18 
f 164/4/18 165/5/24 163/3/18 
f 165/5/24 161/1/18 163/3/18 
f 166/1/27 167/2/3 168/3/27 
f 167/2/3 169/4/27 168/3/27 
f 169/4/27 170/5/26 168/3/27 
f 170/5/26 166/1/27 168/3/27 
f 171/1/8 172/2/8 173/3/8 
f 172/2/8 174/4/11 173/3/8 
f 174/4/11 175/5/14 173/3/8 
f 175/5/14 171/1/8 173/3/8 
f 176/1/18 177/2/5 178/3/1 
f 177/2/5 179/4/1 178/3/1 
f 179/4/1 180/5/3 178/3/1 
f 180/5/3 176/1/18 178/3/1 
f 181/1/15 182/2/14 183/3/15 
f 182/2/14 184/4/15 183/3/15 
f 184/4/15 185/5/21 183/3/15 
f 185/5/21 181/1/15 183/3/15 
f 186/1/19 187/2/20 188/3/19 
f 187/2/20 189/4/26 188/3/19 
f 189/4/26 190/5/9 188/3/19 
f 190/5/9 186/1/19 188/3/19 
f 191/1/32 192/2/18 193/3/24 
f 192/2/18 194/4/24 193/3/24 
f 194/4/24 195/5/20 193/3/24 
f 195/5/20 191/1/32 193/3/24 
f 196/1/5 197/2/28 198/3/5 
f 197/2/28 199/4/18 198/3/5 
f 199/4/18 200/5/18 198/3/5 
f 200/5/18 196/1/5 198/3/5 
f 201/1/9 202/2/19 203/3/9 
f 202/2/19 204/4/9 203/3/9 
f 204/4/9 205/5/8 203/3/9 
f 205/5/8 201/1/9 203/3/9 
f 206/1/23 207/2/22 208/3/22 
f 207/2/22 209/4/22 208/3/22 
f 209/4/22 210/5/2 208/3/22 
f 210/5/2 206/1/23 208/3/22 
f 211/1/10 212/2/26 213/3/25 
f 212/2/26 214/4/25 213/3/25 
f 214/4/25 215/5/10 213/3/25 
f 215/5/10 211/1/10 213/3/25 
f 216/1/12 217/2/13 218/3/13 
f 217/2/13 219/4/13 218/3/13 
f 219/4/13 220/5/12 218/3/13 
f 220/5/12 216/1/12 218/3/13 
f 221/1/31 222/2/21 223/3/31 
f 222/2/21 224/4/22 223/3/31 
f 224/4/22 225/5/2 223/3/31 
f 225/5/2 221/1/31 223/3/31 
f 226/1/29 227/2/8 228/3/14 
f 227/2/8 229/4/14 228/3/14 
f 229/4/14 230/5/14 228/3/14 
f 230/5/14 226/1/29 228/3/14 
f 231/1/3 232/2/1 233/3/3 
f 232/2/1 234/4/3 233/3/3 
f 234/4/3 235/5/3 233/3/3 
f 235/5/3 231/1/3 233/3/3 
f 236/1/21 237/2/15 238/3/21 
f 237/2/15 239/4/22 238/3/21 
f 239/4/22 240/5/31 238/3/21 
f 240/5/31 236/1/21 238/3/21 
f 241/1/20 242/2/24 243/3/24 
f 242/2/24 244/4/27 243/3/24 
f 244/4/27 245/5/26 243/3/24 
f 245/5/26 241/1/20 243/3/24 
f 246/1/2 247/2/2 248/3/2 
f 247/2/2 249/4/2 248/3/2 
f 249/4/2 250/5/1 248/3/2 
f 250/5/1 246/1/2 248/3/2 
f 251/1/17 252/2/18 253/3/32 
f 252/2/18 254/4/24 253/3/32 
f 254/4/24 255/5/19 253/3/32 
f 255/5/19 251/1/17 253/3/32 
f 256/1/7 257/2/6 258/3/16 
f 257/2/6 259/4/17 258/3/16 
f 259/4/17 260/5/16 258/3/16 
f 260/5/16 256/1/7 258/3/16 
f 261/1/9 262/2/20 263/3/9 
f 262/2/20 264/4/19 263/3/9 
f 264/4/19 265/5/9 263/3/9 
f 265/5/9 261/1/9 263/3/9 
f 266/1/14 267/2/14 268/3/14 
f 267/2/14 269/4/14 268/3/14 
f 269/4/14 270/5/15 268/3/14 
f 270/5/15 266/1/14 268/3/14 
f 271/1/7 272/2/29 273/3/7 
f 272/2/29 274/4/15 273/3/7 
f 274/4/15 275/5/21 273/3/7 
f 275/5/21 271/1/7 273/3/7 
f 276/1/5 277/2/28 278/3/5 
f 277/2/28 279/4/1 278/3/5 
f 279/4/1 280/5/18 278/3/5 
f 280/5/18 276/1/5 278/3/5 
f 281/1/15 282/2/14 283/3/15 
f 282/2/14 284/4/12 283/3/15 
f 284/4/12 285/5/12 283/3/15 
f 285/5/12 281/1/15 283/3/15 
f 286/1/27 287/2/27 288/3/27 
f 287/2/27 289/4/27 288/3/27 
f 289/4/27 290/5/26 288/3/27 
f 290/5/26 286/1/27 288/3/27 
f 291/1/12 292/2/13 293/3/12 
f 292/2/13 294/4/13 293/3/12 
f 294/4/13 295/5/12 293/3/12 
f 295/5/12 291/1/12 293/3/12 
f 296/1/6 297/2/30 298/3/6 
f 297/2/30 299/4/5 298/3/6 
f 299/4/5 300/5/18 298/3/6 
f 300/5/18 296/1/6 298/3/6 
f 301/1/18 302/2/5 303/3/3 
f 302/2/5 304/4/1 303/3/3 
f 304/4/1 305/5/3 303/3/3 
f 305/5/3 301/1/18 303/3/3 
f 306/1/9 307/2/20 308/3/25 
f 307/2/20 309/4/25 308/3/25 
f 309/4/25 310/5/10 308/3/25 
f 310/5/10 306/1/9 308/3/25 
f 311/1/30 312/2/4 313/3/4 
f 312/2/4 314/4/28 313/3/4 
f 314/4/28 315/5/5 313/3/4 
f 315/5/5 311/1/30 313/3/4 
f 316/1/27 317/2/3 318/3/3 
f 317/2/3 319/4/3 318/3/3 
f 319/4/3 320/5/27 318/3/3 
f 320/5/27 316/1/27 318/3/3 
f 321/1/10 322/2/25 323/3/10 
f 322/2/25 324/4/10 323/3/10 
f 324/4/10 325/5/11 323/3/10 
f 325/5/11 321/1/10 323/3/10 
f 326/1/5 327/2/28 328/3/5 
f 327/2/28 329/4/5 328/3/5 
f 329/4/5 330/5/18 328/3/5 
f 330/5/18 326/1/5 328/3/5 
f 331/1/8 332/2/19 333/3/9 
f 332/2/19 334/4/10 333/3/9 
f 334/4/10 335/5/8 333/3/9 
f 335/5/8 331/1/8 333/3/9 
f 336/1/7 337/2/6 338/3/29 
f 337/2/6 339/4/16 338/3/29 
f 339/4/16 340/5/14 338/3/29 
f 340/5/14 336/1/7 338/3/29 
f 341/1/5 342/2/28 343/3/5 
f 342/2/28 344/4/28 343/3/5 
f 344/4/28 345/5/5 343/3/5 
f 345/5/5 341/1/5 343/3/5 
f 346/1/9 347/2/20 348/3/19 
f 347/2/20 349/4/25 348/3/19 
f 349/4/25 350/5/10 348/3/19 
f 350/5/10 346/1/9 348/3/19 
f 351/1/8 352/2/9 353/3/8 
f 352/2/9 354/4/9 353/3/8 
f 354/4/9 355/5/8 353/3/8 
f 355/5/8 351/1/8 353/3/8 
f 356/1/31 357/2/21 358/3/31 
f 357/2/21 359/4/21 358/3/31 
f 359/4/21 360/5/28 358/3/31 
f 360/5/28 356/1/31 358/3/31 
f 361/1/16 362/2/17 363/3/8 
f 362/2/17 364/4/9 363/3/8 
f 364/4/9 365/5/8 363/3/8 
f 365/5/8 361/1/16 363/3/8 
f 366/1/24 367/2/18 368/3/24 
f 367/2/18 369/4/3 368/3/24 
f 369/4/3 370/5/27 368/3/24 
f 370/5/27 366/1/24 368/3/24 
f 371/1/14 372/2/8 373/3/14 
f 372/2/8 374/4/14 373/3/14 
f 374/4/14 375/5/15 373/3/14 
f 375/5/15 371/1/14 373/3/14 
f 376/1/21 377/2/4 378/3/7 
f 377/2/4 379/4/6 378/3/7 
f 379/4/6 380/5/7 378/3/7 
f 380/5/7 376/1/21 378/3/7 
f 381/1/24 382/2/18 383/3/24 
f 382/2/18 384/4/24 383/3/24 
f 384/4/24 385/5/20 383/3/24 
f 385/5/20 381/1/24 383/3/24 
# 0 polygons - 308 triangles

#
# object mazeSemiColumnSmall_base
#

v  0.0000 0.0000 0.9659
v  0.4111 0.0000 2.5000
v  0.4111 9.0000 2.5000
v  0.0000 9.0000 0.9659
v  2.2412 0.0000 4.3301
v  2.2412 9.0000 4.3301
v  4.7412 0.0000 5.0000
v  4.7412 9.0000 5.0000
v  7.2412 0.0000 4.3301
v  7.2412 9.0000 4.3301
v  9.0713 0.0000 2.5000
v  9.0713 9.0000 2.5000
v  9.4824 0.0000 0.9659
v  9.4824 9.0000 0.9659
v  4.7412 9.0000 0.0000
v  4.7412 0.0000 0.0000
v  0.7412 0.0000 0.0000
v  0.7412 9.0000 0.0000
v  8.1747 10.0000 1.9824
v  8.5037 10.0000 1.1131
v  4.7412 10.0000 1.1131
v  6.7235 10.0000 3.4336
v  4.7412 10.0000 3.9647
v  2.7588 10.0000 3.4336
v  1.3076 10.0000 1.9824
v  0.9787 10.0000 1.1131
v  8.7412 9.0000 0.0000
v  8.7412 0.0000 0.0000
v  0.0559 9.0000 0.2415
v  0.0559 0.0000 0.2415
v  9.4265 9.0000 0.2415
v  9.4265 0.0000 0.2415
# 32 vertices

vn -0.9957 0.0000 0.0923
vn -0.8660 0.0000 0.5000
vn -0.8630 -0.0002 0.5052
vn -0.9958 0.0000 0.0916
vn -0.5000 0.0000 0.8660
vn -0.5000 -0.0004 0.8660
vn 0.0000 0.0000 1.0000
vn -0.0000 -0.0004 1.0000
vn 0.5000 0.0000 0.8660
vn 0.5000 -0.0004 0.8660
vn 0.8660 0.0000 0.5000
vn 0.8630 -0.0002 0.5052
vn 0.9957 -0.0000 0.0923
vn 0.9958 0.0000 0.0916
vn 0.0000 0.0006 -1.0000
vn 0.0000 -0.0000 -1.0000
vn -0.1686 -0.0000 -0.9857
vn -0.1697 0.0002 -0.9855
vn 0.3621 0.9060 0.2191
vn 0.3569 0.9091 -0.2146
vn -0.0000 0.9338 -0.3579
vn 0.2129 0.9049 0.3687
vn -0.0000 0.9049 0.4257
vn -0.2129 0.9049 0.3687
vn -0.3621 0.9060 0.2191
vn -0.3569 0.9091 -0.2146
vn 0.1697 0.0002 -0.9855
vn 0.1686 -0.0000 -0.9857
vn -0.7893 -0.0006 -0.6140
vn -0.7934 0.0000 -0.6088
vn 0.7893 -0.0006 -0.6140
vn 0.7934 -0.0000 -0.6088
# 32 vertex normals

vt 0.0617 0.4652 0.0000
vt 0.1249 0.4593 0.0000
vt 0.1401 0.8627 0.0000
vt 0.0732 0.8697 0.0000
vt 0.2356 0.4540 0.0000
vt 0.2496 0.8578 0.0000
vt 0.3469 0.4507 0.0000
vt 0.3579 0.8547 0.0000
vt 0.4575 0.4488 0.0000
vt 0.4662 0.8528 0.0000
vt 0.5653 0.4487 0.0000
vt 0.5756 0.8527 0.0000
vt 0.6310 0.4516 0.0000
vt 0.6431 0.8566 0.0000
vt 0.8850 0.8574 0.0000
vt 0.8857 0.4533 0.0000
vt 1.0623 0.4538 0.0000
vt 1.0637 0.8576 0.0000
vt 0.7308 0.9632 0.0000
vt 0.7154 0.9240 0.0000
vt 0.8850 0.9243 0.0000
vt 0.7959 1.0284 0.0000
vt 0.8850 1.0522 0.0000
vt 0.9740 1.0284 0.0000
vt 1.0392 0.9632 0.0000
vt 1.0545 0.9242 0.0000
vt 0.7063 0.8572 0.0000
vt 0.7078 0.4533 0.0000
vt 1.0953 0.8609 0.0000
vt 1.0975 0.4559 0.0000
vt 0.6746 0.8605 0.0000
vt 0.6770 0.4551 0.0000
vt 0.0424 0.8753 0.0000
vt 0.0430 0.4683 0.0000
vt 0.1478 0.9252 0.0000
vt 0.0990 0.9279 0.0000
vt 0.2524 0.9209 0.0000
vt 0.3593 0.9181 0.0000
vt 0.4662 0.9161 0.0000
vt 0.5711 0.9155 0.0000
vt 0.6203 0.9158 0.0000
# 41 texture coords

g mazeSemiColumnSmall_base
s 1
f 386/6/33 387/7/34 388/8/35 389/9/36 
f 387/7/34 390/10/37 391/11/38 388/8/35 
f 390/10/37 392/12/39 393/13/40 391/11/38 
f 392/12/39 394/14/41 395/15/42 393/13/40 
f 394/14/41 396/16/43 397/17/44 395/15/42 
f 396/16/43 398/18/45 399/19/46 397/17/44 
f 400/20/47 401/21/48 402/22/49 403/23/50 
f 404/24/51 405/25/52 406/26/53 407/27/54 
f 408/28/55 407/27/54 406/26/53 409/29/56 
f 410/30/57 409/29/56 406/26/53 411/31/58 
f 412/32/59 413/33/60 401/21/48 400/20/47 
f 414/34/61 403/23/50 402/22/49 415/35/62 
f 416/36/63 399/19/46 398/18/45 417/37/64 
f 389/9/36 414/38/61 415/39/62 386/6/33 
f 412/32/59 416/36/63 417/37/64 413/33/60 
f 388/8/35 410/40/57 411/41/58 389/9/36 
f 391/11/38 409/42/56 410/40/57 388/8/35 
f 393/13/40 408/43/55 409/42/56 391/11/38 
f 395/15/42 407/44/54 408/43/55 393/13/40 
f 397/17/44 404/45/51 407/44/54 395/15/42 
f 399/19/46 405/46/52 404/45/51 397/17/44 
f 403/23/50 411/31/58 406/26/53 400/20/47 
f 400/20/47 406/26/53 405/25/52 412/32/59 
f 389/9/36 411/41/58 414/38/61 
f 412/32/59 405/25/52 416/36/63 
f 414/34/61 411/31/58 403/23/50 
f 416/36/63 405/46/52 399/19/46 
# 23 polygons - 4 triangles

