# 3ds Max Wavefront OBJ Exporter v0.97b - (c)2007 guruware
# File Created: 22.06.2016 10:47:13

#
# object mazeWallUnit5Small_base
#

v  0.0000 10.0000 4.0000
v  20.0000 10.0000 4.0000
v  20.0000 10.0000 1.0000
v  0.0000 10.0000 1.0000
v  0.0000 0.0000 5.0000
v  20.0000 0.0000 5.0000
v  20.0000 9.0000 5.0000
v  0.0000 9.0000 5.0000
v  20.0000 0.0000 -0.0000
v  0.0000 0.0000 -0.0000
v  0.0000 9.0000 -0.0000
v  20.0000 9.0000 -0.0000
# 12 vertices

vn 0.0000 0.9239 0.3827
vn 0.0000 0.9239 -0.3827
vn 0.0000 0.0000 1.0000
vn 0.0000 0.0000 -1.0000
# 4 vertex normals

vt 0.9616 0.0000 0.0000
vt 0.9616 0.8214 0.0000
vt 0.8384 0.8214 0.0000
vt 0.8384 0.0000 0.0000
vt 1.3893 0.0000 0.0000
vt 1.3893 0.8214 0.0000
vt 1.0197 0.8214 0.0000
vt 1.0197 0.0000 0.0000
vt 0.4107 0.8214 0.0000
vt 0.4107 0.0000 0.0000
vt 0.7803 0.0000 0.0000
vt 0.7803 0.8214 0.0000
# 12 texture coords

g mazeWallUnit5Small_base
s 1
f 1/1/1 2/2/1 3/3/2 4/4/2 
f 5/5/3 6/6/3 7/7/3 8/8/3 
f 9/9/4 10/10/4 11/11/4 12/12/4 
f 1/1/1 8/8/3 7/7/3 2/2/1 
f 3/3/2 12/12/4 11/11/4 4/4/2 
# 5 polygons

#
# object mazeWallUnit5Small_leafs
#

v  13.9046 5.2793 -0.6592
v  16.6514 4.3133 -0.6592
v  14.5669 3.1912 -0.0200
v  15.3414 1.1471 -0.6592
v  12.3703 2.0251 -0.6592
v  11.7287 9.2684 2.8877
v  10.6697 9.9413 0.2602
v  9.5738 9.8804 2.4529
v  8.1313 11.5544 1.9018
v  9.1366 10.9155 4.7617
v  3.7694 2.8850 5.6592
v  1.1837 1.5461 5.6592
v  3.4040 0.7250 5.0200
v  2.9216 -1.4069 5.6592
v  5.7416 -0.1241 5.6592
v  4.6188 8.3111 -0.6592
v  6.3877 5.9982 -0.6592
v  4.0291 6.2013 -0.0200
v  3.5573 4.0669 -0.6592
v  1.5526 6.4290 -0.6592
v  2.1484 8.9172 5.6592
v  0.0806 6.8672 5.6592
v  2.4448 6.7467 5.0200
v  2.6211 4.5679 5.6592
v  4.9293 6.6344 5.6592
v  7.6224 5.6202 -0.6592
v  10.3743 4.6690 -0.6592
v  8.2959 3.5357 -0.0200
v  9.0814 1.4959 -0.6592
v  6.1057 2.3578 -0.6592
v  11.9101 8.1647 5.6592
v  9.2224 7.0446 5.6592
v  11.3671 6.0424 5.0200
v  10.7097 3.9577 5.6592
v  13.6262 5.0025 5.6592
v  -0.8943 11.1124 -0.6592
v  1.8869 10.2503 -0.6592
v  -0.1538 9.0506 -0.0200
v  0.6970 7.0371 -0.6592
v  -2.3050 7.8027 -0.6592
v  18.2919 11.2406 2.2745
v  17.0752 10.9340 -0.3530
v  16.3661 10.0961 1.8397
v  14.1588 10.1990 1.2886
v  15.3138 10.4901 4.1485
v  2.2135 2.2296 -0.6591
v  5.1056 1.8917 -0.6592
v  3.3191 0.3384 -0.0200
v  4.5244 -1.4851 -0.6592
v  1.4330 -1.2825 -0.6592
v  18.8493 8.9608 -0.6592
v  21.6477 8.1560 -0.6592
v  19.6319 6.9147 -0.0200
v  20.5239 4.9191 -0.6592
v  17.5068 5.6229 -0.6592
v  18.0500 8.3403 5.6592
v  15.2973 7.3911 5.6592
v  17.3749 6.2563 5.0200
v  16.5879 4.2170 5.6592
v  19.5643 5.0767 5.6592
v  9.4621 3.5563 5.6592
v  7.1362 1.8046 5.6592
v  9.4624 1.3656 5.0200
v  9.3426 -0.8170 5.6592
v  11.9089 0.9186 5.6592
v  20.6978 2.6063 5.6592
v  17.7884 2.4908 5.6592
v  19.4507 0.8053 5.0200
v  18.1092 -0.9206 5.6592
v  21.2071 -0.9553 5.6592
v  6.1243 11.8375 3.3540
v  5.0549 11.1814 0.7265
v  4.6286 10.1699 2.9191
v  2.4914 9.6084 2.3681
v  3.5067 10.2313 5.2280
v  11.7963 8.9556 -0.6592
v  13.9251 6.9690 -0.6592
v  11.5656 6.7771 -0.0200
v  11.4553 4.5940 -0.6592
v  9.0857 6.5898 -0.6592
v  7.8681 10.2699 5.6592
v  5.5152 8.5547 5.6592
v  7.8343 8.0795 5.0200
v  7.6804 5.8990 5.6592
v  10.2735 7.5944 5.6592
v  0.6987 5.1674 5.6591
v  -1.9634 3.9877 5.6592
v  0.2031 3.0335 5.0200
v  -0.4077 0.9347 5.6592
v  2.4848 2.0443 5.6592
v  19.0047 12.2353 2.7629
v  16.8462 10.4941 3.6501
v  19.2781 10.2364 3.8291
v  19.1220 9.0664 5.7768
v  21.5142 10.8458 4.9345
v  6.0170 9.7330 -0.6592
v  8.9240 9.8990 -0.6592
v  7.4322 8.0609 -0.0200
v  8.9340 6.4726 -0.6592
v  5.8539 6.1389 -0.6592
v  5.3094 6.1337 5.6592
v  2.8824 4.5250 5.6592
v  5.1780 3.9470 5.0200
v  4.9271 1.7755 5.6592
v  7.5931 3.3537 5.6592
v  15.2622 10.3519 2.5652
v  14.0179 10.5135 -0.0623
v  13.0507 9.9947 2.1303
v  11.0354 10.9010 1.5793
v  12.2166 10.7476 4.4392
v  1.0348 6.8632 -0.6592
v  2.8182 4.5615 -0.6592
v  0.4584 4.7497 -0.0200
v  0.0001 2.6124 -0.6591
v  -2.0195 4.9618 -0.6592
v  17.2533 8.6422 -0.6592
v  18.7523 6.1460 -0.6592
v  16.4313 6.6117 -0.0200
v  15.7237 4.5435 -0.6592
v  13.9958 7.1149 -0.6592
v  1.6096 11.7937 2.9574
v  -1.1531 11.5508 3.8446
v  0.7226 9.9816 4.0236
v  -0.0589 9.0971 5.9713
v  2.9190 9.2416 5.1290
v  12.4416 11.2032 5.6592
v  10.6542 8.9046 5.6592
v  13.0143 9.0887 5.0200
v  13.4689 6.9507 5.6592
v  15.4926 9.2965 5.6592
v  14.9914 5.6562 5.6592
v  12.6607 3.9109 5.6592
v  14.9857 3.4656 5.0200
v  14.8598 1.2834 5.6591
v  17.4309 3.0119 5.6592
v  16.5090 4.4154 -0.6592
v  19.4203 4.3641 -0.6592
v  17.7956 2.6424 -0.0200
v  19.1746 0.9464 -0.6592
v  16.0783 0.8435 -0.6592
v  -1.4147 3.0369 -0.6592
v  1.4968 3.0707 -0.6592
v  -0.0768 1.3022 -0.0200
v  1.3513 -0.3526 -0.6591
v  -1.7408 -0.5461 -0.6592
v  7.2677 2.9448 -0.6592
v  9.0138 0.6147 -0.6592
v  6.6573 0.8409 -0.0200
v  6.1647 -1.2888 -0.6592
v  4.1832 1.0928 -0.6592
v  9.4380 6.5434 5.6592
v  6.5732 6.0225 5.6592
v  8.4548 4.5858 5.0200
v  7.3678 2.6894 5.6592
v  10.4401 3.0880 5.6592
v  10.5865 3.3115 -0.6592
v  13.4813 3.6252 -0.6592
v  12.0851 1.7135 -0.0200
v  13.6657 0.2037 -0.6592
v  10.6066 -0.2863 -0.6592
v  20.1258 6.3806 5.6592
v  17.2750 5.7881 5.6592
v  19.1919 4.3990 5.0200
v  18.1527 2.4759 5.6592
v  21.2141 2.9514 5.6592
v  15.2508 8.5644 5.6592
v  12.5120 7.5759 5.6592
v  14.6056 6.4709 5.0200
v  13.8479 4.4206 5.6592
v  16.8117 5.3228 5.6592
v  4.4343 11.0109 5.6592
v  2.8263 8.5834 5.6592
v  5.1656 8.9459 5.0200
v  5.7810 6.8485 5.6592
v  7.6210 9.3409 5.6592
v  2.8148 10.9361 -0.6592
v  5.6612 10.3227 -0.6592
v  3.7342 8.9477 -0.0200
v  4.7593 7.0171 -0.6592
v  1.7014 7.5149 -0.6592
v  9.9323 11.4681 5.6592
v  7.6711 9.6336 5.6592
v  10.0116 9.2789 5.0200
v  9.9706 7.0934 5.6592
v  12.4726 8.9205 5.6592
v  6.3245 8.1852 -0.6592
v  8.8688 6.7694 -0.6592
v  6.6249 6.0153 -0.0200
v  7.0432 3.8698 -0.6592
v  4.2629 5.2367 -0.6592
v  16.7778 11.2597 5.6592
v  14.2619 9.7938 5.6592
v  16.5204 9.0842 5.0200
v  16.1446 6.9309 5.6592
v  18.8973 8.3525 5.6592
v  3.5086 5.2955 -0.6592
v  5.1059 2.8610 -0.6592
v  2.7682 3.2338 -0.0200
v  2.1436 1.1391 -0.6592
v  0.3146 3.6396 -0.6592
v  9.6992 10.6352 4.2677
v  8.4446 10.6528 1.6401
v  7.5434 10.0262 3.8328
v  5.4373 10.6949 3.2817
v  6.6284 10.6782 6.1417
v  13.8273 10.2768 -0.6592
v  16.3908 8.8959 -0.6592
v  14.1574 8.1111 -0.0200
v  14.6051 5.9716 -0.6592
v  11.8063 7.3002 -0.6592
v  18.4851 11.5116 1.5229
v  21.0025 10.3480 0.6357
v  18.7064 9.5062 0.4567
v  19.1425 8.4094 -1.4910
v  16.3892 9.5532 -0.6487
v  7.2629 8.3069 5.6592
v  4.5520 7.2443 5.6592
v  6.6748 6.1967 5.0200
v  5.9732 4.1265 5.6592
v  8.9113 5.1090 5.6592
v  9.2893 11.0531 1.6553
v  12.0161 11.5590 0.7681
v  10.6293 9.5447 0.5891
v  11.6192 8.9019 -1.3586
v  8.7114 8.2435 -0.5163
v  4.3472 10.7244 1.7104
v  3.0928 10.6956 -0.9172
v  2.2154 10.0362 1.2755
v  0.0860 10.6268 0.7244
v  1.2768 10.6541 3.5844
v  12.7765 3.8160 5.6592
v  10.2094 2.4419 5.6592
v  12.4407 1.6513 5.0200
v  11.9874 -0.4871 5.6592
v  14.7896 0.8342 5.6592
v  6.6718 3.4309 5.6592
v  4.4413 1.5592 5.6592
v  6.7875 1.2433 5.0200
v  6.7827 -0.9426 5.6592
v  9.2541 0.9257 5.6592
v  17.3689 4.7478 5.6592
v  15.6889 2.3695 5.6592
v  18.0381 2.6618 5.0200
v  18.5904 0.5469 5.6592
v  20.5042 2.9832 5.6592
v  18.2927 6.8364 -0.6592
v  21.0249 5.8297 -0.6592
v  18.9240 4.7387 -0.0200
v  19.6681 2.6834 -0.6592
v  16.7104 3.6053 -0.6592
v  1.9111 2.0225 5.6592
v  -1.0005 2.0506 5.6592
v  0.5767 0.2852 5.0200
v  -0.8481 -1.3725 5.6592
v  2.2443 -1.5598 5.6592
v  3.4426 5.2138 5.6592
v  0.9175 3.7638 5.6592
v  3.1715 3.0400 5.0200
v  2.7821 0.8891 5.6592
v  5.5437 2.2933 5.6592
v  15.9479 2.3354 5.6592
v  14.1622 0.0355 5.6592
v  16.5222 0.2213 5.0200
v  16.9784 -1.9164 5.6592
v  19.0003 0.4310 5.6592
v  1.9021 9.9821 -0.6592
v  3.9708 7.9330 -0.6592
v  1.6067 7.8115 -0.0200
v  1.4314 5.6327 -0.6592
v  -0.8777 7.6981 -0.6592
v  15.6343 2.9854 -0.6592
v  18.4252 2.1554 -0.6592
v  16.3984 0.9323 -0.0200
v  17.2723 -1.0713 -0.6592
v  14.2617 -0.3403 -0.6592
v  1.8492 6.9338 5.6592
v  -1.0297 7.3701 5.6592
v  0.2842 5.4009 5.0200
v  -1.3591 3.9595 5.6592
v  1.6765 3.3402 5.6592
v  4.4764 11.1914 1.6576
v  7.2383 11.4422 0.7704
v  5.6707 9.5652 0.5914
v  6.5967 8.8334 -1.3563
v  3.6404 8.4475 -0.5140
v  20.5932 9.3720 5.6592
v  17.8321 8.4476 5.6592
v  19.8994 7.2941 5.0200
v  19.0941 5.2620 5.6592
v  22.0781 6.0950 5.6592
v  17.4909 10.7912 4.2216
v  16.2378 10.7274 1.5941
v  15.3790 10.0438 3.7868
v  13.2340 10.5748 3.2357
v  14.4237 10.6353 6.0956
v  12.9965 5.3600 5.6592
v  10.0865 5.2590 5.6592
v  11.7403 3.5653 5.0200
v  10.3903 1.8461 5.6592
v  13.4880 1.7959 5.6592
v  7.6171 7.0474 -0.6592
v  10.5286 7.0087 -0.6592
v  8.9114 5.2799 -0.0200
v  10.2979 3.5900 -0.6592
v  7.2020 3.4736 -0.6592
v  3.9590 6.4271 -0.6592
v  6.7422 5.5713 -0.6592
v  4.7041 4.3670 -0.0200
v  5.5595 2.3554 -0.6591
v  2.5558 3.1142 -0.6592
v  2.6447 11.4157 5.6592
v  0.4505 9.5016 5.6592
v  2.8022 9.2307 5.0200
v  2.8393 7.0452 5.6592
v  5.2744 8.9605 5.6592
v  6.1118 8.4871 5.6592
v  3.2299 8.9031 5.6592
v  4.5577 6.9432 5.0200
v  2.9246 5.4903 5.6592
v  5.9644 4.8924 5.6592
v  12.3057 2.2289 5.6592
v  9.4082 1.9410 5.6592
v  11.1675 0.3571 5.0200
v  9.9309 -1.4454 5.6592
v  13.0254 -1.2962 5.6592
v  5.7557 6.1971 -0.6592
v  8.5823 5.4979 -0.6592
v  6.6145 4.1819 -0.0200
v  7.5807 2.2211 -0.6592
v  4.5394 2.8112 -0.6592
v  12.0895 6.7755 -0.6592
v  13.7448 4.3800 -0.6592
v  11.3987 4.6966 -0.0200
v  10.8246 2.5875 -0.6592
v  8.9361 5.0435 -0.6592
v  8.0455 2.4903 -0.6592
v  10.9210 2.9483 -0.6592
v  9.6220 0.9693 -0.0200
v  11.2761 -0.4597 -0.6592
v  8.2454 -1.1019 -0.6592
v  16.8027 6.9489 -0.6592
v  19.2742 5.4095 -0.6592
v  16.9958 4.7668 -0.0200
v  17.3079 2.6033 -0.6592
v  14.5984 4.1055 -0.6592
v  13.6021 9.7788 3.5648
v  12.4270 10.2187 0.9373
v  11.3673 9.9330 3.1300
v  9.6103 11.2732 2.5789
v  10.7259 10.8556 5.4389
v  3.5677 4.1416 -0.6592
v  6.3932 3.4379 -0.6592
v  4.4234 2.1249 -0.0200
v  5.3865 0.1627 -0.6592
v  2.3460 0.7576 -0.6592
v  1.7930 11.8817 2.9282
v  0.7410 11.1979 0.3007
v  0.3413 10.1756 2.4933
v  -1.7805 9.5585 1.9423
v  -0.7819 10.2078 4.8022
v  -0.3431 9.8404 5.6592
v  -2.1096 7.5257 5.6592
v  0.2488 7.7312 5.0200
v  0.7228 5.5973 5.6592
v  2.7251 7.9614 5.6592
v  10.1686 9.6184 1.7870
v  9.0243 10.1331 -0.8405
v  7.9483 9.9162 1.3522
v  6.2814 11.3669 0.8011
v  7.3677 10.8782 3.6610
v  9.7623 9.5098 -0.6592
v  12.0359 7.6908 -0.6592
v  9.6978 7.3201 -0.0200
v  9.7537 5.1350 -0.6592
v  7.2393 6.9449 -0.6592
v  12.6016 2.4595 -0.6592
v  15.5130 2.4994 -0.6592
v  13.9431 0.7276 -0.0200
v  15.3746 -0.9242 -0.6592
v  12.2830 -1.1242 -0.6592
v  0.6665 8.7388 -0.6592
v  2.5500 6.5184 -0.6592
v  0.1842 6.6019 -0.0200
v  -0.1790 4.4465 -0.6591
v  -2.3006 6.7041 -0.6592
v  14.0448 6.0226 -0.6592
v  15.4972 3.4990 -0.6592
v  13.1852 4.0077 -0.0200
v  12.4393 1.9530 -0.6592
v  10.7595 4.5561 -0.6592
v  20.1648 11.5882 2.9951
v  19.0164 11.0828 0.3676
v  18.4571 10.1383 2.5603
v  16.2636 9.8713 2.0092
v  17.3538 10.3511 4.8691
v  20.3893 3.5558 -0.6591
v  21.8402 1.0313 -0.6592
v  19.5285 1.5414 -0.0200
v  18.7814 -0.5128 -0.6592
v  17.1031 2.0913 -0.6592
v  0.8449 6.8307 -0.6592
v  3.7543 6.7141 -0.6592
v  2.0913 5.0292 -0.0200
v  3.4320 3.3028 -0.6592
v  0.3341 3.2694 -0.6592
v  14.9553 7.9324 -0.6592
v  16.7824 5.6653 -0.6592
v  14.4195 5.8083 -0.0200
v  14.0022 3.6626 -0.6592
v  11.9380 5.9728 -0.6592
# 410 vertices

vn 0.0000 0.0000 -1.0000
vn 0.0000 0.9239 0.3827
vn 0.0000 0.9239 -0.3827
vn 0.0000 0.0000 1.0000
# 4 vertex normals

vt -0.1068 0.5381 0.0000
vt 0.2069 -0.1188 0.0000
vt 0.4300 0.4294 0.0000
vt 0.9588 0.2916 0.0000
vt 0.6610 1.0066 0.0000
# 5 texture coords

g mazeWallUnit5Small_leafs
s 1
f 13/13/5 14/14/5 15/15/5 
f 14/14/5 16/16/5 15/15/5 
f 16/16/5 17/17/5 15/15/5 
f 17/17/5 13/13/5 15/15/5 
f 18/13/6 19/14/7 20/15/7 
f 19/14/7 21/16/7 20/15/7 
f 21/16/7 22/17/6 20/15/7 
f 22/17/6 18/13/6 20/15/7 
f 23/13/8 24/14/8 25/15/8 
f 24/14/8 26/16/8 25/15/8 
f 26/16/8 27/17/8 25/15/8 
f 27/17/8 23/13/8 25/15/8 
f 28/13/5 29/14/5 30/15/5 
f 29/14/5 31/16/5 30/15/5 
f 31/16/5 32/17/5 30/15/5 
f 32/17/5 28/13/5 30/15/5 
f 33/13/8 34/14/8 35/15/8 
f 34/14/8 36/16/8 35/15/8 
f 36/16/8 37/17/8 35/15/8 
f 37/17/8 33/13/8 35/15/8 
f 38/13/5 39/14/5 40/15/5 
f 39/14/5 41/16/5 40/15/5 
f 41/16/5 42/17/5 40/15/5 
f 42/17/5 38/13/5 40/15/5 
f 43/13/8 44/14/8 45/15/8 
f 44/14/8 46/16/8 45/15/8 
f 46/16/8 47/17/8 45/15/8 
f 47/17/8 43/13/8 45/15/8 
f 48/13/7 49/14/5 50/15/5 
f 49/14/5 51/16/5 50/15/5 
f 51/16/5 52/17/5 50/15/5 
f 52/17/5 48/13/7 50/15/5 
f 53/13/7 54/14/7 55/15/7 
f 54/14/7 56/16/7 55/15/7 
f 56/16/7 57/17/6 55/15/7 
f 57/17/6 53/13/7 55/15/7 
f 58/13/5 59/14/5 60/15/5 
f 59/14/5 61/16/5 60/15/5 
f 61/16/5 62/17/5 60/15/5 
f 62/17/5 58/13/5 60/15/5 
f 63/13/5 64/14/5 65/15/5 
f 64/14/5 66/16/5 65/15/5 
f 66/16/5 67/17/5 65/15/5 
f 67/17/5 63/13/5 65/15/5 
f 68/13/8 69/14/8 70/15/8 
f 69/14/8 71/16/8 70/15/8 
f 71/16/8 72/17/8 70/15/8 
f 72/17/8 68/13/8 70/15/8 
f 73/13/8 74/14/8 75/15/8 
f 74/14/8 76/16/8 75/15/8 
f 76/16/8 77/17/8 75/15/8 
f 77/17/8 73/13/8 75/15/8 
f 78/13/8 79/14/8 80/15/8 
f 79/14/8 81/16/8 80/15/8 
f 81/16/8 82/17/8 80/15/8 
f 82/17/8 78/13/8 80/15/8 
f 83/13/6 84/14/7 85/15/6 
f 84/14/7 86/16/7 85/15/6 
f 86/16/7 87/17/6 85/15/6 
f 87/17/6 83/13/6 85/15/6 
f 88/13/5 89/14/5 90/15/5 
f 89/14/5 91/16/5 90/15/5 
f 91/16/5 92/17/5 90/15/5 
f 92/17/5 88/13/5 90/15/5 
f 93/13/8 94/14/8 95/15/8 
f 94/14/8 96/16/8 95/15/8 
f 96/16/8 97/17/8 95/15/8 
f 97/17/8 93/13/8 95/15/8 
f 98/13/8 99/14/8 100/15/8 
f 99/14/8 101/16/8 100/15/8 
f 101/16/8 102/17/8 100/15/8 
f 102/17/8 98/13/8 100/15/8 
f 103/13/6 104/14/6 105/15/6 
f 104/14/6 106/16/8 105/15/6 
f 106/16/8 107/17/6 105/15/6 
f 107/17/6 103/13/6 105/15/6 
f 108/13/5 109/14/5 110/15/5 
f 109/14/5 111/16/5 110/15/5 
f 111/16/5 112/17/5 110/15/5 
f 112/17/5 108/13/5 110/15/5 
f 113/13/8 114/14/8 115/15/8 
f 114/14/8 116/16/8 115/15/8 
f 116/16/8 117/17/8 115/15/8 
f 117/17/8 113/13/8 115/15/8 
f 118/13/6 119/14/7 120/15/7 
f 119/14/7 121/16/7 120/15/7 
f 121/16/7 122/17/6 120/15/7 
f 122/17/6 118/13/6 120/15/7 
f 123/13/5 124/14/5 125/15/5 
f 124/14/5 126/16/5 125/15/5 
f 126/16/5 127/17/5 125/15/5 
f 127/17/5 123/13/5 125/15/5 
f 128/13/5 129/14/5 130/15/5 
f 129/14/5 131/16/5 130/15/5 
f 131/16/5 132/17/5 130/15/5 
f 132/17/5 128/13/5 130/15/5 
f 133/13/6 134/14/6 135/15/6 
f 134/14/6 136/16/8 135/15/6 
f 136/16/8 137/17/8 135/15/6 
f 137/17/8 133/13/6 135/15/6 
f 138/13/6 139/14/8 140/15/8 
f 139/14/8 141/16/8 140/15/8 
f 141/16/8 142/17/8 140/15/8 
f 142/17/8 138/13/6 140/15/8 
f 143/13/8 144/14/8 145/15/8 
f 144/14/8 146/16/8 145/15/8 
f 146/16/8 147/17/8 145/15/8 
f 147/17/8 143/13/8 145/15/8 
f 148/13/5 149/14/5 150/15/5 
f 149/14/5 151/16/5 150/15/5 
f 151/16/5 152/17/5 150/15/5 
f 152/17/5 148/13/5 150/15/5 
f 153/13/5 154/14/5 155/15/5 
f 154/14/5 156/16/5 155/15/5 
f 156/16/5 157/17/5 155/15/5 
f 157/17/5 153/13/5 155/15/5 
f 158/13/5 159/14/5 160/15/5 
f 159/14/5 161/16/5 160/15/5 
f 161/16/5 162/17/5 160/15/5 
f 162/17/5 158/13/5 160/15/5 
f 163/13/8 164/14/8 165/15/8 
f 164/14/8 166/16/8 165/15/8 
f 166/16/8 167/17/8 165/15/8 
f 167/17/8 163/13/8 165/15/8 
f 168/13/5 169/14/5 170/15/5 
f 169/14/5 171/16/5 170/15/5 
f 171/16/5 172/17/5 170/15/5 
f 172/17/5 168/13/5 170/15/5 
f 173/13/8 174/14/8 175/15/8 
f 174/14/8 176/16/8 175/15/8 
f 176/16/8 177/17/8 175/15/8 
f 177/17/8 173/13/8 175/15/8 
f 178/13/8 179/14/8 180/15/8 
f 179/14/8 181/16/8 180/15/8 
f 181/16/8 182/17/8 180/15/8 
f 182/17/8 178/13/8 180/15/8 
f 183/13/6 184/14/8 185/15/8 
f 184/14/8 186/16/8 185/15/8 
f 186/16/8 187/17/8 185/15/8 
f 187/17/8 183/13/6 185/15/8 
f 188/13/7 189/14/5 190/15/5 
f 189/14/5 191/16/5 190/15/5 
f 191/16/5 192/17/5 190/15/5 
f 192/17/5 188/13/7 190/15/5 
f 193/13/6 194/14/8 195/15/8 
f 194/14/8 196/16/8 195/15/8 
f 196/16/8 197/17/8 195/15/8 
f 197/17/8 193/13/6 195/15/8 
f 198/13/5 199/14/5 200/15/5 
f 199/14/5 201/16/5 200/15/5 
f 201/16/5 202/17/5 200/15/5 
f 202/17/5 198/13/5 200/15/5 
f 203/13/6 204/14/8 205/15/8 
f 204/14/8 206/16/8 205/15/8 
f 206/16/8 207/17/8 205/15/8 
f 207/17/8 203/13/6 205/15/8 
f 208/13/5 209/14/5 210/15/5 
f 209/14/5 211/16/5 210/15/5 
f 211/16/5 212/17/5 210/15/5 
f 212/17/5 208/13/5 210/15/5 
f 213/13/6 214/14/7 215/15/6 
f 214/14/7 216/16/6 215/15/6 
f 216/16/6 217/17/8 215/15/6 
f 217/17/8 213/13/6 215/15/6 
f 218/13/5 219/14/5 220/15/5 
f 219/14/5 221/16/5 220/15/5 
f 221/16/5 222/17/5 220/15/5 
f 222/17/5 218/13/5 220/15/5 
f 223/13/7 224/14/7 225/15/5 
f 224/14/7 226/16/5 225/15/5 
f 226/16/5 227/17/5 225/15/5 
f 227/17/5 223/13/7 225/15/5 
f 228/13/8 229/14/8 230/15/8 
f 229/14/8 231/16/8 230/15/8 
f 231/16/8 232/17/8 230/15/8 
f 232/17/8 228/13/8 230/15/8 
f 233/13/7 234/14/7 235/15/7 
f 234/14/7 236/16/5 235/15/7 
f 236/16/5 237/17/5 235/15/7 
f 237/17/5 233/13/7 235/15/7 
f 238/13/7 239/14/5 240/15/7 
f 239/14/5 241/16/7 240/15/7 
f 241/16/7 242/17/6 240/15/7 
f 242/17/6 238/13/7 240/15/7 
f 243/13/8 244/14/8 245/15/8 
f 244/14/8 246/16/8 245/15/8 
f 246/16/8 247/17/8 245/15/8 
f 247/17/8 243/13/8 245/15/8 
f 248/13/8 249/14/8 250/15/8 
f 249/14/8 251/16/8 250/15/8 
f 251/16/8 252/17/8 250/15/8 
f 252/17/8 248/13/8 250/15/8 
f 253/13/8 254/14/8 255/15/8 
f 254/14/8 256/16/8 255/15/8 
f 256/16/8 257/17/8 255/15/8 
f 257/17/8 253/13/8 255/15/8 
f 258/13/5 259/14/5 260/15/5 
f 259/14/5 261/16/5 260/15/5 
f 261/16/5 262/17/5 260/15/5 
f 262/17/5 258/13/5 260/15/5 
f 263/13/8 264/14/8 265/15/8 
f 264/14/8 266/16/8 265/15/8 
f 266/16/8 267/17/8 265/15/8 
f 267/17/8 263/13/8 265/15/8 
f 268/13/8 269/14/8 270/15/8 
f 269/14/8 271/16/8 270/15/8 
f 271/16/8 272/17/8 270/15/8 
f 272/17/8 268/13/8 270/15/8 
f 273/13/8 274/14/8 275/15/8 
f 274/14/8 276/16/8 275/15/8 
f 276/16/8 277/17/8 275/15/8 
f 277/17/8 273/13/8 275/15/8 
f 278/13/5 279/14/5 280/15/5 
f 279/14/5 281/16/5 280/15/5 
f 281/16/5 282/17/5 280/15/5 
f 282/17/5 278/13/5 280/15/5 
f 283/13/5 284/14/5 285/15/5 
f 284/14/5 286/16/5 285/15/5 
f 286/16/5 287/17/5 285/15/5 
f 287/17/5 283/13/5 285/15/5 
f 288/13/8 289/14/8 290/15/8 
f 289/14/8 291/16/8 290/15/8 
f 291/16/8 292/17/8 290/15/8 
f 292/17/8 288/13/8 290/15/8 
f 293/13/7 294/14/7 295/15/7 
f 294/14/7 296/16/5 295/15/7 
f 296/16/5 297/17/5 295/15/7 
f 297/17/5 293/13/7 295/15/7 
f 298/13/8 299/14/8 300/15/8 
f 299/14/8 301/16/8 300/15/8 
f 301/16/8 302/17/8 300/15/8 
f 302/17/8 298/13/8 300/15/8 
f 303/13/6 304/14/7 305/15/6 
f 304/14/7 306/16/6 305/15/6 
f 306/16/6 307/17/8 305/15/6 
f 307/17/8 303/13/6 305/15/6 
f 308/13/8 309/14/8 310/15/8 
f 309/14/8 311/16/8 310/15/8 
f 311/16/8 312/17/8 310/15/8 
f 312/17/8 308/13/8 310/15/8 
f 313/13/5 314/14/5 315/15/5 
f 314/14/5 316/16/5 315/15/5 
f 316/16/5 317/17/5 315/15/5 
f 317/17/5 313/13/5 315/15/5 
f 318/13/5 319/14/5 320/15/5 
f 319/14/5 321/16/5 320/15/5 
f 321/16/5 322/17/5 320/15/5 
f 322/17/5 318/13/5 320/15/5 
f 323/13/6 324/14/8 325/15/8 
f 324/14/8 326/16/8 325/15/8 
f 326/16/8 327/17/8 325/15/8 
f 327/17/8 323/13/6 325/15/8 
f 328/13/8 329/14/8 330/15/8 
f 329/14/8 331/16/8 330/15/8 
f 331/16/8 332/17/8 330/15/8 
f 332/17/8 328/13/8 330/15/8 
f 333/13/8 334/14/8 335/15/8 
f 334/14/8 336/16/8 335/15/8 
f 336/16/8 337/17/8 335/15/8 
f 337/17/8 333/13/8 335/15/8 
f 338/13/5 339/14/5 340/15/5 
f 339/14/5 341/16/5 340/15/5 
f 341/16/5 342/17/5 340/15/5 
f 342/17/5 338/13/5 340/15/5 
f 343/13/5 344/14/5 345/15/5 
f 344/14/5 346/16/5 345/15/5 
f 346/16/5 347/17/5 345/15/5 
f 347/17/5 343/13/5 345/15/5 
f 348/13/5 349/14/5 350/15/5 
f 349/14/5 351/16/5 350/15/5 
f 351/16/5 352/17/5 350/15/5 
f 352/17/5 348/13/5 350/15/5 
f 353/13/5 354/14/5 355/15/5 
f 354/14/5 356/16/5 355/15/5 
f 356/16/5 357/17/5 355/15/5 
f 357/17/5 353/13/5 355/15/5 
f 358/13/6 359/14/7 360/15/6 
f 359/14/7 361/16/6 360/15/6 
f 361/16/6 362/17/6 360/15/6 
f 362/17/6 358/13/6 360/15/6 
f 363/13/5 364/14/5 365/15/5 
f 364/14/5 366/16/5 365/15/5 
f 366/16/5 367/17/5 365/15/5 
f 367/17/5 363/13/5 365/15/5 
f 368/13/6 369/14/7 370/15/7 
f 369/14/7 371/16/7 370/15/7 
f 371/16/7 372/17/6 370/15/7 
f 372/17/6 368/13/6 370/15/7 
f 373/13/8 374/14/8 375/15/8 
f 374/14/8 376/16/8 375/15/8 
f 376/16/8 377/17/8 375/15/8 
f 377/17/8 373/13/8 375/15/8 
f 378/13/7 379/14/5 380/15/7 
f 379/14/5 381/16/7 380/15/7 
f 381/16/7 382/17/6 380/15/7 
f 382/17/6 378/13/7 380/15/7 
f 383/13/5 384/14/5 385/15/5 
f 384/14/5 386/16/5 385/15/5 
f 386/16/5 387/17/5 385/15/5 
f 387/17/5 383/13/5 385/15/5 
f 388/13/5 389/14/5 390/15/5 
f 389/14/5 391/16/5 390/15/5 
f 391/16/5 392/17/5 390/15/5 
f 392/17/5 388/13/5 390/15/5 
f 393/13/5 394/14/5 395/15/5 
f 394/14/5 396/16/5 395/15/5 
f 396/16/5 397/17/5 395/15/5 
f 397/17/5 393/13/5 395/15/5 
f 398/13/5 399/14/5 400/15/5 
f 399/14/5 401/16/5 400/15/5 
f 401/16/5 402/17/5 400/15/5 
f 402/17/5 398/13/5 400/15/5 
f 403/13/6 404/14/7 405/15/6 
f 404/14/7 406/16/7 405/15/6 
f 406/16/7 407/17/6 405/15/6 
f 407/17/6 403/13/6 405/15/6 
f 408/13/5 409/14/5 410/15/5 
f 409/14/5 411/16/5 410/15/5 
f 411/16/5 412/17/5 410/15/5 
f 412/17/5 408/13/5 410/15/5 
f 413/13/5 414/14/5 415/15/5 
f 414/14/5 416/16/5 415/15/5 
f 416/16/5 417/17/5 415/15/5 
f 417/17/5 413/13/5 415/15/5 
f 418/13/5 419/14/5 420/15/5 
f 419/14/5 421/16/5 420/15/5 
f 421/16/5 422/17/5 420/15/5 
f 422/17/5 418/13/5 420/15/5 
# 0 polygons - 328 triangles

