# 3ds Max Wavefront OBJ Exporter v0.97b - (c)2007 guruware
# File Created: 30.06.2016 15:39:34

#
# object mazeCornerShortSmall_base
#

v  0.0000 10.0000 4.0000
v  1.9977 10.0000 4.0008
v  5.0000 10.0000 1.0017
v  0.0000 10.0000 1.0000
v  0.0000 0.0000 5.0000
v  1.0000 0.0000 5.0000
v  1.0000 9.0000 5.0000
v  0.0000 9.0000 5.0000
v  6.0000 0.0000 -0.0000
v  0.0000 0.0000 -0.0000
v  0.0000 9.0000 -0.0000
v  6.0000 9.0000 -0.0000
v  5.9993 10.0000 8.0023
v  6.0000 10.0000 10.0000
v  9.0000 10.0000 10.0000
v  9.0000 10.0000 5.0030
v  5.0000 0.0000 9.0000
v  5.0000 0.0000 10.0000
v  5.0000 9.0000 10.0000
v  5.0000 9.0000 9.0000
v  10.0000 0.0000 10.0000
v  10.0000 0.0000 4.0000
v  10.0000 9.0000 4.0000
v  10.0000 9.0000 10.0000
v  3.2222 9.0000 5.4444
v  3.2222 0.0000 5.4444
v  5.5540 10.0000 5.7799
v  8.5555 10.0000 2.7807
v  9.5556 9.0000 1.7778
v  9.5556 0.0000 1.7778
v  4.5556 9.0000 6.7778
v  4.5556 0.0000 6.7778
v  4.2201 10.0000 4.4461
v  7.2222 10.0000 1.4469
v  8.2222 9.0000 0.4444
v  8.2222 0.0000 0.4444
# 36 vertices

vn -0.0001 0.9239 0.3827
vn -0.0439 0.9417 0.3336
vn 0.0242 0.9214 -0.3878
vn 0.0001 0.9239 -0.3825
vn 0.0000 0.0000 1.0000
vn -0.0985 0.0000 0.9951
vn -0.0835 -0.0018 0.9965
vn -0.0001 -0.0011 1.0000
vn 0.0985 -0.0000 -0.9951
vn 0.0000 0.0000 -1.0000
vn 0.0001 -0.0008 -1.0000
vn 0.1110 0.0002 -0.9938
vn -0.3336 0.9417 0.0439
vn -0.3827 0.9239 0.0001
vn 0.3827 0.9239 -0.0000
vn 0.3881 0.9213 -0.0241
vn -0.9951 0.0000 0.0985
vn -1.0000 0.0000 -0.0000
vn -1.0000 -0.0011 0.0001
vn -0.9965 -0.0018 0.0835
vn 1.0000 0.0000 -0.0000
vn 0.9951 0.0000 -0.0985
vn 0.9938 -0.0001 -0.1109
vn 1.0000 -0.0010 -0.0000
vn -0.4512 -0.0028 0.8924
vn -0.4719 0.0000 0.8817
vn -0.2217 0.9665 0.1292
vn 0.3339 0.9298 -0.1551
vn 0.8758 -0.0006 -0.4827
vn 0.8817 0.0000 -0.4719
vn -0.8924 -0.0028 0.4512
vn -0.8817 0.0000 0.4719
vn -0.1292 0.9665 0.2217
vn 0.1552 0.9298 -0.3336
vn 0.4827 -0.0005 -0.8758
vn 0.4719 -0.0000 -0.8817
# 36 vertex normals

vt 0.9088 0.0849 0.0000
vt 0.8862 0.1561 0.0000
vt 0.7431 0.1927 0.0000
vt 0.7969 0.0262 0.0000
vt 1.2718 0.0569 0.0000
vt 1.2666 0.1163 0.0000
vt 0.9442 0.1456 0.0000
vt 0.9502 0.1086 0.0000
vt 0.3656 0.2228 0.0000
vt 0.3839 0.0015 0.0000
vt 0.7156 0.0028 0.0000
vt 0.6881 0.2089 0.0000
vt 0.9063 0.4029 0.0000
vt 0.9401 0.4695 0.0000
vt 0.8392 0.5454 0.0000
vt 0.7591 0.3901 0.0000
vt 1.2897 0.3867 0.0000
vt 1.2959 0.4048 0.0000
vt 0.9771 0.4395 0.0000
vt 0.9653 0.4039 0.0000
vt 0.4337 0.6256 0.0000
vt 0.3790 0.4130 0.0000
vt 0.7020 0.3829 0.0000
vt 0.7628 0.5811 0.0000
vt 0.9389 0.2353 0.0000
vt 1.2635 0.2149 0.0000
vt 0.8783 0.3192 0.0000
vt 0.7298 0.3231 0.0000
vt 0.6788 0.3220 0.0000
vt 0.3607 0.3587 0.0000
vt 0.9455 0.3163 0.0000
vt 1.2717 0.2998 0.0000
vt 0.8721 0.2433 0.0000
vt 0.7249 0.2637 0.0000
vt 0.6748 0.2732 0.0000
vt 0.3530 0.3162 0.0000
# 36 texture coords

g mazeCornerShortSmall_base
s 1
f 1/1/1 2/2/2 3/3/3 4/4/4 
f 5/5/5 6/6/6 7/7/7 8/8/8 
f 9/9/9 10/10/10 11/11/11 12/12/12 
f 1/1/1 8/8/8 7/7/7 2/2/2 
f 3/3/3 12/12/12 11/11/11 4/4/4 
f 13/13/13 14/14/14 15/15/15 16/16/16 
f 17/17/17 18/18/18 19/19/19 20/20/20 
f 21/21/21 22/22/22 23/23/23 24/24/24 
f 13/13/13 20/20/20 19/19/19 14/14/14 
f 15/15/15 24/24/24 23/23/23 16/16/16 
f 25/25/25 7/7/7 6/6/6 26/26/26 
f 27/27/27 13/13/13 16/16/16 28/28/28 
f 29/29/29 23/23/23 22/22/22 30/30/30 
f 31/31/31 20/20/20 13/13/13 27/27/27 
f 28/28/28 16/16/16 23/23/23 29/29/29 
f 31/31/31 25/25/25 26/26/26 32/32/32 
f 20/20/20 31/31/31 32/32/32 17/17/17 
f 33/33/33 27/27/27 28/28/28 34/34/34 
f 2/2/2 33/33/33 34/34/34 3/3/3 
f 35/35/35 29/29/29 30/30/30 36/36/36 
f 12/12/12 35/35/35 36/36/36 9/9/9 
f 25/25/25 31/31/31 27/27/27 33/33/33 
f 7/7/7 25/25/25 33/33/33 2/2/2 
f 34/34/34 28/28/28 29/29/29 35/35/35 
f 3/3/3 34/34/34 35/35/35 12/12/12 
# 25 polygons

#
# object mazeCornerShortSmall_leafs
#

v  5.3775 11.0334 -0.1918
v  7.8384 9.5777 0.3588
v  5.5390 8.7733 0.0790
v  6.2233 6.7832 -0.7915
v  3.5412 8.1972 -1.4279
v  9.7872 11.8351 5.2777
v  10.0602 10.6105 7.9052
v  9.6305 9.6004 5.7126
v  10.7146 7.6749 6.2636
v  10.4555 8.8375 3.4037
v  5.2611 11.1321 10.2928
v  4.8072 9.9624 7.6653
v  5.0802 8.8993 9.8579
v  3.7190 7.1586 9.3068
v  4.1499 8.2690 12.1668
v  4.3744 11.0788 3.1551
v  1.5060 10.6094 2.9818
v  3.1819 9.6897 4.5174
v  1.6802 9.4998 6.2190
v  4.7279 9.9461 6.5515
v  10.8865 7.2086 9.0441
v  10.7133 5.9659 11.6716
v  9.9571 5.1704 9.4790
v  10.2982 2.9871 10.0300
v  10.4626 4.1669 7.1701
v  5.9360 4.6923 -0.5302
v  8.7820 4.3561 -0.0149
v  6.9273 2.7642 0.1818
v  8.2525 0.9861 -0.3368
v  5.2122 1.1873 -0.8977
v  0.7121 6.6226 5.6592
v  -1.9756 5.5026 5.6592
v  0.1691 4.5004 5.0200
v  -0.4883 2.4157 5.6592
v  2.4282 3.4605 5.6592
v  3.8908 6.0831 8.5346
v  3.5621 4.7671 5.9581
v  4.7367 4.0368 7.9829
v  4.3151 1.8376 7.5678
v  4.6981 3.0972 10.3723
v  -0.9984 9.6728 -0.6592
v  1.8561 9.0982 -0.6592
v  -0.0521 7.6971 -0.0200
v  0.9992 5.7806 -0.6592
v  -2.0651 6.2368 -0.6592
v  10.3501 5.6492 1.9295
v  10.6248 5.8178 4.8234
v  9.8108 3.9923 3.4031
v  10.5538 2.3922 4.8433
v  10.2594 2.0558 1.7776
v  8.5535 11.1666 1.3983
v  10.7100 9.7244 2.7203
v  8.8602 8.9063 1.3341
v  10.0849 7.1606 0.5346
v  7.7710 8.5710 -0.9669
v  11.3720 9.6502 10.1739
v  10.2192 10.1455 7.5463
v  9.1470 9.9106 9.7390
v  7.4559 11.3329 9.1879
v  8.5503 10.8626 12.0479
v  2.8730 2.6616 6.5495
v  1.5220 0.4947 5.1504
v  3.7661 0.6034 6.1327
v  3.7754 -1.6183 6.6329
v  5.3108 0.5807 8.1837
v  6.4170 10.4394 7.0498
v  8.4494 10.6920 4.9800
v  6.1262 9.9189 4.8470
v  5.8786 10.6796 2.7148
v  3.6065 10.4115 4.8038
v  3.2478 8.9114 6.8447
v  1.6514 7.3373 4.9867
v  3.7835 6.8273 6.0852
v  3.3440 4.5936 6.1475
v  5.1136 6.1353 8.1698
v  9.3299 7.8893 0.5513
v  11.1515 6.5824 2.4093
v  9.1246 5.7472 1.3107
v  9.9059 3.6089 1.2485
v  7.9182 4.8569 -0.7738
v  2.2280 2.7224 5.6592
v  -0.6625 3.0738 5.6592
v  0.7088 1.1441 5.0200
v  -0.8914 -0.3450 5.6592
v  2.1611 -0.8747 5.6592
v  3.3453 6.6725 -0.6592
v  6.2446 6.4040 -0.6592
v  4.4959 4.8084 -0.0200
v  5.7445 3.0142 -0.6592
v  2.6491 3.1427 -0.6592
v  10.6852 3.9080 5.2175
v  10.4044 3.7683 8.1123
v  9.8358 2.1341 6.3748
v  10.2524 0.3647 7.7468
v  10.5429 0.3561 4.6624
v  10.1752 2.7027 2.2288
v  10.9062 0.5829 4.0862
v  9.4185 0.5518 2.1372
v  9.8903 -1.6273 1.6730
v  9.0689 0.5173 -0.4064
v  1.0114 4.6706 -0.6592
v  3.2692 2.8320 -0.6592
v  0.9279 2.4816 -0.0200
v  0.9650 0.2960 -0.6592
v  -1.5337 2.1276 -0.6592
v  3.5214 11.1207 2.8683
v  2.2910 10.8748 0.2407
v  1.5413 10.0731 2.4334
v  -0.6583 10.2854 1.8823
v  0.5098 10.5188 4.7423
v  7.9911 10.7091 7.5944
v  6.3295 10.8176 5.2058
v  5.8931 9.8311 7.4079
v  3.6552 10.2288 7.2654
v  5.2929 10.0867 9.8914
v  10.2762 9.5420 3.0862
v  10.7777 8.1686 5.6042
v  9.8072 7.3487 3.5069
v  10.6152 5.2437 3.8268
v  10.0763 6.5645 1.0767
v  6.8520 10.5371 1.3395
v  4.8246 10.0421 -0.6910
v  4.7102 9.8664 1.7520
v  2.5029 10.4249 1.7996
v  4.5444 10.9671 4.0660
v  -0.7825 8.7261 5.5915
v  -1.0827 5.8321 5.7062
v  0.8255 7.2109 5.0203
v  2.3396 5.6645 5.7294
v  2.8152 8.7235 5.6089
v  2.0461 5.8170 6.1035
v  0.2879 3.5539 5.5882
v  2.7235 3.7575 5.3915
v  3.0598 1.5656 5.9101
v  5.0505 3.8722 6.4710
v  9.4356 11.1684 7.4487
v  10.0982 9.9134 9.9912
v  9.8504 8.9450 7.7521
v  11.3950 7.3224 8.1621
v  10.7526 8.5330 5.3836
v  11.2713 4.1969 9.3812
v  10.9420 2.9862 12.0087
v  10.0910 2.2929 9.8160
v  10.1525 0.0840 10.3671
v  10.4651 1.2334 7.5072
v  4.1866 8.2092 9.5744
v  4.2140 6.4419 7.2605
v  4.9135 6.0461 9.5772
v  4.3607 3.8388 9.4837
v  4.3384 5.5917 12.0381
v  10.6664 6.4409 5.3768
v  10.4492 6.2992 8.2770
v  9.9239 4.6336 6.5557
v  10.4496 2.8909 7.9244
v  10.6798 2.8842 4.8348
v  8.9413 9.6732 1.0363
v  6.1409 10.4577 0.8923
v  7.5364 9.8766 2.8230
v  6.3913 11.2726 4.2110
v  9.3703 10.4788 4.5164
v  4.6432 4.7103 10.3807
v  4.4890 3.4651 7.7532
v  5.0137 2.5010 9.9458
v  4.1195 0.4802 9.3948
v  4.2658 1.6624 12.2547
v  2.7711 11.5035 0.7260
v  5.2637 10.1499 0.0681
v  2.9954 9.2634 0.3534
v  3.3366 7.5976 -1.1617
v  0.6065 8.9145 -0.5211
v  10.7197 10.4164 7.3781
v  9.4711 10.5406 4.7505
v  8.5199 9.9929 6.9432
v  6.4783 10.8382 6.3921
v  7.6636 10.7204 9.2521
v  6.0854 11.3602 1.9246
v  8.9054 10.6481 2.0624
v  7.0361 9.5437 0.9227
v  8.3732 8.7555 -0.7440
v  5.3604 9.4230 -1.0191
v  6.9674 8.7160 -0.4784
v  9.5448 7.4630 0.0369
v  7.2700 6.5691 0.2336
v  7.9371 4.4543 -0.2850
v  5.1319 5.6436 -0.8459
v  -0.9778 7.0961 -0.6592
v  1.8704 6.4908 -0.6592
v  -0.0528 5.1104 -0.0200
v  0.9778 3.1827 -0.6592
v  -2.0815 3.6718 -0.6592
v  7.9154 11.7060 3.4353
v  9.3150 10.8049 5.8243
v  9.0802 9.7526 3.6219
v  11.1159 8.7417 3.7650
v  9.7157 9.6017 1.1386
v  -0.1894 11.7730 2.0760
v  2.5023 11.1042 1.1896
v  0.4059 9.8452 1.0099
v  1.0413 8.8501 -0.9376
v  -1.8783 9.4551 -0.0963
v  10.4415 5.2495 0.6742
v  11.5576 3.3052 2.5322
v  9.3668 3.3852 1.4337
v  9.1916 1.1154 1.3714
v  7.8999 3.0750 -0.6509
v  10.6860 2.7060 3.2116
v  11.0602 1.4686 5.8206
v  10.0464 0.5876 3.7691
v  10.6875 -1.5470 4.2370
v  10.2738 -0.3746 1.3993
v  4.8213 10.3630 8.5254
v  3.8283 9.8118 5.8442
v  4.8725 8.3281 7.4937
v  3.6976 6.5158 6.7714
v  4.7438 6.9481 9.6553
v  10.6930 9.9507 8.9825
v  10.6754 8.6961 11.6100
v  10.0238 7.8128 9.4173
v  10.6333 5.6888 9.9684
v  10.6500 6.8799 7.1084
v  2.1401 7.6439 -0.6592
v  4.6707 6.2036 -0.6592
v  2.4196 5.4712 -0.0200
v  2.8172 3.3218 -0.6592
v  0.0502 4.7153 -0.6592
v  4.5026 2.9964 9.0145
v  4.0260 2.1622 6.2658
v  4.9798 0.9341 8.1618
v  4.1789 -1.0624 7.4142
v  4.6910 -0.3269 10.3798
v  3.0653 4.1711 -0.6591
v  5.7209 2.9768 -0.6592
v  3.5492 2.0345 -0.0200
v  4.1486 -0.0676 -0.6592
v  1.2621 1.0578 -0.6592
v  0.4774 11.6005 3.2595
v  -1.8449 10.0846 4.1467
v  0.5489 9.5842 4.3258
v  0.2762 8.4358 6.2734
v  2.8348 9.9663 5.4312
v  2.7975 11.2707 5.1564
v  1.3412 8.7504 5.0810
v  3.6450 9.2406 5.7630
v  3.6686 7.5536 7.2926
v  5.3189 10.1692 7.4744
v  2.1192 8.8674 -0.6592
v  5.0235 9.0763 -0.6592
v  3.5590 7.2163 -0.0200
v  5.0840 5.6503 -0.6592
v  2.0092 5.2713 -0.6592
v  10.4328 9.0529 5.3034
v  10.5487 7.8035 7.9310
v  9.9947 6.8560 5.7383
v  10.8265 4.8088 6.2894
v  10.7165 5.9948 3.4294
v  9.2075 10.8405 9.5480
v  7.9564 10.7455 6.9205
v  7.1150 10.0406 9.1131
v  4.9574 10.5178 8.5621
v  6.1452 10.6080 11.4220
v  4.4532 4.9512 7.6894
v  2.9280 4.4089 5.2691
v  4.4121 2.9595 6.5765
v  3.2323 1.0854 6.0450
v  4.8626 1.5070 8.6455
# 265 vertices

vn 0.0240 0.9215 -0.3876
vn 0.4826 -0.0006 -0.8759
vn 0.1110 0.0002 -0.9938
vn 0.3882 0.9213 -0.0244
vn 0.3826 0.9239 -0.0000
vn 0.9939 0.0000 -0.1106
vn -0.3826 0.9239 -0.0000
vn -0.3334 0.9417 0.0443
vn -1.0000 -0.0011 -0.0000
vn -0.9965 -0.0019 0.0832
vn -0.1293 0.9664 0.2220
vn -0.0439 0.9418 0.3334
vn -0.0836 -0.0019 0.9965
vn -0.8925 -0.0029 0.4510
vn 1.0000 -0.0010 -0.0000
vn 0.4827 -0.0005 -0.8758
vn 0.0000 -0.0010 1.0000
vn -0.4512 -0.0028 0.8924
vn -0.9965 -0.0018 0.0832
vn -0.8925 -0.0028 0.4510
vn -1.0000 -0.0010 -0.0000
vn 0.0000 -0.0008 -1.0000
vn 0.8757 -0.0006 -0.4829
vn 0.9939 -0.0001 -0.1106
vn 0.1553 0.9299 -0.3334
vn -0.0836 -0.0018 0.9965
vn -0.8818 0.0000 0.4716
vn -0.2217 0.9666 0.1290
vn -0.4512 -0.0029 0.8924
vn 0.4827 -0.0006 -0.8758
vn 0.4826 -0.0005 -0.8759
vn -0.4718 0.0000 0.8817
vn 0.8818 0.0000 -0.4715
vn 0.0000 0.9240 -0.3823
vn 0.0000 0.9238 0.3829
vn 0.0000 -0.0011 1.0000
vn 0.3338 0.9298 -0.1549
vn 0.3340 0.9298 -0.1549
vn 0.9951 0.0000 -0.0984
vn 0.3880 0.9213 -0.0244
# 40 vertex normals

vt -0.1068 0.5381 0.0000
vt 0.2069 -0.1188 0.0000
vt 0.4300 0.4294 0.0000
vt 0.9588 0.2916 0.0000
vt 0.6610 1.0066 0.0000
# 5 texture coords

g mazeCornerShortSmall_leafs
s 1
f 37/37/37 38/38/38 39/39/39 
f 38/38/38 40/40/39 39/39/39 
f 40/40/39 41/41/39 39/39/39 
f 41/41/39 37/37/37 39/39/39 
f 42/37/40 43/38/41 44/39/40 
f 43/38/41 45/40/42 44/39/40 
f 45/40/42 46/41/42 44/39/40 
f 46/41/42 42/37/40 44/39/40 
f 47/37/43 48/38/44 49/39/45 
f 48/38/44 50/40/46 49/39/45 
f 50/40/46 51/41/45 49/39/45 
f 51/41/45 47/37/43 49/39/45 
f 52/37/47 53/38/48 54/39/47 
f 53/38/48 55/40/49 54/39/47 
f 55/40/49 56/41/50 54/39/47 
f 56/41/50 52/37/47 54/39/47 
f 57/37/51 58/38/51 59/39/51 
f 58/38/51 60/40/51 59/39/51 
f 60/40/51 61/41/51 59/39/51 
f 61/41/51 57/37/51 59/39/51 
f 62/37/39 63/38/52 64/39/39 
f 63/38/52 65/40/52 64/39/39 
f 65/40/52 66/41/39 64/39/39 
f 66/41/39 62/37/39 64/39/39 
f 67/37/49 68/38/53 69/39/53 
f 68/38/53 70/40/53 69/39/53 
f 70/40/53 71/41/54 69/39/53 
f 71/41/54 67/37/49 69/39/53 
f 72/37/46 73/38/54 74/39/55 
f 73/38/54 75/40/56 74/39/55 
f 75/40/56 76/41/57 74/39/55 
f 76/41/57 72/37/46 74/39/55 
f 77/37/58 78/38/58 79/39/58 
f 78/38/58 80/40/58 79/39/58 
f 80/40/58 81/41/58 79/39/58 
f 81/41/58 77/37/58 79/39/58 
f 82/37/59 83/38/60 84/39/60 
f 83/38/60 85/40/60 84/39/60 
f 85/40/60 86/41/59 84/39/60 
f 86/41/59 82/37/59 84/39/60 
f 87/37/61 88/38/42 89/39/59 
f 88/38/42 90/40/59 89/39/59 
f 90/40/59 91/41/38 89/39/59 
f 91/41/38 87/37/61 89/39/59 
f 92/37/51 93/38/51 94/39/41 
f 93/38/51 95/40/43 94/39/41 
f 95/40/43 96/41/41 94/39/41 
f 96/41/41 92/37/51 94/39/41 
f 97/37/54 98/38/62 99/39/54 
f 98/38/62 100/40/63 99/39/54 
f 100/40/63 101/41/55 99/39/54 
f 101/41/55 97/37/54 99/39/54 
f 102/37/44 103/38/40 104/39/64 
f 103/38/40 105/40/61 104/39/64 
f 105/40/61 106/41/47 104/39/64 
f 106/41/47 102/37/44 104/39/64 
f 107/37/50 108/38/49 109/39/65 
f 108/38/49 110/40/54 109/39/65 
f 110/40/54 111/41/46 109/39/65 
f 111/41/46 107/37/50 109/39/65 
f 112/37/66 113/38/59 114/39/59 
f 113/38/59 115/40/59 114/39/59 
f 115/40/59 116/41/67 114/39/59 
f 116/41/67 112/37/66 114/39/59 
f 117/37/54 118/38/53 119/39/62 
f 118/38/53 120/40/53 119/39/62 
f 120/40/53 121/41/68 119/39/62 
f 121/41/68 117/37/54 119/39/62 
f 122/37/39 123/38/39 124/39/39 
f 123/38/39 125/40/39 124/39/39 
f 125/40/39 126/41/58 124/39/39 
f 126/41/58 122/37/39 124/39/39 
f 127/37/60 128/38/51 129/39/60 
f 128/38/51 130/40/51 129/39/60 
f 130/40/51 131/41/60 129/39/60 
f 131/41/60 127/37/60 129/39/60 
f 132/37/59 133/38/60 134/39/59 
f 133/38/60 135/40/69 134/39/59 
f 135/40/69 136/41/52 134/39/59 
f 136/41/52 132/37/59 134/39/59 
f 137/37/58 138/38/39 139/39/58 
f 138/38/39 140/40/58 139/39/58 
f 140/40/58 141/41/58 139/39/58 
f 141/41/58 137/37/58 139/39/58 
f 142/37/47 143/38/70 144/39/48 
f 143/38/70 145/40/70 144/39/48 
f 145/40/70 146/41/71 144/39/48 
f 146/41/71 142/37/47 144/39/48 
f 147/37/44 148/38/64 149/39/44 
f 148/38/64 150/40/50 149/39/44 
f 150/40/50 151/41/43 149/39/44 
f 151/41/43 147/37/44 149/39/44 
f 152/37/42 153/38/42 154/39/42 
f 153/38/42 155/40/60 154/39/42 
f 155/40/60 156/41/59 154/39/42 
f 156/41/59 152/37/42 154/39/42 
f 157/37/61 158/38/37 159/39/37 
f 158/38/37 160/40/48 159/39/37 
f 160/40/48 161/41/47 159/39/37 
f 161/41/47 157/37/61 159/39/37 
f 162/37/72 163/38/53 164/39/49 
f 163/38/53 165/40/54 164/39/49 
f 165/40/54 166/41/65 164/39/49 
f 166/41/65 162/37/72 164/39/49 
f 167/37/54 168/38/53 169/39/54 
f 168/38/53 170/40/54 169/39/54 
f 170/40/54 171/41/56 169/39/54 
f 171/41/56 167/37/54 169/39/54 
f 172/37/40 173/38/51 174/39/51 
f 173/38/51 175/40/51 174/39/51 
f 175/40/51 176/41/42 174/39/51 
f 176/41/42 172/37/40 174/39/51 
f 177/37/51 178/38/51 179/39/51 
f 178/38/51 180/40/51 179/39/51 
f 180/40/51 181/41/51 179/39/51 
f 181/41/51 177/37/51 179/39/51 
f 182/37/45 183/38/50 184/39/45 
f 183/38/50 185/40/55 184/39/45 
f 185/40/55 186/41/57 184/39/45 
f 186/41/57 182/37/45 184/39/45 
f 187/37/42 188/38/51 189/39/60 
f 188/38/51 190/40/51 189/39/60 
f 190/40/51 191/41/60 189/39/60 
f 191/41/60 187/37/42 189/39/60 
f 192/37/66 193/38/37 194/39/73 
f 193/38/37 195/40/64 194/39/73 
f 195/40/64 196/41/40 194/39/73 
f 196/41/40 192/37/66 194/39/73 
f 197/37/57 198/38/56 199/39/57 
f 198/38/56 200/40/55 199/39/57 
f 200/40/55 201/41/57 199/39/57 
f 201/41/57 197/37/57 199/39/57 
f 202/37/37 203/38/37 204/39/37 
f 203/38/37 205/40/39 204/39/37 
f 205/40/39 206/41/58 204/39/37 
f 206/41/58 202/37/37 204/39/37 
f 207/37/40 208/38/40 209/39/40 
f 208/38/40 210/40/64 209/39/40 
f 210/40/64 211/41/41 209/39/40 
f 211/41/41 207/37/40 209/39/40 
f 212/37/61 213/38/74 214/39/61 
f 213/38/74 215/40/66 214/39/61 
f 215/40/66 216/41/39 214/39/61 
f 216/41/39 212/37/61 214/39/61 
f 217/37/39 218/38/66 219/39/38 
f 218/38/66 220/40/67 219/39/38 
f 220/40/67 221/41/39 219/39/38 
f 221/41/39 217/37/39 219/39/38 
f 222/37/58 223/38/58 224/39/58 
f 223/38/58 225/40/58 224/39/58 
f 225/40/58 226/41/58 224/39/58 
f 226/41/58 222/37/58 224/39/58 
f 227/37/73 228/38/40 229/39/74 
f 228/38/40 230/40/42 229/39/74 
f 230/40/42 231/41/59 229/39/74 
f 231/41/59 227/37/73 229/39/74 
f 232/37/70 233/38/37 234/39/70 
f 233/38/37 235/40/58 234/39/70 
f 235/40/58 236/41/58 234/39/70 
f 236/41/58 232/37/70 234/39/70 
f 237/37/59 238/38/59 239/39/59 
f 238/38/59 240/40/59 239/39/59 
f 240/40/59 241/41/67 239/39/59 
f 241/41/67 237/37/59 239/39/59 
f 242/37/60 243/38/60 244/39/60 
f 243/38/60 245/40/75 244/39/60 
f 245/40/75 246/41/59 244/39/60 
f 246/41/59 242/37/60 244/39/60 
f 247/37/44 248/38/65 249/39/50 
f 248/38/65 250/40/50 249/39/50 
f 250/40/50 251/41/45 249/39/50 
f 251/41/45 247/37/44 249/39/50 
f 252/37/51 253/38/51 254/39/51 
f 253/38/51 255/40/51 254/39/51 
f 255/40/51 256/41/51 254/39/51 
f 256/41/51 252/37/51 254/39/51 
f 257/37/58 258/38/39 259/39/58 
f 258/38/39 260/40/58 259/39/58 
f 260/40/58 261/41/58 259/39/58 
f 261/41/58 257/37/58 259/39/58 
f 262/37/55 263/38/56 264/39/55 
f 263/38/56 265/40/63 264/39/55 
f 265/40/63 266/41/57 264/39/55 
f 266/41/57 262/37/55 264/39/55 
f 267/37/39 268/38/39 269/39/39 
f 268/38/39 270/40/39 269/39/39 
f 270/40/39 271/41/58 269/39/39 
f 271/41/58 267/37/39 269/39/39 
f 272/37/71 273/38/71 274/39/71 
f 273/38/71 275/40/72 274/39/71 
f 275/40/72 276/41/65 274/39/71 
f 276/41/65 272/37/71 274/39/71 
f 277/37/48 278/38/49 279/39/65 
f 278/38/49 280/40/50 279/39/65 
f 280/40/50 281/41/44 279/39/65 
f 281/41/44 277/37/48 279/39/65 
f 282/37/58 283/38/39 284/39/39 
f 283/38/39 285/40/39 284/39/39 
f 285/40/39 286/41/58 284/39/39 
f 286/41/58 282/37/58 284/39/39 
f 287/37/42 288/38/51 289/39/42 
f 288/38/51 290/40/60 289/39/42 
f 290/40/60 291/41/60 289/39/42 
f 291/41/60 287/37/42 289/39/42 
f 292/37/41 293/38/76 294/39/43 
f 293/38/76 295/40/44 294/39/43 
f 295/40/44 296/41/43 294/39/43 
f 296/41/43 292/37/41 294/39/43 
f 297/37/56 298/38/54 299/39/56 
f 298/38/54 300/40/54 299/39/56 
f 300/40/54 301/41/55 299/39/56 
f 301/41/55 297/37/56 299/39/56 
# 0 polygons - 212 triangles

