# 3ds Max Wavefront OBJ Exporter v0.97b - (c)2007 guruware
# File Created: 22.06.2016 10:47:14

#
# object mazeCapCrossSectionSmall_leafs
#

v  6.8565 10.1059 2.3018
v  5.6331 10.3842 -0.3257
v  4.6212 9.9589 1.8670
v  2.7004 11.0514 1.3159
v  3.8618 10.7872 4.1758
v  1.0595 12.0116 4.5410
v  -1.1873 10.7392 3.1953
v  0.4765 9.8144 4.7410
v  -0.9909 8.2904 5.5839
v  1.3990 9.5261 7.1199
v  1.5517 11.2377 1.2586
v  2.1381 9.6512 -1.1115
v  0.2448 9.5538 0.4436
v  -1.1950 8.8596 -1.1786
v  -1.9698 10.5043 1.3300
v  6.3991 10.7370 5.4880
v  5.1451 10.6964 2.8605
v  4.2738 10.0288 5.0532
v  2.1390 10.5993 4.5021
v  3.3296 10.6378 7.3620
v  4.3979 10.1970 3.8552
v  3.1651 10.4306 1.2277
v  2.1693 9.9688 3.4203
v  0.2101 10.9907 2.8693
v  1.3804 10.7689 5.7292
v  2.6310 9.7389 2.9058
v  1.4613 10.1928 0.2783
v  0.3981 9.9198 2.4709
v  -1.3426 11.2810 1.9199
v  -0.2321 10.8501 4.7798
v  5.2621 9.8158 0.6755
v  4.0789 10.2335 -1.9520
v  3.0247 9.9279 0.2406
v  1.2429 11.2349 -0.3104
v  2.3661 10.8383 2.5495
v  5.0844 11.6551 0.2210
v  6.7289 9.6644 1.5667
v  4.8446 9.3946 0.0209
v  5.6712 7.4471 -0.8220
v  3.8799 9.4546 -2.3580
v  6.1702 11.5935 3.8367
v  5.0258 11.0791 1.2091
v  4.4740 10.1302 3.4018
v  2.2826 9.8458 2.8507
v  3.3690 10.3343 5.7107
v  3.3362 11.1505 1.6783
v  2.1093 10.8882 -0.9493
v  1.3703 10.0766 1.2434
v  -0.8319 10.2595 0.6923
v  0.3329 10.5085 3.5523
# 50 vertices

vn 0.1968 0.9606 -0.1961
vn 0.1968 0.9606 0.1961
vn -0.1968 0.9606 0.1961
vn -0.7067 -0.0006 0.7075
vn -0.1968 0.9606 -0.1961
vn -0.7067 0.0002 -0.7075
vn 0.7067 0.0002 -0.7075
# 7 vertex normals

vt -0.1068 0.5381 0.0000
vt 0.2069 -0.1188 0.0000
vt 0.4300 0.4294 0.0000
vt 0.9588 0.2916 0.0000
vt 0.6610 1.0066 0.0000
# 5 texture coords

g mazeCapCrossSectionSmall_leafs
s 1
f 1/1/1 2/2/1 3/3/1 
f 2/2/1 4/4/1 3/3/1 
f 4/4/1 5/5/2 3/3/1 
f 5/5/2 1/1/1 3/3/1 
f 6/1/3 7/2/3 8/3/3 
f 7/2/3 9/4/4 8/3/3 
f 9/4/4 10/5/3 8/3/3 
f 10/5/3 6/1/3 8/3/3 
f 11/1/5 12/2/5 13/3/6 
f 12/2/5 14/4/6 13/3/6 
f 14/4/6 15/5/5 13/3/6 
f 15/5/5 11/1/5 13/3/6 
f 16/1/2 17/2/2 18/3/2 
f 17/2/2 19/4/3 18/3/2 
f 19/4/3 20/5/2 18/3/2 
f 20/5/2 16/1/2 18/3/2 
f 21/1/2 22/2/1 23/3/3 
f 22/2/1 24/4/3 23/3/3 
f 24/4/3 25/5/3 23/3/3 
f 25/5/3 21/1/2 23/3/3 
f 26/1/2 27/2/5 28/3/5 
f 27/2/5 29/4/5 28/3/5 
f 29/4/5 30/5/3 28/3/5 
f 30/5/3 26/1/2 28/3/5 
f 31/1/1 32/2/1 33/3/1 
f 32/2/1 34/4/5 33/3/1 
f 34/4/5 35/5/3 33/3/1 
f 35/5/3 31/1/1 33/3/1 
f 36/1/1 37/2/1 38/3/7 
f 37/2/1 39/4/7 38/3/7 
f 39/4/7 40/5/1 38/3/7 
f 40/5/1 36/1/1 38/3/7 
f 41/1/2 42/2/1 43/3/2 
f 42/2/1 44/4/3 43/3/2 
f 44/4/3 45/5/2 43/3/2 
f 45/5/2 41/1/2 43/3/2 
f 46/1/1 47/2/5 48/3/5 
f 47/2/5 49/4/5 48/3/5 
f 49/4/5 50/5/3 48/3/5 
f 50/5/3 46/1/1 48/3/5 
# 0 polygons - 40 triangles

#
# object mazeCapCrossSectionSmall_base
#

v  0.0000 10.0000 1.0000
v  1.0000 10.0000 -0.0000
v  0.0000 9.0000 -0.0000
v  4.0000 10.0000 -0.0000
v  5.0000 10.0000 1.0000
v  5.0000 9.0000 -0.0000
v  4.0000 10.0000 5.0000
v  5.0000 10.0000 4.0000
v  5.0000 9.0000 5.0000
v  1.0000 10.0000 5.0000
v  0.0000 10.0000 4.0000
v  0.0000 9.0000 5.0000
# 12 vertices

vn -0.1962 0.9607 -0.1962
vn -0.7071 0.0002 -0.7071
vn 0.1962 0.9607 -0.1962
vn 0.7071 0.0002 -0.7071
vn 0.1962 0.9607 0.1962
vn 0.7071 -0.0006 0.7071
vn -0.1962 0.9607 0.1962
vn -0.7071 -0.0006 0.7071
# 8 vertex normals

vt 0.9449 0.2165 0.0000
vt 0.9852 0.1762 0.0000
vt 1.0000 0.2313 0.0000
vt 0.9852 0.0551 0.0000
vt 0.9449 0.0148 0.0000
vt 1.0000 0.0000 0.0000
vt 0.7835 0.0551 0.0000
vt 0.8238 0.0148 0.0000
vt 0.7687 0.0000 0.0000
vt 0.7835 0.1762 0.0000
vt 0.8238 0.2165 0.0000
vt 0.7687 0.2313 0.0000
# 12 texture coords

g mazeCapCrossSectionSmall_base
s 1
f 51/6/8 52/7/8 53/8/9 
f 54/9/10 55/10/10 56/11/11 
f 52/7/8 51/6/8 57/12/12 58/13/12 
f 58/13/12 57/12/12 59/14/13 
f 60/15/14 61/16/14 62/17/15 
f 61/16/14 60/15/14 57/12/12 51/6/8 
f 55/10/10 54/9/10 52/7/8 58/13/12 
# 3 polygons - 4 triangles

