# 3ds Max Wavefront OBJ Exporter v0.97b - (c)2007 guruware
# File Created: 30.06.2016 11:50:51

#
# object mazeCornerShortRoundShort_leafs
#

v  7.9531 9.2253 2.2539
v  9.0982 7.6781 4.4387
v  7.1942 7.1960 2.9706
v  7.5418 4.9477 3.0737
v  6.2567 6.4616 0.6957
v  2.7290 8.2516 6.7272
v  0.6913 6.7700 5.2674
v  2.9526 6.1162 5.9541
v  2.3705 3.9259 6.1794
v  4.6072 5.3649 7.7683
v  8.2725 2.7406 2.9278
v  9.5418 0.8245 4.7154
v  7.4925 0.6446 3.3811
v  7.7474 -1.5996 3.0892
v  6.3197 0.3193 1.1201
v  3.2355 10.3756 3.1431
v  1.9846 10.4729 0.5155
v  1.0454 9.9049 2.7082
v  -1.0140 10.7062 2.1571
v  0.1736 10.6138 5.0171
v  9.6525 4.0812 8.8942
v  10.5002 3.0383 11.4772
v  9.7983 1.8700 9.4389
v  11.1489 0.0861 9.8634
v  10.2805 1.0554 7.0519
v  0.1771 6.4104 -0.4829
v  3.0236 6.0743 0.0297
v  1.1692 4.4825 0.2288
v  2.4938 2.7043 -0.2905
v  -0.5470 2.9053 -0.8484
v  6.4235 11.7968 9.4133
v  5.2376 10.7159 6.9835
v  5.6396 9.6682 9.1637
v  3.8261 8.3048 8.9671
v  5.0178 9.3392 11.6332
v  9.5012 9.6313 7.1642
v  10.2748 8.5323 9.7473
v  9.4938 7.4153 7.7089
v  10.7180 5.5424 8.1335
v  9.9186 6.5693 5.3220
v  1.5966 3.5052 5.7645
v  -1.2648 3.6723 5.2519
v  0.2825 1.7805 5.0528
v  -1.3328 0.2615 5.5722
v  1.6963 -0.0726 6.1301
v  2.7341 10.3526 0.0052
v  5.4826 9.5395 0.5178
v  3.3854 8.2846 0.7169
v  4.3899 6.3078 0.1975
v  1.4271 7.0206 -0.3604
v  7.9417 10.7728 4.6417
v  6.5869 10.4943 2.0794
v  5.7880 10.0735 4.3592
v  3.6450 10.6342 3.8303
v  4.9451 10.9358 6.6262
v  4.8939 6.7263 10.8550
v  4.2536 5.8849 8.1421
v  5.1616 4.6146 10.0327
v  4.1661 2.6815 9.3552
v  4.8406 3.4258 12.2859
v  6.5855 6.0916 1.6458
v  8.2080 4.4428 3.4142
v  6.0537 3.9828 2.3370
v  6.4813 1.7512 2.1836
v  4.6824 3.3745 0.2530
v  0.3045 10.3172 5.8299
v  -1.9719 8.5756 5.3172
v  0.4353 8.1530 5.1182
v  0.2036 5.9478 5.6376
v  2.7160 7.6724 6.1956
v  9.8499 5.7326 5.2521
v  10.7779 4.0647 7.4510
v  9.0726 3.6433 5.7401
v  9.4715 1.4011 5.7364
v  8.4281 3.0460 3.3273
v  7.1224 11.7739 9.5369
v  8.6205 11.1664 11.9587
v  8.6070 10.0569 9.7721
v  10.7853 9.4192 9.9584
v  9.2976 9.9825 7.3000
v  6.8601 11.3959 5.9791
v  9.1187 10.3092 7.4610
v  7.9874 9.4842 5.4481
v  9.8943 8.5500 4.6248
v  7.5365 9.6206 2.9239
v  0.2239 7.0131 5.8291
v  -1.9971 5.2014 5.3165
v  0.4220 4.8540 5.1174
v  0.2592 2.6426 5.6367
v  2.7167 4.4447 6.1947
v  4.2090 10.4121 6.9518
v  1.6909 10.3302 5.4921
v  3.1952 8.5195 6.1787
v  1.4839 7.0338 6.4040
v  4.1427 6.9689 7.9929
v  2.7285 7.2504 -0.1565
v  5.3500 6.9948 1.0847
v  3.5566 5.3481 0.7938
v  5.0236 3.6127 0.6430
v  2.2306 3.7278 -0.6927
v  4.3169 4.7822 0.0812
v  6.0552 2.5032 0.5938
v  3.6216 2.7285 0.7929
v  3.2653 0.5400 0.2735
v  1.2948 2.8646 -0.2844
v  0.6901 9.4095 -0.6506
v  2.8989 7.5828 -0.1380
v  0.4774 7.2518 0.0612
v  0.6253 5.0394 -0.4582
v  -1.8199 6.8581 -1.0162
v  10.1889 7.2028 9.1042
v  10.4611 6.0904 11.7813
v  9.7660 5.0354 9.6797
v  10.6186 3.0121 10.2846
v  10.3375 4.0492 7.3788
v  8.3436 8.0483 4.3691
v  10.0210 7.1040 6.5538
v  8.4802 5.8861 5.0857
v  9.7161 3.9760 5.1888
v  7.9246 4.8326 2.8109
v  9.5936 2.7042 6.3863
v  10.3407 1.7725 9.0419
v  9.3104 0.5779 7.1646
v  10.2863 -1.3973 7.7417
v  9.4922 -0.5558 4.8678
v  8.2996 10.3830 6.8015
v  7.0462 10.4405 4.1740
v  6.1255 9.8430 6.3666
v  4.0418 10.5784 5.8156
v  5.2317 10.5238 8.6755
v  3.5982 3.0261 6.8735
v  1.1608 2.3888 5.4137
v  3.0284 0.9560 6.1004
v  1.6884 -0.8716 6.3257
v  4.2956 -0.3464 7.9146
v  4.1254 9.1364 8.6918
v  3.3150 7.7125 6.2847
v  4.7286 7.0014 8.1578
v  4.0922 4.8240 7.9559
v  4.9868 6.1999 10.5836
v  5.7282 10.9533 2.3569
v  4.1919 10.1196 0.0281
v  3.6553 10.0010 2.4178
v  1.4225 10.2454 2.0417
v  2.9229 11.1347 4.6022
v  2.6220 11.7914 3.7481
v  -0.1662 10.9906 3.4983
v  1.7547 9.8011 4.4510
v  0.4623 8.7044 5.9720
v  3.4460 9.4478 6.3505
v  5.7949 11.0689 2.3964
v  8.0035 10.7622 4.2689
v  6.6681 9.0777 3.0893
v  8.4059 7.6091 2.9897
v  6.0840 7.7889 0.9465
v  4.6532 8.9012 1.0160
v  7.1195 8.3864 2.4757
v  5.3256 6.8622 1.7891
v  6.7551 5.1037 1.5638
v  4.1248 5.4982 -0.0251
v  9.5960 10.5668 8.6577
v  8.3414 10.5571 6.0302
v  7.4540 9.9110 8.2228
v  5.3338 10.5338 7.6717
v  6.5250 10.5430 10.5317
v  0.3275 4.3229 -0.6066
v  2.9054 3.0699 -0.0940
v  0.6308 2.1761 0.1051
v  1.2974 0.0612 -0.4143
v  -1.5084 1.2505 -0.9722
v  9.4603 7.4898 6.9062
v  10.3676 6.5181 9.4967
v  9.4528 5.3068 7.5710
v  10.6724 3.4382 8.0264
v  9.7250 4.3261 5.2136
v  7.5586 5.1638 3.3150
v  9.2713 4.2853 5.4998
v  7.7789 3.0085 4.0317
v  9.0881 1.1478 4.1348
v  7.2646 1.9343 1.7569
v  4.3124 2.7340 0.2035
v  6.5519 3.2923 1.9787
v  5.2387 1.2455 1.6643
v  7.0073 -0.0986 2.1667
v  4.6551 -0.8463 0.2942
v  1.7815 11.4787 1.4079
v  4.1600 9.9810 0.6475
v  1.8062 9.2990 0.7327
v  2.0549 7.8290 -0.9889
v  -0.5625 9.3170 -0.2585
v  8.1501 11.5111 7.1856
v  9.4483 10.6117 9.6318
v  9.0579 9.4430 7.5118
v  10.9493 8.1925 7.7252
v  9.6427 9.0342 5.0452
v  4.5530 4.2865 8.3768
v  3.5107 2.3257 6.4934
v  4.7970 2.0250 8.5592
v  3.8126 0.0217 9.0116
v  4.9309 1.9935 11.1233
v  6.2317 10.3045 6.6993
v  5.9767 10.7966 3.8408
v  4.3648 9.8937 5.4530
v  2.5850 10.7585 4.3257
v  2.6991 10.2352 7.3771
v  9.0609 10.4526 4.6556
v  10.5030 9.1776 6.8402
v  8.7410 8.3098 5.3722
v  9.5489 6.1830 5.4753
v  7.9768 7.3963 3.0974
v  11.1871 10.4492 9.0549
v  11.2548 9.1069 11.6379
v  9.9980 8.5792 9.5995
v  10.0334 6.3420 10.0241
v  9.9055 7.6371 7.2126
v  2.9902 5.2882 6.6024
v  0.6836 4.2748 5.1426
v  2.7538 3.1542 5.8294
v  1.7186 1.1382 6.0547
v  4.2104 2.0678 7.6436
v  4.6766 11.3434 6.8070
v  2.8632 9.5270 5.4318
v  4.4464 9.1185 7.2592
v  3.1574 7.4686 8.1552
v  5.0924 9.2986 9.7379
v  5.0474 11.7202 2.4738
v  7.1489 9.7139 2.6657
v  4.8337 9.5273 1.8799
v  5.3550 7.8861 0.3894
v  3.0455 9.9280 0.0812
v  4.3575 9.9384 10.6560
v  3.9358 8.6737 8.0674
v  4.9616 7.8046 10.1180
v  4.2860 5.6734 9.6846
v  4.7490 6.8754 12.5022
v  4.4336 2.7397 10.3405
v  4.1914 1.7019 7.6308
v  4.9853 0.6245 9.6854
v  4.2546 -1.4282 9.0232
v  4.5141 -0.4725 11.9587
v  9.5912 5.5097 7.7242
v  10.3712 4.4152 10.3072
v  9.5967 3.2937 8.2689
v  10.8317 1.4279 8.6934
v  10.0263 2.4501 5.8819
v  9.5276 3.5698 4.9143
v  10.8027 2.1278 7.0990
v  8.9478 1.4824 5.6310
v  9.4891 -0.7274 5.7341
v  8.0775 0.6693 3.3561
v  4.4124 5.9514 8.8812
v  2.8132 5.4968 6.4908
v  4.4422 4.0514 7.6177
v  3.3562 2.1506 6.9896
v  5.0758 2.4783 9.5458
# 255 vertices

vn 0.7071 -0.0056 -0.7071
vn 0.9261 -0.0037 -0.3772
vn -0.7071 0.0010 0.7071
vn 0.0002 0.0027 1.0000
vn -0.3827 0.0028 0.9239
vn -0.9284 0.0046 0.3716
vn 0.7071 -0.0000 -0.7071
vn 0.1615 0.9066 -0.3899
vn -0.0003 0.9403 0.3404
vn 0.0003 0.9066 -0.4220
vn 1.0000 -0.0031 -0.0005
vn -0.0006 -0.0035 -1.0000
vn 0.3827 -0.0035 -0.9239
vn -0.3458 0.9383 -0.0002
vn -0.3133 0.9412 0.1262
vn -1.0000 0.0013 -0.0005
vn 0.2984 0.9066 -0.2984
vn -0.1303 0.9403 0.3145
vn -0.2407 0.9403 0.2407
vn 0.4200 0.9075 -0.0019
vn 0.3919 0.9062 -0.1592
vn 0.9262 -0.0000 -0.3771
vn -0.3827 0.0000 0.9239
vn 0.3827 -0.0000 -0.9239
vn -0.9284 0.0000 0.3716
# 25 vertex normals

vt -0.1068 0.5381 0.0000
vt 0.2069 -0.1188 0.0000
vt 0.4300 0.4294 0.0000
vt 0.9588 0.2916 0.0000
vt 0.6610 1.0066 0.0000
# 5 texture coords

g mazeCornerShortRoundShort_leafs
s 1
f 1/1/1 2/2/2 3/3/1 
f 2/2/2 4/4/1 3/3/1 
f 4/4/1 5/5/1 3/3/1 
f 5/5/1 1/1/1 3/3/1 
f 6/1/3 7/2/4 8/3/3 
f 7/2/4 9/4/5 8/3/3 
f 9/4/5 10/5/6 8/3/3 
f 10/5/6 6/1/3 8/3/3 
f 11/1/1 12/2/2 13/3/1 
f 12/2/2 14/4/7 13/3/1 
f 14/4/7 15/5/1 13/3/1 
f 15/5/1 11/1/1 13/3/1 
f 16/1/8 17/2/8 18/3/9 
f 17/2/8 19/4/10 18/3/9 
f 19/4/10 20/5/9 18/3/9 
f 20/5/9 16/1/8 18/3/9 
f 21/1/11 22/2/11 23/3/11 
f 22/2/11 24/4/11 23/3/11 
f 24/4/11 25/5/2 23/3/11 
f 25/5/2 21/1/11 23/3/11 
f 26/1/12 27/2/13 28/3/12 
f 27/2/13 29/4/13 28/3/12 
f 29/4/13 30/5/12 28/3/12 
f 30/5/12 26/1/12 28/3/12 
f 31/1/14 32/2/15 33/3/14 
f 32/2/15 34/4/6 33/3/14 
f 34/4/6 35/5/16 33/3/14 
f 35/5/16 31/1/14 33/3/14 
f 36/1/2 37/2/11 38/3/2 
f 37/2/11 39/4/11 38/3/2 
f 39/4/11 40/5/2 38/3/2 
f 40/5/2 36/1/2 38/3/2 
f 41/1/5 42/2/4 43/3/4 
f 42/2/4 44/4/4 43/3/4 
f 44/4/4 45/5/5 43/3/4 
f 45/5/5 41/1/5 43/3/4 
f 46/1/8 47/2/13 48/3/13 
f 47/2/13 49/4/13 48/3/13 
f 49/4/13 50/5/12 48/3/13 
f 50/5/12 46/1/8 48/3/13 
f 51/1/17 52/2/17 53/3/17 
f 52/2/17 54/4/18 53/3/17 
f 54/4/18 55/5/19 53/3/17 
f 55/5/19 51/1/17 53/3/17 
f 56/1/16 57/2/6 58/3/16 
f 57/2/6 59/4/16 58/3/16 
f 59/4/16 60/5/16 58/3/16 
f 60/5/16 56/1/16 58/3/16 
f 61/1/1 62/2/1 63/3/1 
f 62/2/1 64/4/1 63/3/1 
f 64/4/1 65/5/13 63/3/1 
f 65/5/13 61/1/1 63/3/1 
f 66/1/4 67/2/4 68/3/4 
f 67/2/4 69/4/4 68/3/4 
f 69/4/4 70/5/3 68/3/4 
f 70/5/3 66/1/4 68/3/4 
f 71/1/2 72/2/2 73/3/2 
f 72/2/2 74/4/2 73/3/2 
f 74/4/2 75/5/1 73/3/2 
f 75/5/1 71/1/2 73/3/2 
f 76/1/14 77/2/20 78/3/20 
f 77/2/20 79/4/11 78/3/20 
f 79/4/11 80/5/21 78/3/20 
f 80/5/21 76/1/14 78/3/20 
f 81/1/21 82/2/21 83/3/21 
f 82/2/21 84/4/2 83/3/21 
f 84/4/2 85/5/1 83/3/21 
f 85/5/1 81/1/21 83/3/21 
f 86/1/4 87/2/4 88/3/4 
f 87/2/4 89/4/4 88/3/4 
f 89/4/4 90/5/3 88/3/4 
f 90/5/3 86/1/4 88/3/4 
f 91/1/19 92/2/18 93/3/3 
f 92/2/18 94/4/5 93/3/3 
f 94/4/5 95/5/6 93/3/3 
f 95/5/6 91/1/19 93/3/3 
f 96/1/13 97/2/13 98/3/13 
f 97/2/13 99/4/13 98/3/13 
f 99/4/13 100/5/13 98/3/13 
f 100/5/13 96/1/13 98/3/13 
f 101/1/13 102/2/13 103/3/13 
f 102/2/13 104/4/13 103/3/13 
f 104/4/13 105/5/12 103/3/13 
f 105/5/12 101/1/13 103/3/13 
f 106/1/12 107/2/13 108/3/12 
f 107/2/13 109/4/12 108/3/12 
f 109/4/12 110/5/12 108/3/12 
f 110/5/12 106/1/12 108/3/12 
f 111/1/11 112/2/11 113/3/11 
f 112/2/11 114/4/11 113/3/11 
f 114/4/11 115/5/2 113/3/11 
f 115/5/2 111/1/11 113/3/11 
f 116/1/1 117/2/2 118/3/2 
f 117/2/2 119/4/2 118/3/2 
f 119/4/2 120/5/1 118/3/2 
f 120/5/1 116/1/1 118/3/2 
f 121/1/2 122/2/11 123/3/2 
f 122/2/11 124/4/22 123/3/2 
f 124/4/22 125/5/22 123/3/2 
f 125/5/22 121/1/2 123/3/2 
f 126/1/21 127/2/17 128/3/15 
f 127/2/17 129/4/19 128/3/15 
f 129/4/19 130/5/15 128/3/15 
f 130/5/15 126/1/21 128/3/15 
f 131/1/3 132/2/5 133/3/3 
f 132/2/5 134/4/23 133/3/3 
f 134/4/23 135/5/6 133/3/3 
f 135/5/6 131/1/3 133/3/3 
f 136/1/6 137/2/3 138/3/6 
f 137/2/3 139/4/6 138/3/6 
f 139/4/6 140/5/16 138/3/6 
f 140/5/16 136/1/6 138/3/6 
f 141/1/17 142/2/13 143/3/8 
f 142/2/13 144/4/10 143/3/8 
f 144/4/10 145/5/18 143/3/8 
f 145/5/18 141/1/17 143/3/8 
f 146/1/18 147/2/9 148/3/18 
f 147/2/9 149/4/4 148/3/18 
f 149/4/4 150/5/3 148/3/18 
f 150/5/3 146/1/18 148/3/18 
f 151/1/17 152/2/17 153/3/1 
f 152/2/17 154/4/1 153/3/1 
f 154/4/1 155/5/1 153/3/1 
f 155/5/1 151/1/17 153/3/1 
f 156/1/13 157/2/1 158/3/13 
f 157/2/1 159/4/1 158/3/13 
f 159/4/1 160/5/13 158/3/13 
f 160/5/13 156/1/13 158/3/13 
f 161/1/20 162/2/21 163/3/21 
f 162/2/21 164/4/15 163/3/21 
f 164/4/15 165/5/14 163/3/21 
f 165/5/14 161/1/20 163/3/21 
f 166/1/12 167/2/13 168/3/12 
f 167/2/13 169/4/12 168/3/12 
f 169/4/12 170/5/12 168/3/12 
f 170/5/12 166/1/12 168/3/12 
f 171/1/2 172/2/11 173/3/2 
f 172/2/11 174/4/11 173/3/2 
f 174/4/11 175/5/2 173/3/2 
f 175/5/2 171/1/2 173/3/2 
f 176/1/1 177/2/2 178/3/1 
f 177/2/2 179/4/2 178/3/1 
f 179/4/2 180/5/1 178/3/1 
f 180/5/1 176/1/1 178/3/1 
f 181/1/13 182/2/1 183/3/13 
f 182/2/1 184/4/1 183/3/13 
f 184/4/1 185/5/24 183/3/13 
f 185/5/24 181/1/13 183/3/13 
f 186/1/8 187/2/13 188/3/10 
f 187/2/13 189/4/12 188/3/10 
f 189/4/12 190/5/12 188/3/10 
f 190/5/12 186/1/8 188/3/10 
f 191/1/21 192/2/20 193/3/21 
f 192/2/20 194/4/2 193/3/21 
f 194/4/2 195/5/2 193/3/21 
f 195/5/2 191/1/21 193/3/21 
f 196/1/6 197/2/3 198/3/6 
f 197/2/3 199/4/6 198/3/6 
f 199/4/6 200/5/16 198/3/6 
f 200/5/16 196/1/6 198/3/6 
f 201/1/15 202/2/17 203/3/19 
f 202/2/17 204/4/18 203/3/19 
f 204/4/18 205/5/3 203/3/19 
f 205/5/3 201/1/15 203/3/19 
f 206/1/21 207/2/2 208/3/2 
f 207/2/2 209/4/2 208/3/2 
f 209/4/2 210/5/1 208/3/2 
f 210/5/1 206/1/21 208/3/2 
f 211/1/11 212/2/11 213/3/11 
f 212/2/11 214/4/11 213/3/11 
f 214/4/11 215/5/2 213/3/11 
f 215/5/2 211/1/11 213/3/11 
f 216/1/3 217/2/4 218/3/5 
f 217/2/4 219/4/5 218/3/5 
f 219/4/5 220/5/6 218/3/5 
f 220/5/6 216/1/3 218/3/5 
f 221/1/19 222/2/5 223/3/6 
f 222/2/5 224/4/6 223/3/6 
f 224/4/6 225/5/16 223/3/6 
f 225/5/16 221/1/19 223/3/6 
f 226/1/17 227/2/1 228/3/8 
f 227/2/1 229/4/13 228/3/8 
f 229/4/13 230/5/13 228/3/8 
f 230/5/13 226/1/17 228/3/8 
f 231/1/16 232/2/6 233/3/16 
f 232/2/6 234/4/16 233/3/16 
f 234/4/16 235/5/16 233/3/16 
f 235/5/16 231/1/16 233/3/16 
f 236/1/16 237/2/6 238/3/16 
f 237/2/6 239/4/25 238/3/16 
f 239/4/25 240/5/16 238/3/16 
f 240/5/16 236/1/16 238/3/16 
f 241/1/2 242/2/11 243/3/11 
f 242/2/11 244/4/11 243/3/11 
f 244/4/11 245/5/2 243/3/11 
f 245/5/2 241/1/2 243/3/11 
f 246/1/2 247/2/2 248/3/2 
f 247/2/2 249/4/22 248/3/2 
f 249/4/22 250/5/1 248/3/2 
f 250/5/1 246/1/2 248/3/2 
f 251/1/6 252/2/3 253/3/6 
f 252/2/3 254/4/3 253/3/6 
f 254/4/3 255/5/16 253/3/6 
f 255/5/16 251/1/6 253/3/6 
# 0 polygons - 204 triangles

#
# object mazeCornerShortRoundShort_base
#

v  4.2558 10.0000 5.7628
v  6.3771 10.0000 3.6415
v  3.4513 10.0000 1.6865
v  2.3032 10.0000 4.4581
v  3.5487 0.0000 6.4699
v  3.5487 9.0000 6.4699
v  1.9205 9.0000 5.3820
v  1.9205 0.0000 5.3820
v  7.0842 0.0000 2.9344
v  7.0842 9.0000 2.9344
v  9.2560 9.0000 6.1846
v  9.2560 0.0000 6.1846
v  8.3321 10.0000 6.5673
v  5.9708 10.0000 10.0186
v  8.9708 10.0000 10.0186
v  5.5605 10.0000 7.7154
v  0.0000 10.0000 1.0000
v  0.0000 10.0000 4.0000
v  4.9708 0.0000 10.0186
v  4.9708 9.0000 10.0186
v  4.6366 9.0000 8.0981
v  4.6366 0.0000 8.0981
v  0.0000 9.0000 5.0000
v  0.0000 0.0000 5.0000
v  0.0000 0.0000 -0.0000
v  0.0000 9.0000 0.0000
v  3.8340 9.0000 0.7626
v  3.8340 0.0000 0.7626
v  9.9708 9.0000 10.0186
v  9.9708 0.0000 10.0186
# 30 vertices

vn -0.2407 0.9403 0.2407
vn 0.2984 0.9066 -0.2984
vn 0.1615 0.9066 -0.3899
vn -0.1303 0.9403 0.3145
vn -0.7071 0.0000 0.7071
vn -0.7071 0.0010 0.7071
vn -0.3827 0.0028 0.9239
vn -0.3827 0.0000 0.9239
vn 0.7071 -0.0000 -0.7071
vn 0.7071 -0.0056 -0.7071
vn 0.9261 -0.0037 -0.3772
vn 0.9262 -0.0000 -0.3771
vn 0.3919 0.9062 -0.1592
vn -0.3458 0.9383 -0.0002
vn 0.4200 0.9075 -0.0019
vn -0.3133 0.9412 0.1262
vn 0.0003 0.9066 -0.4220
vn -0.0003 0.9403 0.3404
vn -1.0000 0.0000 -0.0010
vn -1.0000 0.0013 -0.0005
vn -0.9284 0.0046 0.3716
vn -0.9284 0.0000 0.3716
vn 0.0002 0.0027 1.0000
vn -0.0001 0.0000 1.0000
vn -0.0003 -0.0000 -1.0000
vn -0.0006 -0.0035 -1.0000
vn 0.3827 -0.0035 -0.9239
vn 0.3827 -0.0000 -0.9239
vn 1.0000 -0.0031 -0.0005
vn 1.0000 0.0000 -0.0014
# 30 vertex normals

vt 0.8937 0.2900 0.0000
vt 0.7793 0.2915 0.0000
vt 0.7868 0.1601 0.0000
vt 0.8989 0.1930 0.0000
vt 1.3035 0.2945 0.0000
vt 0.9529 0.2890 0.0000
vt 0.9558 0.2064 0.0000
vt 1.3058 0.2020 0.0000
vt 0.3851 0.3046 0.0000
vt 0.7321 0.2927 0.0000
vt 0.7407 0.4335 0.0000
vt 0.3932 0.4428 0.0000
vt 0.7899 0.4223 0.0000
vt 0.9304 0.4746 0.0000
vt 0.8312 0.5487 0.0000
vt 0.9012 0.3869 0.0000
vt 0.8238 0.0317 0.0000
vt 0.9252 0.1041 0.0000
vt 1.3159 0.4413 0.0000
vt 0.9702 0.4493 0.0000
vt 0.9577 0.3724 0.0000
vt 1.3077 0.3722 0.0000
vt 0.9662 0.1296 0.0000
vt 1.3125 0.1196 0.0000
vt 0.4009 0.0017 0.0000
vt 0.7549 0.0032 0.0000
vt 0.7373 0.1501 0.0000
vt 0.3897 0.1547 0.0000
vt 0.7637 0.5778 0.0000
vt 0.4098 0.5855 0.0000
# 30 texture coords

g mazeCornerShortRoundShort_base
s 1
f 256/6/26 257/7/27 258/8/28 259/9/29 
f 260/10/30 261/11/31 262/12/32 263/13/33 
f 264/14/34 265/15/35 266/16/36 267/17/37 
f 261/11/31 256/6/26 259/9/29 262/12/32 
f 265/15/35 257/7/27 268/18/38 266/16/36 
f 269/19/39 270/20/40 268/18/38 271/21/41 
f 271/21/41 268/18/38 257/7/27 256/6/26 
f 272/22/42 273/23/43 259/9/29 258/8/28 
f 274/24/44 275/25/45 276/26/46 277/27/47 
f 277/27/47 276/26/46 261/11/31 260/10/30 
f 278/28/48 279/29/49 263/13/33 262/12/32 
f 280/30/50 281/31/51 282/32/52 283/33/53 
f 283/33/53 282/32/52 265/15/35 264/14/34 
f 284/34/54 285/35/55 267/17/37 266/16/36 
f 275/25/45 269/19/39 271/21/41 276/26/46 
f 276/26/46 271/21/41 256/6/26 261/11/31 
f 273/23/43 278/28/48 262/12/32 259/9/29 
f 281/31/51 272/22/42 258/8/28 282/32/52 
f 282/32/52 258/8/28 257/7/27 265/15/35 
f 270/20/40 284/34/54 266/16/36 268/18/38 
# 20 polygons

