# 3ds Max Wavefront OBJ Exporter v0.97b - (c)2007 guruware
# File Created: 22.06.2016 10:47:14

#
# object mazeCapCornerSmall_leafs
#

v  2.8107 11.7101 3.2685
v  0.2933 10.5466 4.1557
v  2.5894 9.7047 4.3348
v  2.1533 8.6079 6.2824
v  4.9065 9.7517 5.4402
v  0.7416 6.6515 2.4170
v  0.0687 5.5926 -0.2105
v  0.1296 4.4966 1.9821
v  -1.5444 3.0541 1.4311
v  -0.9055 4.0594 4.2910
v  6.3735 5.1998 5.6592
v  3.4700 4.9808 5.6592
v  5.1912 3.3556 5.0200
v  3.9121 1.5830 5.6592
v  7.0093 1.6587 5.6592
v  4.6328 11.8544 0.3065
v  6.5266 10.0992 1.6523
v  4.6947 9.5820 0.1065
v  5.7722 7.7613 -0.7364
v  3.7306 9.5136 -2.2724
v  3.1770 11.5935 1.0032
v  2.0327 11.0791 -1.6243
v  1.4808 10.1302 0.5683
v  -0.7105 9.8458 0.0173
v  0.3759 10.3343 2.8772
v  -1.4193 3.0559 0.9950
v  -1.0062 1.8712 -1.6325
v  -0.1088 1.2391 0.5602
v  -0.0158 -0.9687 0.0091
v  -0.4080 0.1560 2.8690
v  1.9769 5.9915 5.6592
v  -0.7108 4.8715 5.6592
v  1.4339 3.8693 5.0200
v  0.7764 1.7846 5.6592
v  3.6930 2.8294 5.6592
v  -1.0018 10.1019 3.2668
v  -0.8206 8.8604 0.6393
v  -0.0592 8.0697 2.8319
v  -0.3862 5.8843 2.2809
v  -0.5582 7.0630 5.1408
v  3.7186 8.6894 5.6592
v  1.6378 6.6526 5.6592
v  4.0012 6.5171 5.0200
v  4.1636 4.3372 5.6592
v  6.4848 6.3890 5.6592
v  1.8325 3.5777 5.6592
v  -0.8222 2.3817 5.6592
v  1.3501 1.4409 5.0200
v  0.7522 -0.6616 5.6592
v  3.6379 0.4657 5.6592
v  0.4393 9.9452 5.7690
v  -1.1866 8.4016 3.9111
v  0.9354 7.8512 5.0096
v  0.4537 5.6262 5.0719
v  2.2522 7.1342 7.0942
v  2.4546 11.7160 3.6257
v  1.4142 11.0146 0.9982
v  1.0317 9.9857 3.1908
v  -1.0794 9.3331 2.6398
v  -0.0918 9.9990 5.4997
v  7.0274 11.1268 3.8006
v  5.7977 10.8775 1.1731
v  5.0501 10.0738 3.3658
v  2.8500 10.2800 2.8147
v  4.0174 10.5167 5.6746
v  0.0276 3.2774 3.5548
v  -0.3155 2.0705 0.9272
v  0.0554 1.0374 3.1199
v  -1.1377 -0.8226 2.5688
v  -0.8120 0.3232 5.4288
v  5.9385 10.3301 2.0607
v  4.6950 10.4976 -0.5669
v  3.7253 9.9834 1.6258
v  1.7143 10.8993 1.0747
v  2.8948 10.7402 3.9347
v  -1.8275 8.5871 0.8498
v  -1.1713 7.5177 -1.7778
v  -0.1599 7.0914 0.4149
v  0.4016 4.9542 -0.1362
v  -0.2213 5.9694 2.7238
v  0.0989 8.2401 4.3115
v  -0.2783 7.0434 1.6839
v  0.0630 6.0002 3.8766
v  -1.1825 4.1749 3.3255
v  -0.8244 5.3110 6.1855
v  3.9920 4.1876 5.6592
v  1.6390 2.4724 5.6592
v  3.9581 1.9972 5.0200
v  3.8042 -0.1833 5.6592
v  6.3973 1.5121 5.6592
v  -1.1961 4.7589 4.1518
v  -0.9086 3.5375 1.5243
v  -0.0820 2.8154 3.7169
v  -0.2196 0.6099 3.1659
v  -0.4925 1.7694 6.0258
v  4.3349 10.9254 5.6592
v  2.3035 8.8393 5.6592
v  4.6694 8.7604 5.0200
v  4.8839 6.5851 5.6592
v  7.1554 8.6919 5.6592
v  0.8697 7.6016 5.6591
v  -0.8286 5.2365 5.6592
v  1.5228 5.5106 5.0200
v  2.0587 3.3914 5.6592
v  3.9913 5.8128 5.6592
v  -0.9900 4.9327 0.7355
v  -0.8152 3.6902 -1.8920
v  -0.0579 2.8956 0.3006
v  -0.3960 0.7119 -0.2504
v  -0.5620 1.8915 2.6095
# 110 vertices

vn -0.3416 0.8756 0.3416
vn -0.3634 -0.0011 0.9316
vn 0.0000 -0.0010 1.0000
vn -0.9316 -0.0011 0.3634
vn -1.0000 -0.0010 -0.0000
vn 0.1962 0.9607 -0.1962
vn 0.7071 -0.0005 -0.7071
vn -0.3827 0.9239 -0.0000
vn -1.0000 0.0000 -0.0000
vn -0.3827 0.0000 0.9239
vn 0.0000 0.9239 0.3827
vn -0.9239 0.0000 0.3827
# 12 vertex normals

vt -0.1068 0.5381 0.0000
vt 0.2069 -0.1188 0.0000
vt 0.4300 0.4294 0.0000
vt 0.9588 0.2916 0.0000
vt 0.6610 1.0066 0.0000
# 5 texture coords

g mazeCapCornerSmall_leafs
s 1
f 1/1/1 2/2/1 3/3/1 
f 2/2/1 4/4/2 3/3/1 
f 4/4/2 5/5/3 3/3/1 
f 5/5/3 1/1/1 3/3/1 
f 6/1/4 7/2/5 8/3/5 
f 7/2/5 9/4/5 8/3/5 
f 9/4/5 10/5/4 8/3/5 
f 10/5/4 6/1/4 8/3/5 
f 11/1/3 12/2/3 13/3/3 
f 12/2/3 14/4/3 13/3/3 
f 14/4/3 15/5/3 13/3/3 
f 15/5/3 11/1/3 13/3/3 
f 16/1/6 17/2/6 18/3/7 
f 17/2/6 19/4/7 18/3/7 
f 19/4/7 20/5/6 18/3/7 
f 20/5/6 16/1/6 18/3/7 
f 21/1/6 22/2/8 23/3/8 
f 22/2/8 24/4/5 23/3/8 
f 24/4/5 25/5/1 23/3/8 
f 25/5/1 21/1/6 23/3/8 
f 26/1/5 27/2/5 28/3/5 
f 27/2/5 29/4/9 28/3/5 
f 29/4/9 30/5/4 28/3/5 
f 30/5/4 26/1/5 28/3/5 
f 31/1/2 32/2/4 33/3/2 
f 32/2/4 34/4/2 33/3/2 
f 34/4/2 35/5/3 33/3/2 
f 35/5/3 31/1/2 33/3/2 
f 36/1/4 37/2/5 38/3/4 
f 37/2/5 39/4/4 38/3/4 
f 39/4/4 40/5/4 38/3/4 
f 40/5/4 36/1/4 38/3/4 
f 41/1/3 42/2/2 43/3/3 
f 42/2/2 44/4/3 43/3/3 
f 44/4/3 45/5/3 43/3/3 
f 45/5/3 41/1/3 43/3/3 
f 46/1/2 47/2/4 48/3/2 
f 47/2/4 49/4/10 48/3/2 
f 49/4/10 50/5/3 48/3/2 
f 50/5/3 46/1/2 48/3/2 
f 51/1/2 52/2/4 53/3/2 
f 52/2/4 54/4/2 53/3/2 
f 54/4/2 55/5/2 53/3/2 
f 55/5/2 51/1/2 53/3/2 
f 56/1/1 57/2/8 58/3/1 
f 57/2/8 59/4/4 58/3/1 
f 59/4/4 60/5/2 58/3/1 
f 60/5/2 56/1/1 58/3/1 
f 61/1/11 62/2/6 63/3/11 
f 62/2/6 64/4/1 63/3/11 
f 64/4/1 65/5/3 63/3/11 
f 65/5/3 61/1/11 63/3/11 
f 66/1/4 67/2/5 68/3/4 
f 67/2/5 69/4/12 68/3/4 
f 69/4/12 70/5/4 68/3/4 
f 70/5/4 66/1/4 68/3/4 
f 71/1/6 72/2/6 73/3/6 
f 72/2/6 74/4/8 73/3/6 
f 74/4/8 75/5/1 73/3/6 
f 75/5/1 71/1/6 73/3/6 
f 76/1/5 77/2/5 78/3/5 
f 77/2/5 79/4/5 78/3/5 
f 79/4/5 80/5/4 78/3/5 
f 80/5/4 76/1/5 78/3/5 
f 81/1/4 82/2/5 83/3/4 
f 82/2/5 84/4/4 83/3/4 
f 84/4/4 85/5/2 83/3/4 
f 85/5/2 81/1/4 83/3/4 
f 86/1/3 87/2/2 88/3/3 
f 87/2/2 89/4/3 88/3/3 
f 89/4/3 90/5/3 88/3/3 
f 90/5/3 86/1/3 88/3/3 
f 91/1/4 92/2/5 93/3/4 
f 92/2/5 94/4/4 93/3/4 
f 94/4/4 95/5/2 93/3/4 
f 95/5/2 91/1/4 93/3/4 
f 96/1/11 97/2/2 98/3/3 
f 97/2/2 99/4/3 98/3/3 
f 99/4/3 100/5/3 98/3/3 
f 100/5/3 96/1/11 98/3/3 
f 101/1/2 102/2/4 103/3/2 
f 102/2/4 104/4/2 103/3/2 
f 104/4/2 105/5/3 103/3/2 
f 105/5/3 101/1/2 103/3/2 
f 106/1/5 107/2/5 108/3/5 
f 107/2/5 109/4/5 108/3/5 
f 109/4/5 110/5/4 108/3/5 
f 110/5/4 106/1/5 108/3/5 
# 0 polygons - 88 triangles

#
# object mazeCapCornerSmall_base
#

v  1.0000 10.0000 4.0000
v  4.0000 10.0000 -0.0000
v  1.0000 10.0000 -0.0000
v  5.0000 0.0000 5.0000
v  5.0000 9.0000 5.0000
v  1.0000 9.0000 5.0000
v  1.0000 0.0000 5.0000
v  0.0000 9.0000 4.0000
v  5.0000 10.0000 4.0000
v  5.0000 10.0000 1.0000
v  5.0000 9.0000 -0.0000
v  0.0000 0.0000 4.0000
v  0.0000 0.0000 -0.0000
v  0.0000 9.0000 -0.0000
# 14 vertices

vn -0.3416 0.8756 0.3416
vn 0.1962 0.9607 -0.1962
vn -0.3827 0.9239 -0.0000
vn 0.0000 0.0000 1.0000
vn 0.0000 -0.0010 1.0000
vn -0.3634 -0.0011 0.9316
vn -0.3827 0.0000 0.9239
vn -0.9316 -0.0011 0.3634
vn 0.0000 0.9239 0.3827
vn 0.7071 -0.0005 -0.7071
vn -0.9239 0.0000 0.3827
vn -1.0000 0.0000 -0.0000
vn -1.0000 -0.0010 -0.0000
# 13 vertex normals

vt 0.7661 0.1809 0.0000
vt 0.9534 0.2083 0.0000
vt 0.8695 0.2895 0.0000
vt 0.3808 0.0017 0.0000
vt 0.7234 0.0000 0.0000
vt 0.7242 0.1523 0.0000
vt 0.3815 0.1540 0.0000
vt 0.7243 0.2097 0.0000
vt 0.8691 0.0719 0.0000
vt 0.8277 0.0356 0.0000
vt 0.9533 0.1529 0.0000
vt 1.0000 0.1805 0.0000
vt 0.3816 0.2092 0.0000
vt 0.3816 0.3620 0.0000
vt 0.7243 0.3620 0.0000
vt 0.8283 0.3260 0.0000
# 16 texture coords

g mazeCapCornerSmall_base
s 1
f 111/6/13 112/7/14 113/8/15 
f 114/9/16 115/10/17 116/11/18 117/12/19 
f 116/11/18 111/6/13 118/13/20 
f 119/14/21 111/6/13 116/11/18 115/15/17 
f 112/7/14 120/16/14 121/17/22 
f 116/11/18 118/13/20 122/18/23 117/12/19 
f 123/19/24 122/18/23 118/13/20 124/20/25 
f 118/13/20 111/6/13 113/8/15 124/21/25 
f 111/6/13 119/14/21 120/16/14 
f 111/6/13 120/16/14 112/7/14 
# 5 polygons - 5 triangles

