# 3ds Max Wavefront OBJ Exporter v0.97b - (c)2007 guruware
# File Created: 22.06.2016 10:47:13

#
# object mazeWallUnit1Small_base
#

v  0.0000 10.0000 1.0000
v  0.0000 10.0000 4.0000
v  5.0000 10.0000 4.0000
v  5.0000 10.0000 1.0000
v  0.0000 9.0000 5.0000
v  0.0000 0.0000 5.0000
v  5.0000 0.0000 5.0000
v  5.0000 9.0000 5.0000
v  0.0000 0.0000 -0.0000
v  0.0000 9.0000 -0.0000
v  5.0000 9.0000 -0.0000
v  5.0000 0.0000 -0.0000
# 12 vertices

vn 0.0000 0.9239 -0.3827
vn 0.0000 0.9239 0.3827
vn 0.0000 0.0000 1.0000
vn 0.0000 0.0000 -1.0000
# 4 vertex normals

vt 0.8384 0.0000 0.0000
vt 0.9616 0.0000 0.0000
vt 0.9616 0.2053 0.0000
vt 0.8384 0.2053 0.0000
vt 1.0197 0.0000 0.0000
vt 1.3893 0.0000 0.0000
vt 1.3893 0.2053 0.0000
vt 1.0197 0.2053 0.0000
vt 0.4107 0.0000 0.0000
vt 0.7803 0.0000 0.0000
vt 0.7803 0.2053 0.0000
vt 0.4107 0.2053 0.0000
# 12 texture coords

g mazeWallUnit1Small_base
s 1
f 1/1/1 2/2/2 3/3/2 4/4/1 
f 5/5/3 6/6/3 7/7/3 8/8/3 
f 9/9/4 10/10/4 11/11/4 12/12/4 
f 2/2/2 5/5/3 8/8/3 3/3/2 
f 10/10/4 1/1/1 4/4/1 11/11/4 
# 5 polygons

#
# object mazeWallUnit1Small_leafs
#

v  2.1212 11.3531 3.4028
v  -0.6376 11.0708 4.2900
v  1.2602 9.5285 4.4690
v  0.4913 8.6329 6.4167
v  3.4669 8.8198 5.5744
v  3.4479 4.7271 -0.6592
v  6.1146 3.5578 -0.6592
v  3.9519 2.5952 -0.0200
v  4.5710 0.4988 -0.6592
v  1.6741 1.5970 -0.6592
v  5.4811 3.4222 5.6592
v  2.6659 2.6787 5.6592
v  4.6540 1.3937 5.0200
v  3.7187 -0.5820 5.6592
v  6.7505 0.0558 5.6592
v  3.0157 10.7081 -0.6592
v  5.0112 8.5878 -0.6592
v  2.6443 8.5492 -0.0200
v  2.3927 6.3779 -0.6592
v  0.1574 8.5231 -0.6592
v  0.9499 6.4164 5.6592
v  -1.3572 4.6401 5.6592
v  0.9735 4.2258 5.0200
v  0.8768 2.0421 5.6592
v  3.4246 3.8048 5.6592
v  -1.2522 5.9350 -0.6592
v  1.6351 5.5590 -0.6592
v  -0.1716 4.0294 -0.0200
v  1.0095 2.1901 -0.6592
v  -2.0790 2.4335 -0.6592
v  5.1744 8.9912 5.6592
v  2.7046 7.4490 5.6592
v  4.9837 6.8089 5.0200
v  4.6741 4.6451 5.6592
v  7.3819 6.1503 5.6592
v  4.9210 12.0981 2.8908
v  2.4492 10.8407 3.7780
v  4.7753 10.0858 3.9570
v  4.3807 8.9734 5.9047
v  7.0890 10.2199 5.0624
v  4.1044 11.2306 2.6124
v  2.8877 10.9240 -0.0152
v  2.1786 10.0861 2.1775
v  -0.0287 10.1890 1.6264
v  1.1263 10.4801 4.4864
v  3.8921 8.5396 -0.6592
v  6.4911 7.2268 -0.6592
v  4.2792 6.3834 -0.0200
v  4.7832 4.2564 -0.6592
v  1.9504 5.5107 -0.6592
v  0.1660 9.3207 -0.6592
v  2.5056 7.5874 -0.6592
v  0.1829 7.1301 -0.0200
v  0.3199 4.9486 -0.6592
v  -2.2600 6.6639 -0.6592
v  0.5472 9.3466 5.6592
v  -1.7787 7.5949 5.6592
v  0.5475 7.1559 5.0200
v  0.4276 4.9733 5.6592
v  2.9939 6.7089 5.6592
v  5.0910 6.3371 5.6592
v  2.1815 6.2217 5.6592
v  3.8438 4.5362 5.0200
v  2.5024 2.8103 5.6592
v  5.6003 2.7756 5.6592
v  2.5990 11.4041 2.0813
v  5.3026 12.0221 1.1941
v  4.0001 9.9523 1.0151
v  5.0157 9.3509 -0.9326
v  2.1375 8.5730 -0.0903
v  2.5339 6.9153 -0.6592
v  4.6627 4.9287 -0.6592
v  2.3032 4.7368 -0.0200
v  2.1929 2.5537 -0.6592
v  -0.1767 4.5495 -0.6592
v  -0.1568 4.1277 -0.6592
v  2.6017 3.1954 -0.6592
v  0.5311 2.0479 -0.0200
v  1.3306 0.0134 -0.6592
v  -1.6510 0.8549 -0.6592
v  3.6321 2.8565 5.6592
v  0.7417 3.2079 5.6592
v  2.1130 1.2782 5.0200
v  0.5128 -0.2109 5.6592
v  3.5653 -0.7407 5.6592
v  2.3970 10.6614 5.6592
v  0.3656 8.5754 5.6592
v  2.7316 8.4964 5.0200
v  2.9461 6.3211 5.6592
v  5.2176 8.4279 5.6592
v  -1.0357 10.7375 1.3397
v  1.6943 11.2256 0.4525
v  0.2943 9.2204 0.2735
v  1.2800 8.5712 -1.6742
v  -1.6320 7.9317 -0.8319
v  2.3118 10.9900 2.3434
v  1.0693 10.8152 -0.2841
v  0.2748 10.0579 1.9085
v  -1.9090 10.3960 1.3575
v  -0.7294 10.5620 4.2174
v  5.9321 10.3579 5.6592
v  3.0209 10.4178 5.6592
v  4.5787 8.6353 5.0200
v  3.1358 6.9932 5.6592
v  6.2260 6.7721 5.6592
v  4.4531 6.7322 -0.6592
v  6.7109 4.8936 -0.6592
v  4.3697 4.5432 -0.0200
v  4.4067 2.3576 -0.6592
v  1.9080 4.1892 -0.6592
v  1.5186 8.1207 5.6592
v  -0.2688 5.8221 5.6592
v  2.0913 6.0062 5.0200
v  2.5459 3.8681 5.6592
v  4.5696 6.2140 5.6592
v  4.4941 11.6039 4.2758
v  3.3525 11.0833 1.6483
v  2.8058 10.1315 3.8409
v  0.6160 9.8354 3.2899
v  1.6997 10.3296 6.1498
v  3.2280 4.8776 -0.6592
v  4.7497 2.3951 -0.6592
v  2.4245 2.8397 -0.0200
v  1.7357 0.7652 -0.6592
v  -0.0155 3.3208 -0.6592
v  3.4987 10.0177 -0.6592
v  6.3946 9.7142 -0.6592
v  4.6267 8.1398 -0.0200
v  5.8536 6.3307 -0.6592
v  2.7600 6.4966 -0.6592
v  4.2109 4.8395 5.6592
v  1.3755 4.1770 5.6592
v  3.3261 2.8355 5.0200
v  2.3345 0.8875 5.6592
v  5.3833 1.4381 5.6592
# 135 vertices

vn 0.0000 0.9239 0.3827
vn 0.0000 0.0000 1.0000
vn 0.0000 0.0000 -1.0000
vn 0.0000 0.9239 -0.3827
# 4 vertex normals

vt -0.1068 0.5381 0.0000
vt 0.2069 -0.1188 0.0000
vt 0.4300 0.4294 0.0000
vt 0.9588 0.2916 0.0000
vt 0.6610 1.0066 0.0000
# 5 texture coords

g mazeWallUnit1Small_leafs
s 1
f 13/13/5 14/14/5 15/15/5 
f 14/14/5 16/16/6 15/15/5 
f 16/16/6 17/17/6 15/15/5 
f 17/17/6 13/13/5 15/15/5 
f 18/13/7 19/14/7 20/15/7 
f 19/14/7 21/16/7 20/15/7 
f 21/16/7 22/17/7 20/15/7 
f 22/17/7 18/13/7 20/15/7 
f 23/13/6 24/14/6 25/15/6 
f 24/14/6 26/16/6 25/15/6 
f 26/16/6 27/17/6 25/15/6 
f 27/17/6 23/13/6 25/15/6 
f 28/13/8 29/14/7 30/15/7 
f 29/14/7 31/16/7 30/15/7 
f 31/16/7 32/17/7 30/15/7 
f 32/17/7 28/13/8 30/15/7 
f 33/13/6 34/14/6 35/15/6 
f 34/14/6 36/16/6 35/15/6 
f 36/16/6 37/17/6 35/15/6 
f 37/17/6 33/13/6 35/15/6 
f 38/13/7 39/14/7 40/15/7 
f 39/14/7 41/16/7 40/15/7 
f 41/16/7 42/17/7 40/15/7 
f 42/17/7 38/13/7 40/15/7 
f 43/13/6 44/14/6 45/15/6 
f 44/14/6 46/16/6 45/15/6 
f 46/16/6 47/17/6 45/15/6 
f 47/17/6 43/13/6 45/15/6 
f 48/13/5 49/14/5 50/15/5 
f 49/14/5 51/16/6 50/15/5 
f 51/16/6 52/17/5 50/15/5 
f 52/17/5 48/13/5 50/15/5 
f 53/13/5 54/14/8 55/15/8 
f 54/14/8 56/16/8 55/15/8 
f 56/16/8 57/17/5 55/15/8 
f 57/17/5 53/13/5 55/15/8 
f 58/13/7 59/14/7 60/15/7 
f 59/14/7 61/16/7 60/15/7 
f 61/16/7 62/17/7 60/15/7 
f 62/17/7 58/13/7 60/15/7 
f 63/13/7 64/14/7 65/15/7 
f 64/14/7 66/16/7 65/15/7 
f 66/16/7 67/17/7 65/15/7 
f 67/17/7 63/13/7 65/15/7 
f 68/13/6 69/14/6 70/15/6 
f 69/14/6 71/16/6 70/15/6 
f 71/16/6 72/17/6 70/15/6 
f 72/17/6 68/13/6 70/15/6 
f 73/13/6 74/14/6 75/15/6 
f 74/14/6 76/16/6 75/15/6 
f 76/16/6 77/17/6 75/15/6 
f 77/17/6 73/13/6 75/15/6 
f 78/13/8 79/14/8 80/15/8 
f 79/14/8 81/16/7 80/15/8 
f 81/16/7 82/17/7 80/15/8 
f 82/17/7 78/13/8 80/15/8 
f 83/13/7 84/14/7 85/15/7 
f 84/14/7 86/16/7 85/15/7 
f 86/16/7 87/17/7 85/15/7 
f 87/17/7 83/13/7 85/15/7 
f 88/13/7 89/14/7 90/15/7 
f 89/14/7 91/16/7 90/15/7 
f 91/16/7 92/17/7 90/15/7 
f 92/17/7 88/13/7 90/15/7 
f 93/13/6 94/14/6 95/15/6 
f 94/14/6 96/16/6 95/15/6 
f 96/16/6 97/17/6 95/15/6 
f 97/17/6 93/13/6 95/15/6 
f 98/13/5 99/14/6 100/15/6 
f 99/14/6 101/16/6 100/15/6 
f 101/16/6 102/17/6 100/15/6 
f 102/17/6 98/13/5 100/15/6 
f 103/13/8 104/14/8 105/15/7 
f 104/14/8 106/16/7 105/15/7 
f 106/16/7 107/17/7 105/15/7 
f 107/17/7 103/13/8 105/15/7 
f 108/13/8 109/14/8 110/15/8 
f 109/14/8 111/16/8 110/15/8 
f 111/16/8 112/17/5 110/15/8 
f 112/17/5 108/13/8 110/15/8 
f 113/13/6 114/14/6 115/15/6 
f 114/14/6 116/16/6 115/15/6 
f 116/16/6 117/17/6 115/15/6 
f 117/17/6 113/13/6 115/15/6 
f 118/13/7 119/14/7 120/15/7 
f 119/14/7 121/16/7 120/15/7 
f 121/16/7 122/17/7 120/15/7 
f 122/17/7 118/13/7 120/15/7 
f 123/13/6 124/14/6 125/15/6 
f 124/14/6 126/16/6 125/15/6 
f 126/16/6 127/17/6 125/15/6 
f 127/17/6 123/13/6 125/15/6 
f 128/13/5 129/14/8 130/15/5 
f 129/14/8 131/16/5 130/15/5 
f 131/16/5 132/17/6 130/15/5 
f 132/17/6 128/13/5 130/15/5 
f 133/13/7 134/14/7 135/15/7 
f 134/14/7 136/16/7 135/15/7 
f 136/16/7 137/17/7 135/15/7 
f 137/17/7 133/13/7 135/15/7 
f 138/13/7 139/14/7 140/15/7 
f 139/14/7 141/16/7 140/15/7 
f 141/16/7 142/17/7 140/15/7 
f 142/17/7 138/13/7 140/15/7 
f 143/13/6 144/14/6 145/15/6 
f 144/14/6 146/16/6 145/15/6 
f 146/16/6 147/17/6 145/15/6 
f 147/17/6 143/13/6 145/15/6 
# 0 polygons - 108 triangles

