# 3ds Max Wavefront OBJ Exporter v0.97b - (c)2007 guruware
# File Created: 22.06.2016 10:47:14

#
# object mazeCapTSectionSmall_leafs
#

v  3.7417 4.1842 5.6592
v  1.2637 2.6552 5.6592
v  3.5393 2.0029 5.0200
v  3.2180 -0.1592 5.6592
v  5.9339 1.3314 5.6592
v  5.3509 10.8673 3.4300
v  2.6574 11.5277 4.3172
v  3.9272 9.4377 4.4962
v  2.9023 8.8524 6.4439
v  5.7679 8.0294 5.6016
v  3.3070 10.7370 1.1748
v  2.0530 10.6964 -1.4527
v  1.1817 10.0288 0.7399
v  -0.9531 10.5993 0.1889
v  0.2375 10.6378 3.0488
v  2.5365 7.7810 5.6592
v  -0.3670 7.5620 5.6592
v  1.3542 5.9368 5.0200
v  0.0751 4.1642 5.6592
v  3.1723 4.2399 5.6592
v  3.4446 11.8645 0.8984
v  5.9766 11.3581 2.2441
v  4.6852 9.9597 0.6984
v  6.5555 8.9707 -0.1445
v  3.8991 9.3974 -1.6805
v  0.0632 11.4887 3.5068
v  -2.1585 9.8288 4.3940
v  0.2621 9.4809 4.5730
v  0.0627 8.3176 6.5207
v  2.5193 10.0070 5.6784
v  4.2743 7.0110 5.6592
v  2.2065 4.9610 5.6592
v  4.5707 4.8405 5.0200
v  4.7469 2.6617 5.6591
v  7.0551 4.7282 5.6592
v  2.3199 10.2996 5.6592
v  -0.0988 8.6785 5.6592
v  2.1997 8.1122 5.0200
v  1.9599 5.9395 5.6592
v  4.6179 7.5313 5.6592
v  0.8887 4.6542 5.6591
v  -1.3525 2.7954 5.6592
v  0.9917 2.4659 5.0200
v  0.9743 0.2801 5.6592
v  3.4564 2.1340 5.6592
v  4.5604 9.3403 5.6592
v  2.4796 7.3035 5.6592
v  4.8430 7.1680 5.0200
v  5.0054 4.9881 5.6592
v  7.3267 7.0399 5.6592
v  7.3319 9.3904 3.6222
v  6.2377 10.0044 0.9947
v  5.1467 9.8838 3.1873
v  3.6149 11.4764 2.6363
v  4.6537 10.8935 5.4962
v  4.6010 11.0488 2.6930
v  3.3634 10.8421 0.0655
v  2.5886 10.0647 2.2581
v  0.3969 10.3467 1.7071
v  1.5718 10.5429 4.5670
v  2.7967 11.2033 3.0350
v  1.5763 10.9118 0.4075
v  0.8568 10.0829 2.6002
v  -1.3490 10.2132 2.0491
v  -0.1905 10.4899 4.9090
v  2.0354 3.2134 5.6592
v  -0.2905 1.4617 5.6592
v  2.0357 1.0228 5.0200
v  1.9158 -1.1598 5.6592
v  4.4822 0.5757 5.6592
v  1.4641 9.6552 5.6592
v  -1.4063 9.1666 5.6592
v  0.4589 7.7088 5.0200
v  -0.6495 5.8248 5.6592
v  2.4272 6.1887 5.6592
v  5.3970 10.3301 0.9226
v  4.1535 10.4976 -1.7049
v  3.1839 9.9834 0.4877
v  1.1729 10.8993 -0.0633
v  2.3534 10.7402 2.7966
v  2.7070 2.6328 5.6592
v  1.1237 0.1892 5.6592
v  3.4593 0.5754 5.0200
v  4.0959 -1.5158 5.6592
v  5.9105 0.9953 5.6592
v  -0.3078 6.4758 5.6592
v  -2.1131 4.1912 5.6592
v  0.2484 4.3569 5.0200
v  0.6864 2.2153 5.6592
v  2.7282 4.5453 5.6592
# 90 vertices

vn 0.0000 0.0000 1.0000
vn 0.0000 0.9239 0.3827
vn 0.0000 0.0022 1.0000
vn 0.1962 0.9607 -0.1962
vn -0.1962 0.9607 -0.1962
vn 0.7071 0.0002 -0.7071
# 6 vertex normals

vt -0.1068 0.5381 0.0000
vt 0.2069 -0.1188 0.0000
vt 0.4300 0.4294 0.0000
vt 0.9588 0.2916 0.0000
vt 0.6610 1.0066 0.0000
# 5 texture coords

g mazeCapTSectionSmall_leafs
s 1
f 1/1/1 2/2/1 3/3/1 
f 2/2/1 4/4/1 3/3/1 
f 4/4/1 5/5/1 3/3/1 
f 5/5/1 1/1/1 3/3/1 
f 6/1/2 7/2/2 8/3/3 
f 7/2/2 9/4/3 8/3/3 
f 9/4/3 10/5/3 8/3/3 
f 10/5/3 6/1/2 8/3/3 
f 11/1/4 12/2/5 13/3/5 
f 12/2/5 14/4/5 13/3/5 
f 14/4/5 15/5/2 13/3/5 
f 15/5/2 11/1/4 13/3/5 
f 16/1/3 17/2/3 18/3/3 
f 17/2/3 19/4/1 18/3/3 
f 19/4/1 20/5/1 18/3/3 
f 20/5/1 16/1/3 18/3/3 
f 21/1/4 22/2/4 23/3/4 
f 22/2/4 24/4/6 23/3/4 
f 24/4/6 25/5/4 23/3/4 
f 25/5/4 21/1/4 23/3/4 
f 26/1/2 27/2/2 28/3/3 
f 27/2/2 29/4/3 28/3/3 
f 29/4/3 30/5/3 28/3/3 
f 30/5/3 26/1/2 28/3/3 
f 31/1/3 32/2/3 33/3/3 
f 32/2/3 34/4/1 33/3/3 
f 34/4/1 35/5/3 33/3/3 
f 35/5/3 31/1/3 33/3/3 
f 36/1/3 37/2/3 38/3/3 
f 37/2/3 39/4/3 38/3/3 
f 39/4/3 40/5/3 38/3/3 
f 40/5/3 36/1/3 38/3/3 
f 41/1/3 42/2/1 43/3/1 
f 42/2/1 44/4/1 43/3/1 
f 44/4/1 45/5/1 43/3/1 
f 45/5/1 41/1/3 43/3/1 
f 46/1/3 47/2/3 48/3/3 
f 47/2/3 49/4/3 48/3/3 
f 49/4/3 50/5/3 48/3/3 
f 50/5/3 46/1/3 48/3/3 
f 51/1/2 52/2/4 53/3/2 
f 52/2/4 54/4/2 53/3/2 
f 54/4/2 55/5/2 53/3/2 
f 55/5/2 51/1/2 53/3/2 
f 56/1/2 57/2/4 58/3/4 
f 57/2/4 59/4/5 58/3/4 
f 59/4/5 60/5/2 58/3/4 
f 60/5/2 56/1/2 58/3/4 
f 61/1/2 62/2/5 63/3/2 
f 62/2/5 64/4/5 63/3/2 
f 64/4/5 65/5/2 63/3/2 
f 65/5/2 61/1/2 63/3/2 
f 66/1/1 67/2/1 68/3/1 
f 67/2/1 69/4/1 68/3/1 
f 69/4/1 70/5/1 68/3/1 
f 70/5/1 66/1/1 68/3/1 
f 71/1/3 72/2/3 73/3/3 
f 72/2/3 74/4/3 73/3/3 
f 74/4/3 75/5/3 73/3/3 
f 75/5/3 71/1/3 73/3/3 
f 76/1/4 77/2/4 78/3/4 
f 77/2/4 79/4/5 78/3/4 
f 79/4/5 80/5/2 78/3/4 
f 80/5/2 76/1/4 78/3/4 
f 81/1/1 82/2/1 83/3/1 
f 82/2/1 84/4/1 83/3/1 
f 84/4/1 85/5/1 83/3/1 
f 85/5/1 81/1/1 83/3/1 
f 86/1/3 87/2/1 88/3/1 
f 87/2/1 89/4/1 88/3/1 
f 89/4/1 90/5/3 88/3/1 
f 90/5/3 86/1/3 88/3/1 
# 0 polygons - 72 triangles

#
# object mazeCapTSectionSmall_base
#

v  -0.0000 0.0000 5.0000
v  5.0000 0.0000 5.0000
v  5.0000 9.0000 5.0000
v  -0.0000 9.0000 5.0000
v  5.0000 10.0000 4.0000
v  -0.0000 10.0000 4.0000
v  4.0000 10.0000 -0.0000
v  1.0000 10.0000 -0.0000
v  -0.0000 10.0000 1.0000
v  5.0000 10.0000 1.0000
v  -0.0000 9.0000 -0.0000
v  5.0000 9.0000 -0.0000
# 12 vertices

vn 0.0000 0.0000 1.0000
vn 0.0000 0.0022 1.0000
vn 0.0000 0.9239 0.3827
vn 0.1962 0.9607 -0.1962
vn -0.1962 0.9607 -0.1962
vn -0.7071 0.0002 -0.7071
vn 0.7071 0.0002 -0.7071
# 7 vertex normals

vt 0.4035 0.2165 0.0000
vt 0.4035 0.0148 0.0000
vt 0.7667 0.0148 0.0000
vt 0.7667 0.2165 0.0000
vt 0.8238 0.0148 0.0000
vt 0.8238 0.2165 0.0000
vt 0.9852 0.0551 0.0000
vt 0.9852 0.1762 0.0000
vt 0.9449 0.2165 0.0000
vt 0.9449 0.0148 0.0000
vt 1.0000 0.2313 0.0000
vt 1.0000 0.0000 0.0000
# 12 texture coords

g mazeCapTSectionSmall_base
s 1
f 91/6/7 92/7/7 93/8/8 94/9/8 
f 95/10/9 96/11/9 94/9/8 93/8/8 
f 97/12/10 98/13/11 99/14/11 100/15/10 
f 95/10/9 100/15/10 99/14/11 96/11/9 
f 99/14/11 98/13/11 101/16/12 
f 97/12/10 100/15/10 102/17/13 
# 4 polygons - 2 triangles

