# 3ds Max Wavefront OBJ Exporter v0.97b - (c)2007 guruware
# File Created: 22.06.2016 10:47:10

#
# object mazeGateInBetweenSmall_leafs
#

v  5.8653 8.1211 5.1068
v  5.5499 10.3755 3.2913
v  3.8755 9.0711 4.5191
v  2.4703 10.8525 4.7158
v  2.6628 8.4855 6.7054
v  21.1128 10.9146 3.9200
v  19.8653 10.7802 1.2925
v  19.0466 10.0491 3.4851
v  16.8750 10.4580 2.9341
v  18.0593 10.5856 5.7940
v  18.1885 6.7391 -0.6592
v  20.1840 4.6187 -0.6592
v  17.8170 4.5802 -0.0200
v  17.5654 2.4089 -0.6592
v  15.3302 4.5541 -0.6592
v  5.9007 6.8070 4.5390
v  3.6753 6.5351 6.3970
v  4.2474 5.2407 4.3946
v  3.3404 3.3287 5.2362
v  5.6832 3.4692 3.2139
v  19.2785 7.6622 5.6592
v  17.3964 5.4405 5.6592
v  19.7622 5.5257 5.0200
v  20.1269 3.3704 5.6592
v  22.2469 5.6295 5.6592
v  0.2502 3.7630 -0.6592
v  3.0819 3.0853 -0.6592
v  1.1243 1.7543 -0.0200
v  2.1054 -0.1990 -0.6592
v  -0.9404 0.3679 -0.6592
v  13.7694 7.7524 3.7595
v  14.0760 6.5357 1.1319
v  14.9139 5.8267 3.3246
v  14.8110 3.6193 2.7735
v  14.5199 4.7744 5.6335
v  4.9144 6.7644 -0.6925
v  5.9205 4.7609 1.1655
v  3.7376 4.9628 0.0670
v  3.4363 2.7063 0.0047
v  2.2557 4.7348 -2.0176
v  15.5506 11.0428 0.9302
v  17.6011 9.9417 -0.8194
v  16.0124 8.8225 0.6759
v  15.8867 6.9795 -0.6560
v  13.6348 8.0100 1.2056
v  2.7191 3.5194 5.6592
v  -0.1721 3.8642 5.6592
v  1.2036 1.9377 5.0200
v  -0.3932 0.4449 5.6592
v  2.6605 -0.0779 5.6592
v  5.9289 3.6439 1.1495
v  5.7869 2.3973 3.7770
v  5.0508 1.5830 1.5843
v  5.4464 -0.5910 2.1354
v  5.5812 0.5925 -0.7245
v  20.3867 3.9927 5.6591
v  17.5679 3.2628 5.6592
v  19.5498 1.9682 5.0200
v  18.6050 -0.0029 5.6592
v  21.6398 0.6202 5.6592
v  -0.1186 9.4860 -0.6592
v  2.7059 8.7783 -0.6592
v  0.7342 7.4682 -0.0200
v  1.6945 5.5045 -0.6592
v  -1.3451 6.1038 -0.6592
v  20.3634 10.7009 -0.6592
v  22.2822 8.5108 -0.6592
v  19.9153 8.5566 -0.0200
v  19.5866 6.3955 -0.6592
v  17.4292 8.6190 -0.6592
v  13.8379 2.9396 0.5905
v  16.0777 2.8419 -1.2675
v  15.6081 1.5068 0.7349
v  16.6613 -0.3287 -0.1067
v  14.3147 -0.3711 1.9156
v  -0.5226 9.7357 5.6592
v  -2.3279 7.4511 5.6592
v  0.0336 7.6168 5.0200
v  0.4715 5.4753 5.6592
v  2.5134 7.8053 5.6592
v  16.1126 4.8750 5.8330
v  14.4176 3.4076 3.9750
v  16.5122 2.7605 5.0735
v  15.9289 0.5600 5.1358
v  17.7946 1.9839 7.1581
v  19.8070 10.4559 5.6592
v  17.5368 8.6326 5.6592
v  19.8756 8.2663 5.0200
v  19.8238 6.0810 5.6592
v  22.3348 7.8957 5.6592
v  19.0949 9.9047 5.6592
v  16.1858 10.0306 5.6592
v  17.7028 8.2132 5.0200
v  16.2230 6.6044 5.6592
v  19.3074 6.3132 5.6592
v  4.9635 10.4087 4.1230
v  3.2986 8.9072 5.9810
v  4.5107 8.1767 3.9786
v  4.8672 6.0908 4.8202
v  6.7037 7.5521 2.7979
v  5.2149 11.1908 0.4716
v  6.8958 9.7072 2.3296
v  4.7951 9.0802 1.2311
v  5.3572 6.8741 1.1688
v  3.5052 8.3159 -0.8535
v  14.7633 4.7132 3.1918
v  14.6168 3.4671 0.5643
v  15.1474 2.5062 2.7569
v  14.2656 0.4800 2.2058
v  14.4047 1.6630 5.0658
v  18.4069 3.8882 -0.6592
v  21.2293 3.1728 -0.6592
v  19.2541 1.8681 -0.0200
v  20.2090 -0.0982 -0.6592
v  17.1711 0.5094 -0.6592
v  18.4968 7.1893 5.6592
v  15.6096 7.5665 5.6592
v  16.9635 5.6247 5.0200
v  15.3501 4.1499 5.6592
v  18.3977 3.5929 5.6592
v  17.5498 11.3007 2.8420
v  15.0322 10.1529 1.9352
v  16.4695 9.5490 3.8279
v  14.7056 8.8493 5.0872
v  17.3585 10.0057 6.1931
v  14.3504 8.1757 0.6265
v  16.4676 7.4384 -1.2314
v  15.6341 6.2946 0.7710
v  16.1153 4.2338 -0.0707
v  13.8554 4.8677 1.9516
v  4.4133 3.8081 5.0733
v  2.5275 2.5956 6.9313
v  3.6056 1.6787 4.9289
v  3.6201 -0.4374 5.7705
v  5.6687 0.7077 3.7482
v  5.8375 7.8383 0.9396
v  6.3876 6.5909 3.5124
v  5.1138 5.7722 1.5837
v  5.6512 3.6006 2.0102
v  5.0343 4.7849 -0.7853
v  -0.4325 6.7213 5.6592
v  -2.0621 4.3083 5.6592
v  0.2804 4.6499 5.0200
v  0.8771 2.5471 5.6592
v  2.7392 5.0231 5.6592
v  18.1070 7.0913 -0.6592
v  21.0018 7.4050 -0.6592
v  19.6055 5.4933 -0.0200
v  21.1862 3.9835 -0.6592
v  18.1271 3.4936 -0.6592
v  18.3297 9.4115 -0.6592
v  20.4769 7.4448 -0.6592
v  18.1193 7.2310 -0.0200
v  18.0293 5.0470 -0.6592
v  15.6413 7.0206 -0.6592
v  1.0452 11.8380 1.8547
v  3.5438 10.6347 0.9675
v  1.2347 9.8293 0.7884
v  1.6533 8.7258 -1.1592
v  -1.0815 9.9130 -0.3170
v  2.8821 4.8845 -0.6592
v  5.3725 3.3760 -0.6592
v  3.1023 2.7050 -0.0200
v  3.4413 0.5456 -0.6592
v  0.7133 2.0139 -0.6592
v  1.6171 10.6563 1.3173
v  4.3267 11.2469 0.4301
v  3.0033 9.1904 0.2511
v  4.0128 8.5787 -1.6966
v  1.1269 7.8301 -0.8543
v  -0.2130 6.7592 -0.6592
v  2.4242 5.5249 -0.6592
v  0.2385 4.6156 -0.0200
v  0.8060 2.5047 -0.6592
v  -2.0631 3.6736 -0.6592
v  18.3923 11.5228 1.1602
v  20.4238 9.8783 -0.1232
v  18.1223 9.3452 0.5337
v  17.8612 7.8607 -1.1736
v  15.5906 9.5105 0.1381
v  2.7485 10.5793 5.6592
v  0.0835 9.4061 5.6592
v  2.2477 8.4466 5.0200
v  1.6317 6.3493 5.6592
v  4.5270 7.4518 5.6592
v  1.2824 11.7650 3.2050
v  -1.2636 10.6654 4.0922
v  1.0105 9.7658 4.2712
v  0.5469 8.6804 6.2189
v  3.3281 9.7543 5.3766
v  6.5065 4.3354 2.9424
v  6.0430 3.1694 5.5699
v  5.1194 2.5763 3.3772
v  4.9321 0.3745 3.9283
v  5.3721 1.4814 1.0684
v  3.1638 8.5796 5.6592
v  0.5189 7.3618 5.6592
v  2.6989 6.4388 5.0200
v  2.1183 4.3315 5.6592
v  4.9946 5.4825 5.6592
v  5.7759 6.1978 1.6251
v  5.7150 4.9446 4.2527
v  5.0332 4.0843 2.0600
v  5.5689 1.9405 2.6111
v  5.6268 3.1302 -0.2489
v  15.7948 11.2139 3.4361
v  15.0985 10.1701 0.8086
v  15.1349 9.0731 3.0012
v  13.4293 7.6682 2.4502
v  14.0903 8.6591 5.3101
v  2.4459 9.1337 -0.6592
v  4.9765 7.6934 -0.6592
v  2.7253 6.9609 -0.0200
v  3.1230 4.8115 -0.6592
v  0.3560 6.2051 -0.6592
v  17.5920 11.2880 2.8801
v  17.6117 10.3207 0.1337
v  16.0161 9.9228 1.9526
v  14.2597 9.7227 0.5168
v  14.0845 10.7202 3.4447
v  16.4652 3.9334 -0.6592
v  19.3230 3.3754 -0.6592
v  17.4230 1.9633 -0.0200
v  18.4854 0.0529 -0.6592
v  15.4184 0.4913 -0.6592
v  4.1437 3.3083 3.9974
v  3.1353 1.3059 5.8554
v  4.5297 1.0638 3.8530
v  5.6173 -0.7516 4.6946
v  6.8001 1.2756 2.6723
v  14.5512 5.6140 0.2199
v  16.9565 4.8696 -1.2426
v  15.7842 3.7286 0.5840
v  16.3975 1.6663 -0.1625
v  13.8229 2.3077 1.4370
v  4.6842 5.5941 5.0699
v  2.6726 4.6044 6.9279
v  3.6392 3.5706 4.9255
v  3.4125 1.4666 5.7671
v  5.5783 2.3709 3.7448
v  14.9612 9.4207 4.5764
v  13.2035 8.0290 2.7184
v  15.2678 7.2908 3.8169
v  14.5887 5.1179 3.8792
v  16.5150 6.4587 5.9015
v  1.8737 11.6746 2.9659
v  0.7523 11.1118 0.3384
v  0.2414 10.1403 2.5310
v  -1.9358 9.7629 1.9799
v  -0.8712 10.2971 4.8399
v  16.5150 3.3919 5.1470
v  14.3478 2.8181 3.2890
v  15.9453 1.3168 4.3875
v  14.4548 -0.4040 4.4498
v  16.7563 0.0558 6.4721
v  19.1721 8.7272 5.6592
v  16.3066 8.2101 5.6592
v  18.1862 6.7709 5.0200
v  17.0965 4.8760 5.6592
v  20.1694 5.2704 5.6592
v  15.0106 5.6338 4.8189
v  13.3708 4.1049 2.9609
v  15.4878 3.5355 4.0594
v  14.9860 1.3149 4.1217
v  16.7980 2.8066 6.1440
v  22.3255 9.1872 2.0722
v  21.2870 9.8914 -0.5553
v  20.1898 9.8633 1.6374
v  18.7978 11.5795 1.0863
v  19.7837 10.9110 3.9463
v  20.1362 5.9283 5.6592
v  17.2256 6.0087 5.6592
v  18.7707 4.2153 5.0200
v  17.3163 2.5835 5.6592
v  20.4049 2.3406 5.6592
v  18.8913 11.5404 3.4092
v  16.2953 10.5646 4.2964
v  18.5234 9.5566 4.4755
v  18.0080 8.4948 6.4231
v  20.8378 9.4335 5.5809
v  16.4458 9.6811 5.5819
v  14.4485 8.6627 3.7239
v  16.3270 7.5325 4.8224
v  15.2334 5.5358 4.8847
v  17.3860 6.4711 6.9070
v  0.4509 5.4118 -0.6592
v  3.1238 4.2568 -0.6592
v  0.9662 3.2826 -0.0200
v  1.5965 1.1895 -0.6592
v  -1.3062 2.2723 -0.6592
v  6.5544 5.8660 3.7732
v  4.3499 5.4577 5.6311
v  5.0007 4.2009 3.6287
v  4.2130 2.2368 4.4703
v  6.5427 2.5212 2.4480
v  3.4379 8.7047 4.5921
v  2.5188 6.6598 6.4501
v  3.9225 6.4794 4.4477
v  5.0891 4.7138 5.2893
v  6.1813 6.7912 3.2670
v  2.3021 11.1107 1.9898
v  3.4794 10.6767 4.6173
v  4.0955 9.7684 2.4246
v  6.3013 9.6365 2.9757
v  5.1837 10.0485 0.1158
v  4.9852 10.0774 1.9125
v  5.3221 8.8687 4.5400
v  4.9459 7.8376 2.3474
v  6.1296 5.9716 2.8985
v  5.8098 7.1190 0.0385
v  15.7960 10.0316 2.0547
v  15.0991 8.9883 -0.5728
v  15.1350 7.8912 1.6199
v  13.4287 6.4872 1.0688
v  14.0903 7.4777 3.9287
v  14.8907 3.9130 -0.4736
v  14.0907 2.0666 1.6310
v  15.1736 4.2626 1.7636
v  14.2012 4.7445 3.7658
v  15.0541 6.8243 1.6339
# 320 vertices

vn 0.9285 0.0008 0.3714
vn 0.3728 -0.0023 0.9279
vn 0.2503 0.8736 0.4174
vn 0.0000 0.9239 0.3827
vn 0.0000 0.9239 -0.3827
vn -0.4108 0.9001 0.1450
vn -0.3728 -0.0023 0.9279
vn -0.3728 -0.0023 -0.9279
vn 0.0000 0.0000 -1.0000
vn 0.0000 0.0000 1.0000
vn 0.3728 -0.0023 -0.9279
vn -0.9285 0.0008 0.3714
vn -0.9285 0.0008 -0.3714
vn 0.9285 0.0008 -0.3714
vn -0.2503 0.8736 -0.4174
vn 0.9239 0.0000 -0.3827
vn 0.4108 0.9001 0.1450
vn 0.2503 0.8736 -0.4174
vn -0.2503 0.8736 0.4174
vn -0.4108 0.9001 -0.1450
vn -0.0000 0.9239 0.3827
vn 0.9239 0.0000 0.3827
vn 0.4107 0.9001 -0.1450
# 23 vertex normals

vt -0.1068 0.5381 0.0000
vt 0.2069 -0.1188 0.0000
vt 0.4300 0.4294 0.0000
vt 0.9588 0.2916 0.0000
vt 0.6610 1.0066 0.0000
# 5 texture coords

g mazeGateInBetweenSmall_leafs
s 1
f 1/1/1 2/2/1 3/3/2 
f 2/2/1 4/4/3 3/3/2 
f 4/4/3 5/5/2 3/3/2 
f 5/5/2 1/1/1 3/3/2 
f 6/1/4 7/2/5 8/3/4 
f 7/2/5 9/4/6 8/3/4 
f 9/4/6 10/5/7 8/3/4 
f 10/5/7 6/1/4 8/3/4 
f 11/1/8 12/2/9 13/3/8 
f 12/2/9 14/4/8 13/3/8 
f 14/4/8 15/5/8 13/3/8 
f 15/5/8 11/1/8 13/3/8 
f 16/1/1 17/2/2 18/3/2 
f 17/2/2 19/4/2 18/3/2 
f 19/4/2 20/5/1 18/3/2 
f 20/5/1 16/1/1 18/3/2 
f 21/1/10 22/2/7 23/3/10 
f 22/2/7 24/4/10 23/3/10 
f 24/4/10 25/5/10 23/3/10 
f 25/5/10 21/1/10 23/3/10 
f 26/1/9 27/2/11 28/3/9 
f 27/2/11 29/4/11 28/3/9 
f 29/4/11 30/5/9 28/3/9 
f 30/5/9 26/1/9 28/3/9 
f 31/1/12 32/2/13 33/3/12 
f 32/2/13 34/4/12 33/3/12 
f 34/4/12 35/5/7 33/3/12 
f 35/5/7 31/1/12 33/3/12 
f 36/1/11 37/2/14 38/3/11 
f 37/2/14 39/4/11 38/3/11 
f 39/4/11 40/5/11 38/3/11 
f 40/5/11 36/1/11 38/3/11 
f 41/1/15 42/2/8 43/3/8 
f 42/2/8 44/4/8 43/3/8 
f 44/4/8 45/5/13 43/3/8 
f 45/5/13 41/1/15 43/3/8 
f 46/1/2 47/2/10 48/3/10 
f 47/2/10 49/4/10 48/3/10 
f 49/4/10 50/5/2 48/3/10 
f 50/5/2 46/1/2 48/3/10 
f 51/1/14 52/2/1 53/3/14 
f 52/2/1 54/4/16 53/3/14 
f 54/4/16 55/5/11 53/3/14 
f 55/5/11 51/1/14 53/3/14 
f 56/1/10 57/2/7 58/3/10 
f 57/2/7 59/4/10 58/3/10 
f 59/4/10 60/5/10 58/3/10 
f 60/5/10 56/1/10 58/3/10 
f 61/1/9 62/2/11 63/3/9 
f 62/2/11 64/4/9 63/3/9 
f 64/4/9 65/5/9 63/3/9 
f 65/5/9 61/1/9 63/3/9 
f 66/1/5 67/2/9 68/3/9 
f 67/2/9 69/4/9 68/3/9 
f 69/4/9 70/5/8 68/3/9 
f 70/5/8 66/1/5 68/3/9 
f 71/1/13 72/2/8 73/3/13 
f 72/2/8 74/4/8 73/3/13 
f 74/4/8 75/5/13 73/3/13 
f 75/5/13 71/1/13 73/3/13 
f 76/1/10 77/2/10 78/3/10 
f 77/2/10 79/4/10 78/3/10 
f 79/4/10 80/5/2 78/3/10 
f 80/5/2 76/1/10 78/3/10 
f 81/1/7 82/2/12 83/3/7 
f 82/2/12 84/4/7 83/3/7 
f 84/4/7 85/5/7 83/3/7 
f 85/5/7 81/1/7 83/3/7 
f 86/1/10 87/2/7 88/3/10 
f 87/2/7 89/4/10 88/3/10 
f 89/4/10 90/5/10 88/3/10 
f 90/5/10 86/1/10 88/3/10 
f 91/1/10 92/2/7 93/3/7 
f 92/2/7 94/4/7 93/3/7 
f 94/4/7 95/5/10 93/3/7 
f 95/5/10 91/1/10 93/3/7 
f 96/1/17 97/2/2 98/3/1 
f 97/2/2 99/4/1 98/3/1 
f 99/4/1 100/5/1 98/3/1 
f 100/5/1 96/1/17 98/3/1 
f 101/1/18 102/2/14 103/3/14 
f 102/2/14 104/4/14 103/3/14 
f 104/4/14 105/5/11 103/3/14 
f 105/5/11 101/1/18 103/3/14 
f 106/1/12 107/2/13 108/3/12 
f 107/2/13 109/4/13 108/3/12 
f 109/4/13 110/5/12 108/3/12 
f 110/5/12 106/1/12 108/3/12 
f 111/1/9 112/2/9 113/3/9 
f 112/2/9 114/4/9 113/3/9 
f 114/4/9 115/5/8 113/3/9 
f 115/5/8 111/1/9 113/3/9 
f 116/1/10 117/2/7 118/3/7 
f 117/2/7 119/4/7 118/3/7 
f 119/4/7 120/5/10 118/3/7 
f 120/5/10 116/1/10 118/3/7 
f 121/1/19 122/2/20 123/3/19 
f 122/2/20 124/4/12 123/3/19 
f 124/4/12 125/5/7 123/3/19 
f 125/5/7 121/1/19 123/3/19 
f 126/1/13 127/2/8 128/3/13 
f 127/2/8 129/4/8 128/3/13 
f 129/4/8 130/5/13 128/3/13 
f 130/5/13 126/1/13 128/3/13 
f 131/1/2 132/2/2 133/3/2 
f 132/2/2 134/4/2 133/3/2 
f 134/4/2 135/5/1 133/3/2 
f 135/5/1 131/1/2 133/3/2 
f 136/1/14 137/2/1 138/3/14 
f 137/2/1 139/4/14 138/3/14 
f 139/4/14 140/5/11 138/3/14 
f 140/5/11 136/1/14 138/3/14 
f 141/1/10 142/2/10 143/3/10 
f 142/2/10 144/4/10 143/3/10 
f 144/4/10 145/5/2 143/3/10 
f 145/5/2 141/1/10 143/3/10 
f 146/1/8 147/2/9 148/3/9 
f 147/2/9 149/4/9 148/3/9 
f 149/4/9 150/5/8 148/3/9 
f 150/5/8 146/1/8 148/3/9 
f 151/1/9 152/2/9 153/3/8 
f 152/2/9 154/4/8 153/3/8 
f 154/4/8 155/5/8 153/3/8 
f 155/5/8 151/1/9 153/3/8 
f 156/1/5 157/2/18 158/3/5 
f 157/2/18 159/4/9 158/3/5 
f 159/4/9 160/5/9 158/3/5 
f 160/5/9 156/1/5 158/3/5 
f 161/1/11 162/2/11 163/3/11 
f 162/2/11 164/4/11 163/3/11 
f 164/4/11 165/5/9 163/3/11 
f 165/5/9 161/1/11 163/3/11 
f 166/1/5 167/2/18 168/3/11 
f 167/2/18 169/4/11 168/3/11 
f 169/4/11 170/5/9 168/3/11 
f 170/5/9 166/1/5 168/3/11 
f 171/1/9 172/2/11 173/3/9 
f 172/2/11 174/4/9 173/3/9 
f 174/4/9 175/5/9 173/3/9 
f 175/5/9 171/1/9 173/3/9 
f 176/1/5 177/2/9 178/3/8 
f 177/2/9 179/4/8 178/3/8 
f 179/4/8 180/5/8 178/3/8 
f 180/5/8 176/1/5 178/3/8 
f 181/1/2 182/2/10 183/3/2 
f 182/2/10 184/4/10 183/3/2 
f 184/4/10 185/5/2 183/3/2 
f 185/5/2 181/1/2 183/3/2 
f 186/1/21 187/2/21 188/3/21 
f 187/2/21 189/4/10 188/3/21 
f 189/4/10 190/5/2 188/3/21 
f 190/5/2 186/1/21 188/3/21 
f 191/1/1 192/2/1 193/3/1 
f 192/2/1 194/4/1 193/3/1 
f 194/4/1 195/5/14 193/3/1 
f 195/5/14 191/1/1 193/3/1 
f 196/1/2 197/2/10 198/3/2 
f 197/2/10 199/4/2 198/3/2 
f 199/4/2 200/5/2 198/3/2 
f 200/5/2 196/1/2 198/3/2 
f 201/1/14 202/2/1 203/3/14 
f 202/2/1 204/4/1 203/3/14 
f 204/4/1 205/5/14 203/3/14 
f 205/5/14 201/1/14 203/3/14 
f 206/1/6 207/2/13 208/3/12 
f 207/2/13 209/4/13 208/3/12 
f 209/4/13 210/5/12 208/3/12 
f 210/5/12 206/1/6 208/3/12 
f 211/1/11 212/2/11 213/3/11 
f 212/2/11 214/4/11 213/3/11 
f 214/4/11 215/5/9 213/3/11 
f 215/5/9 211/1/11 213/3/11 
f 216/1/19 217/2/15 218/3/20 
f 217/2/15 219/4/13 218/3/20 
f 219/4/13 220/5/12 218/3/20 
f 220/5/12 216/1/19 218/3/20 
f 221/1/8 222/2/9 223/3/8 
f 222/2/9 224/4/9 223/3/8 
f 224/4/9 225/5/8 223/3/8 
f 225/5/8 221/1/8 223/3/8 
f 226/1/1 227/2/2 228/3/1 
f 227/2/2 229/4/22 228/3/1 
f 229/4/22 230/5/1 228/3/1 
f 230/5/1 226/1/1 228/3/1 
f 231/1/13 232/2/8 233/3/8 
f 232/2/8 234/4/8 233/3/8 
f 234/4/8 235/5/13 233/3/8 
f 235/5/13 231/1/13 233/3/8 
f 236/1/2 237/2/2 238/3/2 
f 237/2/2 239/4/2 238/3/2 
f 239/4/2 240/5/1 238/3/2 
f 240/5/1 236/1/2 238/3/2 
f 241/1/12 242/2/12 243/3/12 
f 242/2/12 244/4/12 243/3/12 
f 244/4/12 245/5/7 243/3/12 
f 245/5/7 241/1/12 243/3/12 
f 246/1/3 247/2/5 248/3/21 
f 247/2/5 249/4/5 248/3/21 
f 249/4/5 250/5/21 248/3/21 
f 250/5/21 246/1/3 248/3/21 
f 251/1/7 252/2/12 253/3/7 
f 252/2/12 254/4/12 253/3/7 
f 254/4/12 255/5/7 253/3/7 
f 255/5/7 251/1/7 253/3/7 
f 256/1/10 257/2/7 258/3/7 
f 257/2/7 259/4/7 258/3/7 
f 259/4/7 260/5/10 258/3/7 
f 260/5/10 256/1/10 258/3/7 
f 261/1/12 262/2/12 263/3/12 
f 262/2/12 264/4/12 263/3/12 
f 264/4/12 265/5/7 263/3/12 
f 265/5/7 261/1/12 263/3/12 
f 266/1/5 267/2/9 268/3/5 
f 267/2/9 269/4/5 268/3/5 
f 269/4/5 270/5/4 268/3/5 
f 270/5/4 266/1/5 268/3/5 
f 271/1/10 272/2/7 273/3/10 
f 272/2/7 274/4/7 273/3/10 
f 274/4/7 275/5/10 273/3/10 
f 275/5/10 271/1/10 273/3/10 
f 276/1/4 277/2/19 278/3/4 
f 277/2/19 279/4/7 278/3/4 
f 279/4/7 280/5/10 278/3/4 
f 280/5/10 276/1/4 278/3/4 
f 281/1/7 282/2/12 283/3/7 
f 282/2/12 284/4/7 283/3/7 
f 284/4/7 285/5/7 283/3/7 
f 285/5/7 281/1/7 283/3/7 
f 286/1/9 287/2/11 288/3/9 
f 287/2/11 289/4/9 288/3/9 
f 289/4/9 290/5/9 288/3/9 
f 290/5/9 286/1/9 288/3/9 
f 291/1/1 292/2/2 293/3/1 
f 292/2/2 294/4/2 293/3/1 
f 294/4/2 295/5/14 293/3/1 
f 295/5/14 291/1/1 293/3/1 
f 296/1/2 297/2/2 298/3/2 
f 297/2/2 299/4/2 298/3/2 
f 299/4/2 300/5/1 298/3/2 
f 300/5/1 296/1/2 298/3/2 
f 301/1/18 302/2/3 303/3/23 
f 302/2/3 304/4/1 303/3/23 
f 304/4/1 305/5/14 303/3/23 
f 305/5/14 301/1/18 303/3/23 
f 306/1/23 307/2/1 308/3/14 
f 307/2/1 309/4/1 308/3/14 
f 309/4/1 310/5/14 308/3/14 
f 310/5/14 306/1/23 308/3/14 
f 311/1/20 312/2/8 313/3/13 
f 312/2/8 314/4/13 313/3/13 
f 314/4/13 315/5/12 313/3/13 
f 315/5/12 311/1/20 313/3/13 
f 316/1/8 317/2/13 318/3/13 
f 317/2/13 319/4/12 318/3/13 
f 319/4/12 320/5/13 318/3/13 
f 320/5/13 316/1/8 318/3/13 
# 0 polygons - 256 triangles

#
# object mazeGateInBetweenSmall_base
#

v  16.5000 0.0000 5.0000
v  20.0000 0.0000 5.0000
v  20.0000 9.0000 5.0000
v  16.5000 9.0000 5.0000
v  20.0000 0.0000 -0.0000
v  16.5000 0.0000 -0.0000
v  16.5000 9.0000 -0.0000
v  20.0000 9.0000 -0.0000
v  15.0000 0.0000 1.5000
v  15.0000 0.0000 3.5000
v  15.0000 9.0000 3.5000
v  15.0000 9.0000 1.5000
v  16.5000 10.0000 1.0000
v  16.5000 10.0000 4.0000
v  20.0000 10.0000 4.0000
v  20.0000 10.0000 1.0000
v  16.0000 10.0000 1.9142
v  16.0000 10.0000 3.0858
v  3.5000 0.0000 0.0000
v  0.0000 0.0000 -0.0000
v  0.0000 9.0000 -0.0000
v  3.5000 9.0000 0.0000
v  0.0000 0.0000 5.0000
v  3.5000 0.0000 5.0000
v  3.5000 9.0000 5.0000
v  0.0000 9.0000 5.0000
v  5.0000 0.0000 3.5000
v  5.0000 0.0000 1.5000
v  5.0000 9.0000 1.5000
v  5.0000 9.0000 3.5000
v  3.5000 10.0000 4.0000
v  3.5000 10.0000 1.0000
v  0.0000 10.0000 1.0000
v  0.0000 10.0000 4.0000
v  4.0000 10.0000 3.0858
v  4.0000 10.0000 1.9142
# 36 vertices

vn -0.3827 0.0000 0.9239
vn 0.0000 0.0000 1.0000
vn -0.3728 -0.0023 0.9279
vn 0.0000 0.0000 -1.0000
vn -0.3827 0.0000 -0.9239
vn -0.3728 -0.0023 -0.9279
vn -0.9239 0.0000 -0.3827
vn -0.9239 0.0000 0.3827
vn -0.9285 0.0008 0.3714
vn -0.9285 0.0008 -0.3714
vn -0.2503 0.8736 -0.4174
vn -0.2503 0.8736 0.4174
vn 0.0000 0.9239 0.3827
vn 0.0000 0.9239 -0.3827
vn -0.4107 0.9001 -0.1450
vn -0.4107 0.9001 0.1450
vn 0.3827 0.0000 -0.9239
vn 0.3728 -0.0023 -0.9279
vn 0.3827 0.0000 0.9239
vn 0.3728 -0.0023 0.9279
vn 0.9239 0.0000 0.3827
vn 0.9239 0.0000 -0.3827
vn 0.9285 0.0008 -0.3714
vn 0.9285 0.0008 0.3714
vn 0.2503 0.8736 0.4174
vn 0.2503 0.8736 -0.4174
vn -0.0000 0.9239 0.3827
vn 0.4107 0.9001 0.1450
vn 0.4107 0.9001 -0.1450
# 29 vertex normals

vt 0.4674 0.2021 0.0000
vt 0.4852 0.0420 0.0000
vt 0.8951 0.0739 0.0000
vt 0.8760 0.2229 0.0000
vt 0.4683 0.5966 0.0000
vt 0.4615 0.4376 0.0000
vt 0.8714 0.4501 0.0000
vt 0.8798 0.6018 0.0000
vt 0.4536 0.3669 0.0000
vt 0.4538 0.2974 0.0000
vt 0.8616 0.2994 0.0000
vt 0.8602 0.3714 0.0000
vt 0.9308 0.4139 0.0000
vt 0.9322 0.2621 0.0000
vt 1.0904 0.2699 0.0000
vt 1.0904 0.4061 0.0000
vt 0.9194 0.3648 0.0000
vt 0.9198 0.3102 0.0000
vt 0.9635 0.0906 0.0000
vt 0.9496 0.5884 0.0000
vt 0.5698 1.1480 0.0000
vt 0.5521 1.3081 0.0000
vt 0.1421 1.2762 0.0000
vt 0.1612 1.1272 0.0000
vt 0.5689 0.7535 0.0000
vt 0.5757 0.9125 0.0000
vt 0.1659 0.8999 0.0000
vt 0.1574 0.7482 0.0000
vt 0.5836 0.9832 0.0000
vt 0.5834 1.0527 0.0000
vt 0.1757 1.0506 0.0000
vt 0.1770 0.9786 0.0000
vt 0.1064 0.9361 0.0000
vt 0.1050 1.0880 0.0000
vt -0.0531 1.0801 0.0000
vt -0.0531 0.9440 0.0000
vt 0.1179 0.9853 0.0000
vt 0.1174 1.0399 0.0000
vt 0.0737 1.2594 0.0000
vt 0.0876 0.7617 0.0000
# 40 texture coords

g mazeGateInBetweenSmall_base
s 1
f 321/6/24 322/7/25 323/8/25 324/9/26 
f 325/10/27 326/11/28 327/12/29 328/13/27 
f 329/14/30 330/15/31 331/16/32 332/17/33 
f 324/9/26 331/16/32 330/15/31 321/6/24 
f 326/11/28 329/14/30 332/17/33 327/12/29 
f 333/18/34 334/19/35 335/20/36 336/21/37 
f 334/19/35 333/18/34 337/22/38 338/23/39 
f 323/8/25 335/24/36 334/19/35 324/9/26 
f 327/12/29 333/18/34 336/25/37 328/13/27 
f 331/16/32 338/23/39 337/22/38 332/17/33 
f 324/9/26 334/19/35 338/23/39 331/16/32 
f 332/17/33 337/22/38 333/18/34 327/12/29 
f 339/26/40 340/27/27 341/28/27 342/29/41 
f 343/30/25 344/31/42 345/32/43 346/33/25 
f 347/34/44 348/35/45 349/36/46 350/37/47 
f 342/29/41 349/36/46 348/35/45 339/26/40 
f 344/31/42 347/34/44 350/37/47 345/32/43 
f 351/38/48 352/39/49 353/40/37 354/41/50 
f 352/39/49 351/38/48 355/42/51 356/43/52 
f 341/28/27 353/44/37 352/39/49 342/29/41 
f 345/32/43 351/38/48 354/45/50 346/33/25 
f 349/36/46 356/43/52 355/42/51 350/37/47 
f 342/29/41 352/39/49 356/43/52 349/36/46 
f 350/37/47 355/42/51 351/38/48 345/32/43 
# 24 polygons

