# 3ds Max Wavefront OBJ Exporter v0.97b - (c)2007 guruware
# File Created: 22.06.2016 10:38:23

#
# object mazePlantCubeSmall_leafs
#

v  3.2489 5.1059 0.9991
v  2.0254 5.3842 -1.6284
v  1.0135 4.9589 0.5642
v  -0.9073 6.0514 0.0132
v  0.2542 5.7872 2.8731
v  -0.9146 -0.6597 3.3200
v  -0.7802 -0.6396 6.2286
v  -0.0491 1.0291 4.5874
v  -0.4580 2.7643 6.0046
v  -0.5856 2.8997 2.9121
v  4.5639 2.9560 -0.6592
v  6.1086 0.4878 -0.6592
v  3.7794 0.9107 -0.0200
v  3.1100 -1.1702 -0.6592
v  1.3350 1.3690 -0.6592
v  4.5499 6.9353 5.6592
v  1.9643 5.5964 5.6592
v  4.1846 4.7753 5.0200
v  3.7021 2.6434 5.6592
v  6.5221 3.9262 5.6592
v  5.0318 2.4468 5.6592
v  2.2166 1.7033 5.6592
v  4.2048 0.4183 5.0200
v  3.2695 -1.5574 5.6592
v  6.3012 -0.9196 5.6592
v  5.2364 5.8213 2.5031
v  6.1342 3.0570 2.6783
v  5.1097 4.2856 0.8199
v  6.2227 3.0638 -0.7470
v  5.2754 5.9935 -1.0904
v  3.3337 5.4813 5.0413
v  2.9283 6.1341 2.2327
v  1.4969 4.9187 3.8096
v  -0.4136 5.6206 2.7880
v  -0.1379 4.9052 5.7897
v  0.2958 4.5228 -0.3862
v  1.5229 2.3493 -1.8857
v  0.4154 2.3504 0.3020
v  -0.3352 0.2154 0.0468
v  -1.7210 2.4204 1.7248
v  5.3429 4.0512 2.2598
v  5.3576 2.8372 4.9064
v  4.8705 1.8643 2.7089
v  5.6647 -0.1821 3.3157
v  5.6633 0.9655 0.4380
v  4.3805 6.1505 2.6043
v  3.1535 5.8882 -0.0232
v  2.4145 5.0766 2.1694
v  0.2124 5.2595 1.6184
v  1.3772 5.5085 4.4783
v  2.5737 4.6470 5.6592
v  0.4662 2.6378 5.6592
v  2.8276 2.4711 5.0200
v  2.9612 0.2893 5.6592
v  5.3093 2.3103 5.6592
v  -0.3206 5.6154 -0.6592
v  2.5736 5.2960 -0.6592
v  0.7971 3.7313 -0.0200
v  2.0140 1.9155 -0.6592
v  -1.0787 2.0984 -0.6592
v  -0.9272 5.9274 4.3872
v  -0.7861 4.6806 1.7596
v  -0.0506 3.8658 3.9523
v  -0.4478 1.6921 3.4012
v  -0.5818 2.8757 6.2612
v  5.3772 4.9950 5.6592
v  2.6895 3.8749 5.6592
v  4.8342 2.8727 5.0200
v  4.1768 0.7880 5.6591
v  7.0933 1.8329 5.6592
v  -1.0018 3.9732 3.7097
v  -0.8206 4.4633 0.8452
v  -0.0592 2.5579 2.1879
v  -0.3862 1.0839 0.4829
v  -0.5582 0.4090 3.5017
v  5.0478 3.3243 0.1662
v  5.3544 2.1076 2.7937
v  4.9527 1.0861 0.6011
v  6.0894 -0.8088 1.1522
v  5.7983 0.3462 -1.7078
v  5.2674 5.4792 1.1852
v  4.0130 5.5070 -1.4423
v  3.1067 4.8878 0.7504
v  1.0062 5.5738 0.1993
v  2.1970 5.5473 3.0593
v  -0.3811 6.5488 0.2330
v  -0.4964 4.6252 -1.9498
v  0.1703 4.3402 0.3926
v  -0.5574 2.1831 0.4528
v  -0.4380 4.1090 2.8765
v  5.2515 7.1158 3.6061
v  5.4582 5.8782 6.2336
v  4.9748 4.8928 4.0409
v  5.9536 2.9117 4.5920
v  5.7574 4.0866 1.7321
v  0.9220 7.3738 3.5206
v  0.2652 6.3047 0.8931
v  0.3426 5.2098 3.0858
v  -1.3093 3.7422 2.5347
v  -0.6858 4.7571 5.3947
v  3.2561 2.8656 5.6592
v  2.8408 5.7476 5.6592
v  1.3360 3.9202 5.0200
v  -0.5192 5.0762 5.6592
v  -0.2338 1.9912 5.6592
v  4.4106 5.1166 -0.6592
v  6.8792 3.5725 -0.6592
v  4.5996 2.9341 -0.0200
v  4.9077 0.7701 -0.6592
v  2.2010 2.2773 -0.6592
v  6.1092 5.4815 1.4117
v  5.8696 4.2499 4.0392
v  5.0718 3.4960 1.8465
v  5.2952 1.2976 2.3976
v  5.5227 2.4669 -0.4624
v  1.1180 2.7957 5.6592
v  -1.2079 1.0441 5.6592
v  1.1183 0.6051 5.0200
v  0.9985 -1.5775 5.6592
v  3.5648 0.1581 5.6592
v  -1.0018 -1.1220 2.5567
v  -0.8206 1.6889 3.2946
v  -0.0592 0.5174 1.2795
v  -0.3862 2.3443 -0.0404
v  -0.5582 -0.6042 -0.9759
v  4.3973 5.3483 6.5063
v  6.7447 5.4484 4.7863
v  4.3926 5.0101 4.2495
v  4.5801 5.9285 2.1739
v  1.9930 5.8445 3.8763
v  6.7141 5.2250 2.1516
v  5.4448 5.1971 -0.4687
v  4.4888 4.8945 1.7690
v  2.4929 5.8071 1.1608
v  3.7022 5.8647 4.0125
v  3.6067 6.5894 -0.2675
v  6.2213 6.1964 0.9524
v  4.5497 4.5657 0.2046
v  6.1346 3.0192 -0.3277
v  3.3600 3.2894 -1.6793
v  4.0000 6.1332 -0.6592
v  4.6897 3.3043 -0.6592
v  2.6118 4.4385 -0.0200
v  1.3217 2.6740 -0.6592
v  0.4358 5.6427 -0.6592
v  5.0478 2.9677 3.8936
v  5.3544 1.7510 6.5211
v  4.9527 0.7295 4.3285
v  6.0894 -1.1654 4.8796
v  5.7983 -0.0104 2.0196
v  5.0478 2.1844 2.2840
v  5.3544 5.0374 2.7792
v  4.9527 3.1838 4.3333
v  6.0894 4.2065 6.0211
v  5.7983 1.1451 5.6456
v  2.0708 6.2586 5.5672
v  -0.4141 6.4280 4.0589
v  0.8445 4.4753 4.8436
v  -1.0401 3.2202 5.0876
v  1.5642 2.8929 6.7334
v  1.4834 -1.2148 -0.6592
v  -1.1977 -0.0790 -0.6592
v  0.9528 0.9107 -0.0200
v  0.3076 2.9991 -0.6592
v  3.2180 1.9372 -0.6592
v  1.8732 1.0544 6.2650
v  1.4125 3.9198 6.5003
v  0.6008 2.3055 4.8426
v  -1.3388 3.4523 4.5123
v  -0.9772 0.3943 4.1714
v  1.3450 4.5228 6.3790
v  4.2380 4.8157 6.2272
v  2.5450 4.7719 4.4540
v  3.7518 6.1635 3.1148
v  0.6637 5.9152 3.1323
# 175 vertices

vn 0.3416 0.8756 -0.3416
vn -0.0000 0.0000 -1.0000
vn -0.3416 0.8756 -0.3416
vn -0.3416 0.8756 0.3416
vn -1.0000 0.0000 0.0000
vn -0.0000 0.0000 1.0000
vn 0.0000 0.0000 -1.0000
vn 1.0000 0.0000 -0.0000
vn 0.3416 0.8756 0.3416
vn 0.0000 0.0000 1.0000
vn 1.0000 0.0000 0.0000
vn -1.0000 0.0000 -0.0000
# 12 vertex normals

vt -0.1068 0.5381 0.0000
vt 0.2069 -0.1188 0.0000
vt 0.4300 0.4294 0.0000
vt 0.9588 0.2916 0.0000
vt 0.6610 1.0066 0.0000
# 5 texture coords

g mazePlantCubeSmall_leafs
s 1
f 1/1/1 2/2/2 3/3/3 
f 2/2/2 4/4/3 3/3/3 
f 4/4/3 5/5/4 3/3/3 
f 5/5/4 1/1/1 3/3/3 
f 6/1/5 7/2/6 8/3/5 
f 7/2/6 9/4/6 8/3/5 
f 9/4/6 10/5/5 8/3/5 
f 10/5/5 6/1/5 8/3/5 
f 11/1/7 12/2/8 13/3/7 
f 12/2/8 14/4/7 13/3/7 
f 14/4/7 15/5/2 13/3/7 
f 15/5/2 11/1/7 13/3/7 
f 16/1/9 17/2/6 18/3/10 
f 17/2/6 19/4/10 18/3/10 
f 19/4/10 20/5/11 18/3/10 
f 20/5/11 16/1/9 18/3/10 
f 21/1/10 22/2/6 23/3/10 
f 22/2/6 24/4/10 23/3/10 
f 24/4/10 25/5/11 23/3/10 
f 25/5/11 21/1/10 23/3/10 
f 26/1/9 27/2/11 28/3/8 
f 27/2/11 29/4/8 28/3/8 
f 29/4/8 30/5/7 28/3/8 
f 30/5/7 26/1/9 28/3/8 
f 31/1/9 32/2/1 33/3/4 
f 32/2/1 34/4/4 33/3/4 
f 34/4/4 35/5/6 33/3/4 
f 35/5/6 31/1/9 33/3/4 
f 36/1/2 37/2/2 38/3/2 
f 37/2/2 39/4/12 38/3/2 
f 39/4/12 40/5/12 38/3/2 
f 40/5/12 36/1/2 38/3/2 
f 41/1/8 42/2/11 43/3/11 
f 42/2/11 44/4/11 43/3/11 
f 44/4/11 45/5/8 43/3/11 
f 45/5/8 41/1/8 43/3/11 
f 46/1/9 47/2/1 48/3/3 
f 47/2/1 49/4/3 48/3/3 
f 49/4/3 50/5/4 48/3/3 
f 50/5/4 46/1/9 48/3/3 
f 51/1/10 52/2/6 53/3/10 
f 52/2/6 54/4/10 53/3/10 
f 54/4/10 55/5/10 53/3/10 
f 55/5/10 51/1/10 53/3/10 
f 56/1/2 57/2/7 58/3/2 
f 57/2/7 59/4/2 58/3/2 
f 59/4/2 60/5/12 58/3/2 
f 60/5/12 56/1/2 58/3/2 
f 61/1/4 62/2/12 63/3/5 
f 62/2/12 64/4/5 63/3/5 
f 64/4/5 65/5/6 63/3/5 
f 65/5/6 61/1/4 63/3/5 
f 66/1/10 67/2/10 68/3/10 
f 67/2/10 69/4/10 68/3/10 
f 69/4/10 70/5/11 68/3/10 
f 70/5/11 66/1/10 68/3/10 
f 71/1/5 72/2/12 73/3/12 
f 72/2/12 74/4/12 73/3/12 
f 74/4/12 75/5/5 73/3/12 
f 75/5/5 71/1/5 73/3/12 
f 76/1/8 77/2/11 78/3/8 
f 77/2/11 79/4/8 78/3/8 
f 79/4/8 80/5/7 78/3/8 
f 80/5/7 76/1/8 78/3/8 
f 81/1/1 82/2/7 83/3/1 
f 82/2/7 84/4/3 83/3/1 
f 84/4/3 85/5/4 83/3/1 
f 85/5/4 81/1/1 83/3/1 
f 86/1/3 87/2/2 88/3/12 
f 87/2/2 89/4/12 88/3/12 
f 89/4/12 90/5/5 88/3/12 
f 90/5/5 86/1/3 88/3/12 
f 91/1/9 92/2/10 93/3/11 
f 92/2/10 94/4/11 93/3/11 
f 94/4/11 95/5/8 93/3/11 
f 95/5/8 91/1/9 93/3/11 
f 96/1/4 97/2/3 98/3/4 
f 97/2/3 99/4/5 98/3/4 
f 99/4/5 100/5/5 98/3/4 
f 100/5/5 96/1/4 98/3/4 
f 101/1/10 102/2/9 103/3/6 
f 102/2/9 104/4/6 103/3/6 
f 104/4/6 105/5/6 103/3/6 
f 105/5/6 101/1/10 103/3/6 
f 106/1/7 107/2/8 108/3/7 
f 107/2/8 109/4/7 108/3/7 
f 109/4/7 110/5/2 108/3/7 
f 110/5/2 106/1/7 108/3/7 
f 111/1/8 112/2/11 113/3/8 
f 112/2/11 114/4/8 113/3/8 
f 114/4/8 115/5/8 113/3/8 
f 115/5/8 111/1/8 113/3/8 
f 116/1/6 117/2/5 118/3/6 
f 117/2/5 119/4/6 118/3/6 
f 119/4/6 120/5/10 118/3/6 
f 120/5/10 116/1/6 118/3/6 
f 121/1/5 122/2/5 123/3/12 
f 122/2/5 124/4/12 123/3/12 
f 124/4/12 125/5/2 123/3/12 
f 125/5/2 121/1/5 123/3/12 
f 126/1/10 127/2/11 128/3/9 
f 127/2/11 129/4/1 128/3/9 
f 129/4/1 130/5/4 128/3/9 
f 130/5/4 126/1/10 128/3/9 
f 131/1/8 132/2/7 133/3/1 
f 132/2/7 134/4/3 133/3/1 
f 134/4/3 135/5/9 133/3/1 
f 135/5/9 131/1/8 133/3/1 
f 136/1/1 137/2/8 138/3/7 
f 137/2/8 139/4/8 138/3/7 
f 139/4/8 140/5/7 138/3/7 
f 140/5/7 136/1/1 138/3/7 
f 141/1/1 142/2/7 143/3/7 
f 142/2/7 144/4/2 143/3/7 
f 144/4/2 145/5/2 143/3/7 
f 145/5/2 141/1/1 143/3/7 
f 146/1/11 147/2/10 148/3/11 
f 147/2/10 149/4/11 148/3/11 
f 149/4/11 150/5/8 148/3/11 
f 150/5/8 146/1/11 148/3/11 
f 151/1/8 152/2/11 153/3/11 
f 152/2/11 154/4/11 153/3/11 
f 154/4/11 155/5/11 153/3/11 
f 155/5/11 151/1/8 153/3/11 
f 156/1/4 157/2/4 158/3/6 
f 157/2/4 159/4/5 158/3/6 
f 159/4/5 160/5/6 158/3/6 
f 160/5/6 156/1/4 158/3/6 
f 161/1/2 162/2/12 163/3/2 
f 162/2/12 164/4/2 163/3/2 
f 164/4/2 165/5/7 163/3/2 
f 165/5/7 161/1/2 163/3/2 
f 166/1/6 167/2/6 168/3/6 
f 167/2/6 169/4/5 168/3/6 
f 169/4/5 170/5/5 168/3/6 
f 170/5/5 166/1/6 168/3/6 
f 171/1/6 172/2/10 173/3/9 
f 172/2/10 174/4/9 173/3/9 
f 174/4/9 175/5/4 173/3/9 
f 175/5/4 171/1/6 173/3/9 
# 0 polygons - 140 triangles

#
# object mazePlantCubeSmall_base
#

v  0.2500 5.0000 4.7500
v  4.7500 5.0000 4.7500
v  4.7500 5.0000 0.2500
v  0.2500 5.0000 0.2500
v  0.2500 0.0000 5.0000
v  4.7500 0.0000 5.0000
v  4.7500 4.7500 5.0000
v  0.2500 4.7500 5.0000
v  5.0000 0.0000 4.7500
v  5.0000 0.0000 0.2500
v  5.0000 4.7500 0.2500
v  5.0000 4.7500 4.7500
v  4.7500 0.0000 -0.0000
v  0.2500 0.0000 -0.0000
v  0.2500 4.7500 -0.0000
v  4.7500 4.7500 -0.0000
v  0.0000 0.0000 0.2500
v  0.0000 0.0000 4.7500
v  0.0000 4.7500 4.7500
v  0.0000 4.7500 0.2500
# 20 vertices

vn -0.3416 0.8756 0.3416
vn 0.3416 0.8756 0.3416
vn 0.3416 0.8756 -0.3416
vn -0.3416 0.8756 -0.3416
vn -0.0000 0.0000 1.0000
vn 0.0000 0.0000 1.0000
vn 1.0000 0.0000 0.0000
vn 1.0000 0.0000 -0.0000
vn 0.0000 0.0000 -1.0000
vn -0.0000 0.0000 -1.0000
vn -1.0000 0.0000 -0.0000
vn -1.0000 0.0000 0.0000
# 12 vertex normals

vt 0.5019 0.2693 0.0000
vt 0.5054 0.5001 0.0000
vt 0.2745 0.5036 0.0000
vt 0.2711 0.2727 0.0000
vt 0.5162 0.0071 0.0000
vt 0.7471 0.0037 0.0000
vt 0.7507 0.2474 0.0000
vt 0.5198 0.2509 0.0000
vt 0.7652 0.0034 0.0000
vt 0.9961 0.0000 0.0000
vt 0.9997 0.2437 0.0000
vt 0.7688 0.2471 0.0000
vt 0.0181 0.0145 0.0000
vt 0.2490 0.0111 0.0000
vt 0.2527 0.2548 0.0000
vt 0.0218 0.2583 0.0000
vt 0.2672 0.0108 0.0000
vt 0.4981 0.0074 0.0000
vt 0.5017 0.2511 0.0000
vt 0.2708 0.2546 0.0000
vt 0.5110 0.2667 0.0000
vt 0.7600 0.2630 0.0000
vt 0.2620 0.2704 0.0000
vt 0.0129 0.2741 0.0000
vt 0.0036 0.2585 0.0000
vt 0.5201 0.2690 0.0000
vt 0.7510 0.2656 0.0000
vt 0.7691 0.2653 0.0000
vt 1.0000 0.2619 0.0000
vt 0.0220 0.2764 0.0000
vt 0.2529 0.2730 0.0000
vt 0.0000 0.0148 0.0000
# 32 texture coords

g mazePlantCubeSmall_base
s 1
f 176/6/13 177/7/14 178/8/15 179/9/16 
f 180/10/17 181/11/18 182/12/18 183/13/17 
f 184/14/19 185/15/20 186/16/20 187/17/19 
f 188/18/21 189/19/22 190/20/22 191/21/21 
f 192/22/23 193/23/24 194/24/24 195/25/23 
f 183/13/17 176/26/13 194/24/24 
f 187/17/19 177/27/14 182/12/18 
f 195/25/23 179/28/16 190/20/22 
f 191/21/21 178/29/15 186/30/20 
f 176/31/13 183/13/17 182/12/18 177/32/14 
f 177/33/14 187/17/19 186/16/20 178/34/15 
f 178/35/15 191/21/21 190/20/22 179/36/16 
f 179/9/16 195/25/23 194/24/24 176/6/13 
f 181/11/18 184/14/19 187/17/19 182/12/18 
f 183/13/17 194/24/24 193/23/24 180/10/17 
f 185/37/20 188/18/21 191/21/21 186/30/20 
f 189/19/22 192/22/23 195/25/23 190/20/22 
# 13 polygons - 4 triangles

