# 3ds Max Wavefront OBJ Exporter v0.97b - (c)2007 guruware
# File Created: 22.06.2016 13:50:03

#
# object mazePlantSphereSmall_leafs
#

v  3.4346 4.1107 -0.9284
v  6.0072 3.1661 0.0553
v  3.7601 2.2163 0.3015
v  4.5486 0.0805 0.3584
v  1.7553 0.9394 -0.6701
v  5.9130 3.1178 5.0095
v  3.3188 3.1378 6.3316
v  4.1804 1.7113 4.5329
v  2.9205 -0.0683 5.1902
v  5.6512 -0.2371 3.7367
v  -0.3680 4.2020 0.6565
v  1.7148 3.0401 -1.0138
v  0.7418 2.2573 1.0965
v  1.0575 0.0671 0.5579
v  -1.1799 1.1616 2.4002
v  2.7823 6.2812 2.1782
v  3.0986 5.2968 4.9002
v  3.9928 4.4434 2.7825
v  5.8731 3.6294 3.7766
v  5.6657 4.5957 0.8404
v  2.4290 6.3069 2.0780
v  3.4074 4.7112 -0.1524
v  1.6419 4.2486 1.4852
v  0.4352 3.0132 0.0005
v  -0.7384 4.6259 2.3711
v  6.0715 1.5649 1.1293
v  6.0917 0.5424 3.8555
v  4.2874 0.6246 2.1971
v  3.3157 -1.2734 2.9971
v  3.1664 -0.2734 0.0687
v  1.0239 2.2148 6.1640
v  -1.1605 1.7956 4.2848
v  1.1716 1.0415 4.2124
v  0.6384 -0.8568 3.0727
v  3.0359 -0.5347 5.0083
v  2.2459 5.4510 4.9794
v  0.5033 3.3359 5.9632
v  2.7616 3.2284 5.0140
v  3.3213 1.4104 6.2663
v  5.2976 3.5631 5.2377
v  4.2544 5.4479 1.3197
v  5.4703 4.4657 3.7764
v  4.7561 3.2659 1.7607
v  6.3754 1.6817 1.9957
v  5.1285 2.5944 -0.6896
v  1.1997 5.4528 0.9055
v  1.5382 5.8169 3.7746
v  2.9126 4.6000 2.1489
v  4.8344 5.0107 3.2999
v  4.6275 4.5877 0.2378
v  0.8937 4.6904 0.2794
v  3.6133 4.3524 -0.7043
v  2.0473 2.7217 0.2449
v  2.8907 1.0167 -1.0073
v  -0.0245 1.2213 0.0212
v  -0.1174 5.2858 2.4348
v  0.3933 4.1211 -0.1846
v  0.3238 3.0827 2.0356
v  -0.4247 1.0983 1.2060
v  -1.0035 2.1933 4.0458
v  2.9696 1.3214 -1.0309
v  5.2184 0.3800 0.5611
v  2.8154 0.3950 1.0489
v  2.9495 -1.4882 2.3225
v  0.4619 -0.5766 0.7164
v  4.3732 5.7796 3.7683
v  2.9301 4.3414 5.8486
v  4.3357 3.5117 4.0187
v  5.0266 1.7049 5.2207
v  6.6523 3.1076 2.9873
v  0.8826 5.1245 5.0588
v  -0.8378 3.4383 3.4231
v  1.1869 2.8925 4.6941
v  0.4826 0.7683 5.1168
v  2.3664 2.4323 6.9280
v  2.2080 5.9714 1.2312
v  4.9936 5.3678 1.8264
v  3.2190 3.9528 0.8986
v  4.6893 2.7262 -0.3345
v  1.7234 3.2441 -1.0646
v  -0.6030 4.0029 1.4654
v  -1.2685 1.4411 2.6789
v  0.4323 3.0994 3.2872
v  0.3068 2.5794 5.5009
v  1.0845 5.3465 4.3447
v  4.1477 5.9921 2.9690
v  1.2960 6.5577 3.1310
v  2.5753 4.5945 3.8532
v  1.1484 4.1599 5.5741
v  4.1635 3.4502 5.5150
v  4.8943 1.4125 4.9596
v  2.5393 0.1815 6.1499
v  3.3242 0.2045 3.8270
v  2.4319 -1.8445 3.3887
v  4.9226 -0.6333 2.0002
v  0.9472 2.9172 -0.6137
v  3.7771 2.3442 -0.9901
v  2.0926 1.2184 0.3910
v  3.1009 -0.8109 0.1626
v  0.0709 -0.3489 0.6146
v  6.1610 3.8996 1.2064
v  6.4615 2.2509 3.5876
v  4.9976 1.9846 1.6386
v  5.0334 -0.2880 1.7833
v  4.6492 1.3422 -0.8230
v  -0.4471 1.6639 0.6500
v  1.9687 0.5570 -0.5403
v  1.1837 0.5391 1.7826
v  2.1813 -1.4607 2.2209
v  -0.3689 -0.3806 3.6093
v  6.6418 3.5389 3.2736
v  5.4442 2.5344 5.7303
v  5.0682 1.8907 3.3943
v  4.5907 -0.2658 3.9495
v  5.8205 0.6697 1.2643
v  -1.0623 3.0202 3.8311
v  -1.1899 1.7549 1.2118
v  0.3036 1.3396 3.1117
v  0.5184 -0.8697 2.6024
v  0.7322 0.3502 5.4421
v  1.2540 3.1054 6.2563
v  -0.0183 0.8117 4.9920
v  2.3192 1.5521 4.9679
v  3.1077 -0.5773 4.7932
v  4.5998 1.7894 6.1237
v  1.0248 5.1814 0.3218
v  -0.8049 3.9712 2.2364
v  1.5965 4.4384 2.4022
v  1.4891 4.7716 4.6525
v  3.5335 6.0909 2.7348
# 130 vertices

vn 0.0000 0.4823 -0.8760
vn 0.8660 -0.0000 -0.5000
vn 0.5000 0.0000 -0.8660
vn 0.4238 -0.5012 -0.7545
vn -0.4415 -0.5012 -0.7442
vn 0.8660 -0.0000 0.5000
vn -0.0000 0.0000 1.0000
vn 0.5000 0.0000 0.8660
vn -0.0103 -0.5012 0.8653
vn 0.7442 -0.5012 0.4415
vn -0.7586 0.4823 -0.4380
vn 0.0000 0.0000 -1.0000
vn -0.8660 -0.0000 -0.5000
vn -0.8653 -0.5012 0.0103
vn -0.0000 1.0000 -0.0000
vn -0.0000 0.8474 0.5309
vn 0.5309 0.8474 0.0000
vn 0.7586 0.4823 0.4380
vn 0.7586 0.4823 -0.4380
vn 0.4380 0.4823 -0.7586
vn -0.2654 0.8474 -0.4598
vn -0.5000 0.0000 -0.8660
vn -0.8760 0.4823 -0.0000
vn 0.7545 -0.5012 -0.4238
vn 0.6094 -0.7759 0.1633
vn 0.0103 -0.5012 -0.8653
vn -0.5000 0.0000 0.8660
vn -0.8660 0.0000 0.5000
vn -0.4238 -0.5012 0.7545
vn -0.6094 -0.7759 -0.1633
vn 0.1633 -0.7759 0.6094
vn -0.0000 0.4823 0.8760
vn 0.4598 0.8474 -0.2654
vn 1.0000 -0.0000 0.0000
vn -0.2655 0.8474 0.4598
vn 0.4598 0.8474 0.2655
vn -0.4380 0.4823 -0.7586
vn -0.7442 -0.5012 -0.4415
vn -0.5309 0.8474 -0.0000
vn -0.1633 -0.7759 -0.6094
vn 0.4461 -0.7759 -0.4461
vn -0.4380 0.4823 0.7586
vn -1.0000 -0.0000 -0.0000
vn -0.7586 0.4823 0.4380
vn -0.4598 0.8474 0.2654
vn 0.4380 0.4823 0.7586
vn 0.4415 -0.5012 0.7442
vn -0.4461 -0.7759 0.4461
vn -0.7545 -0.5012 0.4238
vn 0.8760 0.4823 0.0000
# 50 vertex normals

vt -0.1068 0.5381 0.0000
vt 0.2069 -0.1188 0.0000
vt 0.4300 0.4294 0.0000
vt 0.9588 0.2916 0.0000
vt 0.6610 1.0066 0.0000
# 5 texture coords

g mazePlantSphereSmall_leafs
s 1
f 1/1/1 2/2/2 3/3/3 
f 2/2/2 4/4/4 3/3/3 
f 4/4/4 5/5/5 3/3/3 
f 5/5/5 1/1/1 3/3/3 
f 6/1/6 7/2/7 8/3/8 
f 7/2/7 9/4/9 8/3/8 
f 9/4/9 10/5/10 8/3/8 
f 10/5/10 6/1/6 8/3/8 
f 11/1/11 12/2/12 13/3/13 
f 12/2/12 14/4/5 13/3/13 
f 14/4/5 15/5/14 13/3/13 
f 15/5/14 11/1/11 13/3/13 
f 16/1/15 17/2/16 18/3/17 
f 17/2/16 19/4/18 18/3/17 
f 19/4/18 20/5/19 18/3/17 
f 20/5/19 16/1/15 18/3/17 
f 21/1/15 22/2/20 23/3/21 
f 22/2/20 24/4/22 23/3/21 
f 24/4/22 25/5/23 23/3/21 
f 25/5/23 21/1/15 23/3/21 
f 26/1/2 27/2/10 28/3/24 
f 27/2/10 29/4/25 28/3/24 
f 29/4/25 30/5/26 28/3/24 
f 30/5/26 26/1/2 28/3/24 
f 31/1/27 32/2/28 33/3/29 
f 32/2/28 34/4/30 33/3/29 
f 34/4/30 35/5/31 33/3/29 
f 35/5/31 31/1/27 33/3/29 
f 36/1/16 37/2/27 38/3/32 
f 37/2/27 39/4/7 38/3/32 
f 39/4/7 40/5/18 38/3/32 
f 40/5/18 36/1/16 38/3/32 
f 41/1/33 42/2/18 43/3/19 
f 42/2/18 44/4/34 43/3/19 
f 44/4/34 45/5/3 43/3/19 
f 45/5/3 41/1/33 43/3/19 
f 46/1/21 47/2/35 48/3/15 
f 47/2/35 49/4/36 48/3/15 
f 49/4/36 50/5/20 48/3/15 
f 50/5/20 46/1/21 48/3/15 
f 51/1/37 52/2/20 53/3/12 
f 52/2/20 54/4/26 53/3/12 
f 54/4/26 55/5/38 53/3/12 
f 55/5/38 51/1/37 53/3/12 
f 56/1/39 57/2/37 58/3/23 
f 57/2/37 59/4/38 58/3/23 
f 59/4/38 60/5/28 58/3/23 
f 60/5/28 56/1/39 58/3/23 
f 61/1/12 62/2/24 63/3/40 
f 62/2/24 64/4/41 63/3/40 
f 64/4/41 65/5/38 63/3/40 
f 65/5/38 61/1/12 63/3/40 
f 66/1/36 67/2/32 68/3/18 
f 67/2/32 69/4/8 68/3/18 
f 69/4/8 70/5/34 68/3/18 
f 70/5/34 66/1/36 68/3/18 
f 71/1/42 72/2/23 73/3/27 
f 72/2/23 74/4/29 73/3/27 
f 74/4/29 75/5/7 73/3/27 
f 75/5/7 71/1/42 73/3/27 
f 76/1/21 77/2/33 78/3/20 
f 77/2/33 79/4/3 78/3/20 
f 79/4/3 80/5/12 78/3/20 
f 80/5/12 76/1/21 78/3/20 
f 81/1/11 82/2/43 83/3/44 
f 82/2/43 84/4/27 83/3/44 
f 84/4/27 85/5/35 83/3/44 
f 85/5/35 81/1/11 83/3/44 
f 86/1/17 87/2/45 88/3/16 
f 87/2/45 89/4/42 88/3/16 
f 89/4/42 90/5/46 88/3/16 
f 90/5/46 86/1/17 88/3/16 
f 91/1/47 92/2/9 93/3/31 
f 92/2/9 94/4/48 93/3/31 
f 94/4/48 95/5/41 93/3/31 
f 95/5/41 91/1/47 93/3/31 
f 96/1/22 97/2/3 98/3/26 
f 97/2/3 99/4/40 98/3/26 
f 99/4/40 100/5/38 98/3/26 
f 100/5/38 96/1/22 98/3/26 
f 101/1/19 102/2/34 103/3/2 
f 102/2/34 104/4/24 103/3/2 
f 104/4/24 105/5/3 103/3/2 
f 105/5/3 101/1/19 103/3/2 
f 106/1/13 107/2/26 108/3/38 
f 107/2/26 109/4/30 108/3/38 
f 109/4/30 110/5/49 108/3/38 
f 110/5/49 106/1/13 108/3/38 
f 111/1/50 112/2/8 113/3/6 
f 112/2/8 114/4/25 113/3/6 
f 114/4/25 115/5/24 113/3/6 
f 115/5/24 111/1/50 113/3/6 
f 116/1/28 117/2/13 118/3/14 
f 117/2/13 119/4/30 118/3/14 
f 119/4/30 120/5/29 118/3/14 
f 120/5/29 116/1/28 118/3/14 
f 121/1/27 122/2/49 123/3/9 
f 122/2/49 124/4/31 123/3/9 
f 124/4/31 125/5/8 123/3/9 
f 125/5/8 121/1/27 123/3/9 
f 126/1/21 127/2/23 128/3/39 
f 127/2/23 129/4/35 128/3/39 
f 129/4/35 130/5/15 128/3/39 
f 130/5/15 126/1/21 128/3/39 
# 0 polygons - 104 triangles

#
# object mazePlantSphereSmall_base
#

v  2.6500 4.9450 2.6500
v  2.6500 4.5899 1.3250
v  1.9875 4.5899 1.5025
v  1.5025 4.5899 1.9875
v  1.3250 4.5899 2.6500
v  1.5025 4.5899 3.3125
v  1.9875 4.5899 3.7975
v  2.6500 4.5899 3.9750
v  3.3125 4.5899 3.7975
v  3.7975 4.5899 3.3125
v  3.9750 4.5899 2.6500
v  3.7975 4.5899 1.9875
v  3.3125 4.5899 1.5025
v  1.5025 3.6200 0.6625
v  2.6500 3.6200 0.3550
v  0.6625 3.6200 1.5025
v  0.3550 3.6200 2.6500
v  0.6625 3.6200 3.7975
v  1.5025 3.6200 4.6375
v  2.6500 3.6200 4.9450
v  3.7975 3.6200 4.6375
v  4.6375 3.6200 3.7975
v  4.9450 3.6200 2.6500
v  4.6375 3.6200 1.5025
v  3.7975 3.6200 0.6625
v  1.3250 2.2950 0.3550
v  2.6500 2.2950 0.0000
v  0.3550 2.2950 1.3250
v  0.0000 2.2950 2.6500
v  0.3550 2.2950 3.9750
v  1.3250 2.2950 4.9450
v  2.6500 2.2950 5.3000
v  3.9750 2.2950 4.9450
v  4.9450 2.2950 3.9750
v  5.3000 2.2950 2.6500
v  4.9450 2.2950 1.3250
v  3.9750 2.2950 0.3550
v  1.5025 0.9700 0.6625
v  2.6500 0.9700 0.3550
v  0.6625 0.9700 1.5025
v  0.3550 0.9700 2.6500
v  0.6625 0.9700 3.7975
v  1.5025 0.9700 4.6375
v  2.6500 0.9700 4.9450
v  3.7975 0.9700 4.6375
v  4.6375 0.9700 3.7975
v  4.9450 0.9700 2.6500
v  4.6375 0.9700 1.5025
v  3.7975 0.9700 0.6625
v  2.3188 0.0000 1.4138
v  1.4138 0.0000 2.3188
v  1.7450 0.0000 3.5550
v  2.9813 0.0000 3.8862
v  3.8862 0.0000 2.9813
v  3.5550 0.0000 1.7450
# 55 vertices

vn -0.0000 1.0000 -0.0000
vn 0.0000 0.8474 -0.5309
vn -0.2654 0.8474 -0.4598
vn -0.4598 0.8474 -0.2654
vn -0.5309 0.8474 -0.0000
vn -0.4598 0.8474 0.2654
vn -0.2655 0.8474 0.4598
vn -0.0000 0.8474 0.5309
vn 0.2654 0.8474 0.4598
vn 0.4598 0.8474 0.2655
vn 0.5309 0.8474 0.0000
vn 0.4598 0.8474 -0.2654
vn 0.2655 0.8474 -0.4598
vn -0.4380 0.4823 -0.7586
vn 0.0000 0.4823 -0.8760
vn -0.7586 0.4823 -0.4380
vn -0.8760 0.4823 -0.0000
vn -0.7586 0.4823 0.4380
vn -0.4380 0.4823 0.7586
vn -0.0000 0.4823 0.8760
vn 0.4380 0.4823 0.7586
vn 0.7586 0.4823 0.4380
vn 0.8760 0.4823 0.0000
vn 0.7586 0.4823 -0.4380
vn 0.4380 0.4823 -0.7586
vn -0.5000 0.0000 -0.8660
vn 0.0000 0.0000 -1.0000
vn -0.8660 0.0000 -0.5000
vn -1.0000 -0.0000 -0.0000
vn -0.8660 0.0000 0.5000
vn -0.5000 -0.0000 0.8660
vn -0.0000 -0.0000 1.0000
vn 0.5000 0.0000 0.8660
vn 0.8660 0.0000 0.5000
vn 1.0000 0.0000 0.0000
vn 0.8660 0.0000 -0.5000
vn 0.5000 -0.0000 -0.8660
vn -0.4415 -0.5012 -0.7442
vn 0.0103 -0.5012 -0.8653
vn -0.7442 -0.5012 -0.4415
vn -0.8653 -0.5012 0.0103
vn -0.7545 -0.5012 0.4238
vn -0.4238 -0.5012 0.7545
vn -0.0103 -0.5012 0.8653
vn 0.4415 -0.5012 0.7442
vn 0.7442 -0.5012 0.4415
vn 0.8653 -0.5012 -0.0102
vn 0.7545 -0.5012 -0.4238
vn 0.4238 -0.5012 -0.7545
vn -0.1633 -0.7759 -0.6094
vn -0.6094 -0.7759 -0.1633
vn -0.4461 -0.7759 0.4461
vn 0.1633 -0.7759 0.6094
vn 0.6094 -0.7759 0.1633
vn 0.4461 -0.7759 -0.4461
# 55 vertex normals

vt 0.1674 0.3041 0.0000
vt 0.1205 0.2799 0.0000
vt 0.1390 0.2596 0.0000
vt 0.1788 0.2948 0.0000
vt 0.1645 0.2436 0.0000
vt 0.1998 0.2836 0.0000
vt 0.1933 0.2307 0.0000
vt 0.2240 0.2744 0.0000
vt 0.2241 0.2210 0.0000
vt 0.2494 0.2681 0.0000
vt 0.2560 0.2150 0.0000
vt 0.2755 0.2648 0.0000
vt 0.2885 0.2129 0.0000
vt 0.3018 0.2647 0.0000
vt 0.3211 0.2149 0.0000
vt 0.3279 0.2679 0.0000
vt 0.3531 0.2207 0.0000
vt 0.3535 0.2741 0.0000
vt 0.3839 0.2302 0.0000
vt 0.3777 0.2831 0.0000
vt 0.4127 0.2430 0.0000
vt 0.3987 0.2942 0.0000
vt 0.4383 0.2588 0.0000
vt 0.4102 0.3034 0.0000
vt 0.4570 0.2790 0.0000
vt 0.1016 0.2228 0.0000
vt 0.0706 0.2538 0.0000
vt 0.1364 0.1998 0.0000
vt 0.1729 0.1826 0.0000
vt 0.2106 0.1704 0.0000
vt 0.2492 0.1629 0.0000
vt 0.2884 0.1604 0.0000
vt 0.3276 0.1627 0.0000
vt 0.3663 0.1700 0.0000
vt 0.4040 0.1820 0.0000
vt 0.4406 0.1991 0.0000
vt 0.4756 0.2219 0.0000
vt 0.5067 0.2527 0.0000
vt 0.0713 0.1809 0.0000
vt 0.0301 0.2104 0.0000
vt 0.1118 0.1549 0.0000
vt 0.1538 0.1344 0.0000
vt 0.1975 0.1198 0.0000
vt 0.2426 0.1109 0.0000
vt 0.2883 0.1079 0.0000
vt 0.3340 0.1107 0.0000
vt 0.3791 0.1193 0.0000
vt 0.4228 0.1337 0.0000
vt 0.4649 0.1539 0.0000
vt 0.5056 0.1798 0.0000
vt 0.5470 0.2091 0.0000
vt 0.0470 0.1349 0.0000
vt 0.0067 0.1594 0.0000
vt 0.0893 0.1087 0.0000
vt 0.1355 0.0863 0.0000
vt 0.1847 0.0698 0.0000
vt 0.2360 0.0597 0.0000
vt 0.2881 0.0562 0.0000
vt 0.3403 0.0594 0.0000
vt 0.3916 0.0693 0.0000
vt 0.4410 0.0855 0.0000
vt 0.4873 0.1077 0.0000
vt 0.5297 0.1337 0.0000
vt 0.5701 0.1579 0.0000
vt 0.0000 0.1030 0.0000
vt 0.0592 0.0609 0.0000
vt 0.0175 0.0868 0.0000
vt 0.0899 0.0510 0.0000
vt 0.1654 0.0167 0.0000
vt 0.1189 0.0324 0.0000
vt 0.2004 0.0140 0.0000
vt 0.2828 0.0000 0.0000
vt 0.2338 0.0033 0.0000
vt 0.3174 0.0062 0.0000
vt 0.4007 0.0135 0.0000
vt 0.3525 0.0043 0.0000
vt 0.4325 0.0283 0.0000
vt 0.5106 0.0562 0.0000
vt 0.4663 0.0351 0.0000
vt 0.5355 0.0766 0.0000
vt 0.6000 0.1100 0.0000
vt 0.5579 0.0848 0.0000
# 82 texture coords

g mazePlantSphereSmall_base
s 1
f 131/6/51 132/7/52 133/8/53 
f 131/9/51 133/8/53 134/10/54 
f 131/11/51 134/10/54 135/12/55 
f 131/13/51 135/12/55 136/14/56 
f 131/15/51 136/14/56 137/16/57 
f 131/17/51 137/16/57 138/18/58 
f 131/19/51 138/18/58 139/20/59 
f 131/21/51 139/20/59 140/22/60 
f 131/23/51 140/22/60 141/24/61 
f 131/25/51 141/24/61 142/26/62 
f 131/27/51 142/26/62 143/28/63 
f 131/29/51 143/28/63 132/30/52 
f 144/31/64 133/8/53 132/7/52 145/32/65 
f 146/33/66 134/10/54 133/8/53 144/31/64 
f 147/34/67 135/12/55 134/10/54 146/33/66 
f 148/35/68 136/14/56 135/12/55 147/34/67 
f 149/36/69 137/16/57 136/14/56 148/35/68 
f 150/37/70 138/18/58 137/16/57 149/36/69 
f 151/38/71 139/20/59 138/18/58 150/37/70 
f 152/39/72 140/22/60 139/20/59 151/38/71 
f 153/40/73 141/24/61 140/22/60 152/39/72 
f 154/41/74 142/26/62 141/24/61 153/40/73 
f 155/42/75 143/28/63 142/26/62 154/41/74 
f 145/43/65 132/30/52 143/28/63 155/42/75 
f 156/44/76 144/31/64 145/32/65 157/45/77 
f 158/46/78 146/33/66 144/31/64 156/44/76 
f 159/47/79 147/34/67 146/33/66 158/46/78 
f 160/48/80 148/35/68 147/34/67 159/47/79 
f 161/49/81 149/36/69 148/35/68 160/48/80 
f 162/50/82 150/37/70 149/36/69 161/49/81 
f 163/51/83 151/38/71 150/37/70 162/50/82 
f 164/52/84 152/39/72 151/38/71 163/51/83 
f 165/53/85 153/40/73 152/39/72 164/52/84 
f 166/54/86 154/41/74 153/40/73 165/53/85 
f 167/55/87 155/42/75 154/41/74 166/54/86 
f 157/56/77 145/43/65 155/42/75 167/55/87 
f 168/57/88 156/44/76 157/45/77 169/58/89 
f 170/59/90 158/46/78 156/44/76 168/57/88 
f 171/60/91 159/47/79 158/46/78 170/59/90 
f 172/61/92 160/48/80 159/47/79 171/60/91 
f 173/62/93 161/49/81 160/48/80 172/61/92 
f 174/63/94 162/50/82 161/49/81 173/62/93 
f 175/64/95 163/51/83 162/50/82 174/63/94 
f 176/65/96 164/52/84 163/51/83 175/64/95 
f 177/66/97 165/53/85 164/52/84 176/65/96 
f 178/67/98 166/54/86 165/53/85 177/66/97 
f 179/68/99 167/55/87 166/54/86 178/67/98 
f 169/69/89 157/56/77 167/55/87 179/68/99 
f 169/58/89 180/70/100 168/57/88 
f 181/71/101 170/59/90 168/57/88 180/72/100 
f 170/59/90 181/73/101 171/60/91 
f 182/74/102 172/61/92 171/60/91 181/75/101 
f 172/61/92 182/76/102 173/62/93 
f 183/77/103 174/63/94 173/62/93 182/78/102 
f 174/63/94 183/79/103 175/64/95 
f 184/80/104 176/65/96 175/64/95 183/81/103 
f 176/65/96 184/82/104 177/66/97 
f 185/83/105 178/67/98 177/66/97 184/84/104 
f 178/67/98 185/85/105 179/68/99 
f 180/86/100 169/69/89 179/68/99 185/87/105 
# 42 polygons - 18 triangles

