# 3ds Max Wavefront OBJ Exporter v0.97b - (c)2007 guruware
# File Created: 22.06.2016 10:38:25

#
# object mazePlantPyramidBig_leafs
#

v  3.4766 5.0043 7.2876
v  0.7732 4.4920 5.8675
v  2.1112 3.0166 7.5098
v  0.1099 1.9850 8.3922
v  2.9407 2.4111 9.9995
v  5.4301 7.5012 5.3749
v  4.1359 6.2563 7.8972
v  5.8910 5.2969 6.2653
v  6.9236 3.9499 7.9879
v  8.4099 5.1594 5.3221
v  1.3078 1.5709 1.3323
v  1.9169 -0.1184 -1.1901
v  -0.0816 -0.2014 0.4418
v  -1.6040 -0.9518 -1.2808
v  -2.4009 0.7908 1.3850
v  2.6718 6.9193 2.7693
v  5.4970 5.8035 2.1692
v  3.2195 4.6000 2.3385
v  3.8687 2.9029 0.7428
v  0.8117 3.9513 1.3210
v  8.6153 3.2271 7.0971
v  8.9803 1.9300 9.8849
v  8.6037 0.8521 7.5696
v  9.8518 -1.1322 8.1637
v  9.4972 0.1019 5.1422
v  8.4925 4.4562 1.6745
v  8.6155 3.1143 4.4623
v  8.0490 2.1229 2.1471
v  8.9153 -0.0553 2.7411
v  8.7912 1.2227 -0.2803
v  1.5894 2.6542 5.2562
v  0.6218 1.7164 2.4684
v  0.4055 0.5952 4.7837
v  -1.6709 -0.4927 4.1896
v  -0.7440 0.3959 7.2111
v  6.8108 8.0651 2.7769
v  4.4217 6.3105 1.8819
v  4.7153 7.8089 3.9635
v  2.3499 8.2960 4.0874
v  4.7848 10.2327 5.1356
v  3.9835 2.5594 0.8037
v  7.0209 2.6020 0.2036
v  5.3722 0.6228 0.3729
v  6.6182 -0.6998 -1.2228
v  3.3922 -0.8930 -0.6447
v  2.6070 7.8005 5.4245
v  2.2723 6.4953 2.6368
v  2.6740 5.4264 4.9520
v  1.4725 3.4135 4.3579
v  1.7982 4.6556 7.3794
v  5.4171 3.6486 7.9088
v  3.1423 1.6355 8.5089
v  5.6938 1.2817 8.3396
v  5.6628 -0.5351 9.9353
v  8.1784 1.4937 9.3571
v  -0.3510 2.5581 9.0401
v  -0.5204 1.2214 6.2524
v  0.0114 0.2109 8.5676
v  -0.9299 -1.9360 7.9735
v  -0.7615 -0.6631 10.9950
v  4.6211 8.4925 3.9190
v  7.2511 7.6840 5.3391
v  5.7579 6.3658 3.6968
v  7.6326 5.1190 2.8144
v  4.8664 5.8558 1.2071
v  1.7894 4.6899 2.8350
v  1.1290 3.5153 0.0473
v  1.2409 2.3790 2.3625
v  -0.4397 0.7448 1.7684
v  0.1958 1.8605 4.7899
v  7.7677 2.4292 0.5690
v  10.7005 1.6381 -0.0311
v  8.5726 0.1863 0.1382
v  9.4085 -1.4271 -1.4575
v  6.2531 -0.7290 -0.8793
v  5.3419 6.7647 2.7895
v  8.3399 6.2760 2.1894
v  6.3709 4.6153 2.3588
v  7.3666 3.0953 0.7630
v  4.1565 3.4687 1.3412
v  3.7972 9.0385 5.2126
v  1.5492 6.9956 5.8127
v  4.1052 6.6755 5.6434
v  4.0982 4.8584 7.2391
v  6.5868 6.9202 6.6609
v  4.5525 8.1453 6.8711
v  5.3784 9.8408 4.4154
v  4.0113 7.6559 4.5620
v  2.7155 8.2004 2.5941
v  1.7305 6.3313 5.1069
v  5.3313 10.0687 3.6116
v  2.8978 9.1181 5.2733
v  4.9869 7.8312 4.4712
v  4.9445 6.3453 6.3787
v  7.6037 7.2240 4.6655
v  3.2697 2.7840 8.3406
v  0.7187 1.1349 8.9408
v  3.1884 0.4024 8.7714
v  2.8852 -1.3892 10.3672
v  5.6766 0.2394 9.7890
v  7.9791 2.1043 2.8731
v  8.8430 1.0703 5.6609
v  8.9406 -0.0674 3.3457
v  10.8916 -1.3669 3.9397
v  10.0629 -0.3861 0.9182
v  7.6509 5.2897 1.5467
v  9.1947 3.0121 2.9668
v  7.2050 2.9199 1.3245
v  7.8854 0.7736 0.4420
v  6.1907 3.0807 -1.1652
v  6.7800 5.5359 6.8916
v  3.8735 4.6528 7.4918
v  6.0461 3.2687 7.3224
v  5.2614 1.6298 8.9181
v  8.3933 2.4269 8.3400
v  2.2311 4.7644 5.5340
v  1.4116 3.6947 2.7462
v  1.3622 2.5539 5.0614
v  -0.5321 1.1731 4.4674
v  0.2544 2.1881 7.4889
v  3.3969 7.3445 6.3502
v  1.1432 5.7661 4.9301
v  2.9695 4.9712 6.5724
v  1.5692 3.2081 7.4548
v  3.9746 4.7602 9.0621
v  5.7026 7.9806 3.4425
v  6.2844 6.7652 6.2303
v  6.0980 5.6386 3.9151
v  7.6677 3.8975 4.5091
v  7.1069 5.0526 1.4876
v  4.4605 9.6134 3.9127
v  5.2936 8.5544 6.7004
v  5.3577 7.4143 4.3852
v  7.2697 6.0580 4.9793
v  6.4702 7.0627 1.9578
v  2.2316 4.0106 1.2762
v  4.8333 2.4427 0.6761
v  2.3880 1.6327 0.8455
v  2.7475 -0.1484 -0.7502
v  -0.0939 1.3913 -0.1721
v  -0.4659 2.6293 3.1262
v  -0.1530 1.8322 0.1507
v  0.0857 0.4211 2.2992
v  -0.6431 -1.6000 1.1893
v  -0.9880 -0.9092 4.3803
v  2.9571 9.0226 4.4420
v  4.7163 8.6621 1.9196
v  3.7457 6.9132 3.5516
v  3.5927 5.2228 1.8290
v  1.6902 5.4507 4.4948
v  4.9866 5.5476 6.7836
v  1.9651 5.2350 7.3838
v  3.8337 3.4620 7.2144
v  2.7509 2.0028 8.8102
v  5.9773 2.1879 8.2320
v  2.3069 6.6935 3.4202
v  1.8550 5.4240 0.6324
v  2.1578 4.3231 2.9476
v  0.7783 2.4278 2.3536
v  1.2156 3.6351 5.3751
v  0.7912 4.0242 8.0952
v  0.4225 2.7282 5.3075
v  0.7960 1.6491 7.6227
v  -0.4578 -0.3315 7.0286
v  -0.0997 0.9015 10.0501
v  6.8018 5.9591 2.7101
v  7.3675 4.7361 5.4978
v  7.1662 3.6121 3.1826
v  8.7126 1.8503 3.7767
v  8.1672 3.0128 0.7552
v  8.5846 4.1569 7.0878
v  6.7965 3.9916 9.6101
v  7.5694 2.1467 7.9782
v  7.5360 0.4498 9.7008
v  9.4521 0.4676 7.0350
v  6.7762 3.6563 1.2265
v  9.7662 3.1206 0.6263
v  7.7713 1.4909 0.7957
v  8.7429 -0.0445 -0.8001
v  5.5391 0.3793 -0.2219
v  5.8208 5.7581 6.0762
v  6.8012 4.8337 8.8639
v  7.0328 3.7155 6.5487
v  9.1240 2.6562 7.1428
v  8.1850 3.5320 4.1213
v  9.2208 3.5955 4.5376
v  9.1841 2.2485 7.3253
v  8.5044 1.3310 5.0101
v  9.1070 -0.9344 5.6042
v  9.1349 0.3493 2.5827
v  6.8145 2.5188 8.4362
v  4.9525 0.1187 9.0363
v  7.5254 0.2443 8.8670
v  7.8319 -1.5467 10.4628
v  9.9275 0.9134 9.8846
v  8.0449 2.5108 0.8404
v  8.8073 1.3997 3.6281
v  8.7970 0.2579 1.3129
v  10.6165 -1.2201 1.9070
v  9.8842 -0.1654 -1.1145
v  1.5998 2.4426 0.4929
v  4.2089 0.8871 -0.1072
v  1.7675 0.0655 0.0621
v  2.1354 -1.7139 -1.5336
v  -0.7132 -0.1877 -0.9554
v  5.2248 9.4141 4.3682
v  7.3806 7.4077 3.4120
v  4.8179 7.1559 3.5939
v  4.7246 5.6025 1.7429
v  2.3288 7.6393 2.6860
v  8.7618 4.9637 3.3741
v  8.5966 3.6264 6.1618
v  7.8323 2.7781 3.8466
v  8.2156 0.4655 4.4407
v  8.3660 1.7406 1.4192
v  2.0289 5.6307 2.0790
v  4.4538 3.8012 1.4789
v  1.9376 3.2494 1.6483
v  2.1102 1.4406 0.0526
v  -0.5559 3.2669 0.6307
v  2.2273 2.3636 0.7381
v  5.2601 2.5333 0.1380
v  3.6958 0.4868 0.3074
v  4.9960 -0.7825 -1.2883
v  1.7810 -1.1106 -0.7102
v  6.9803 4.3125 6.4167
v  7.8053 3.2471 9.2045
v  7.8605 2.1066 6.8893
v  9.7618 0.7354 7.4833
v  8.9702 1.7464 4.4618
v  4.6144 3.9336 1.4949
v  7.6514 3.9927 0.8948
v  6.0135 2.0045 1.0641
v  7.2665 0.6887 -0.5317
v  4.0417 0.4781 0.0465
v  4.2329 7.1236 4.0299
v  4.8261 5.4287 1.5075
v  2.8270 5.3644 3.1395
v  1.2976 4.6283 1.4169
v  0.5170 6.3782 4.0827
v  0.6995 3.3212 8.0699
v  -1.5241 1.2517 8.6701
v  1.0355 0.9620 8.5007
v  1.0500 -0.8550 10.0964
v  3.5140 1.2361 9.5183
v  4.3906 8.5513 3.5397
v  6.8550 6.7755 2.9396
v  4.3516 6.1686 3.1090
v  4.5639 4.3639 1.5133
v  1.8583 6.1313 2.0914
v  1.7052 6.2605 6.8957
v  1.4339 4.9407 4.1080
v  1.8866 3.8924 6.4232
v  0.7836 1.8240 5.8291
v  1.0490 3.0802 8.8506
v  1.3413 3.6333 1.7189
v  2.7362 2.5023 -0.8035
v  1.0686 1.3979 0.8284
v  0.1536 -0.0316 -0.8942
v  -1.4297 1.0477 1.7716
v  4.0121 2.5518 8.4327
v  2.0430 0.2388 9.0328
v  4.6190 0.2473 8.8635
v  4.8438 -1.5557 10.4592
v  7.0490 0.8066 9.8811
v  6.6710 4.2010 7.2774
v  3.6612 4.6109 7.8775
v  5.0582 2.4466 7.7081
v  3.6614 1.2845 9.3039
v  6.8403 0.7024 8.7257
v  6.2602 6.7764 6.0412
v  3.2309 7.0002 6.6413
v  4.7585 4.9261 6.4719
v  3.4358 3.6802 8.0677
v  6.6445 3.2949 7.4895
v  2.6441 9.5290 5.5200
v  2.7380 8.1848 2.7322
v  3.4561 7.2971 5.0475
v  2.9504 5.0081 4.4534
v  2.8680 6.2895 7.4749
v  6.4915 7.9038 5.2710
v  6.7539 6.5821 8.0587
v  6.2940 5.5369 5.7435
v  7.3831 3.4611 6.3376
v  7.1261 4.7192 3.3161
v  0.4256 4.1641 6.2715
v  0.2696 2.8257 3.4837
v  0.8115 1.8206 5.7990
v  -0.1081 -0.3356 5.2049
v  0.0475 0.9389 8.2264
v  5.3988 5.4288 2.1658
v  8.1209 5.0283 3.5859
v  6.8448 3.4991 1.9436
v  8.8869 2.5507 1.0612
v  6.0409 2.8598 -0.5461
v  2.7427 6.0895 2.2623
v  5.8286 6.3339 2.3308
v  4.3134 4.2468 2.2198
v  5.9597 2.9766 0.9852
v  2.7046 2.5681 0.8607
# 300 vertices

vn 0.0000 0.6956 0.7184
vn -0.7184 0.6956 -0.0000
vn -0.0000 0.7044 0.7098
vn -0.7098 0.7044 0.0000
vn 0.0000 0.7044 0.7098
vn 0.7184 0.6956 -0.0000
vn -0.0000 0.7044 -0.7098
vn -0.7098 0.7044 -0.0000
vn 0.0000 0.6956 -0.7184
vn 0.7098 0.7044 0.0000
vn 0.7098 0.7044 -0.0000
vn 0.0000 1.0000 -0.0000
vn 0.0000 0.7044 -0.7098
# 13 vertex normals

vt -0.1068 0.5381 0.0000
vt 0.2069 -0.1188 0.0000
vt 0.4300 0.4294 0.0000
vt 0.9588 0.2916 0.0000
vt 0.6610 1.0066 0.0000
# 5 texture coords

g mazePlantPyramidBig_leafs
s 1
f 1/1/1 2/2/2 3/3/3 
f 2/2/2 4/4/4 3/3/3 
f 4/4/4 5/5/3 3/3/3 
f 5/5/3 1/1/1 3/3/3 
f 6/1/1 7/2/1 8/3/1 
f 7/2/1 9/4/5 8/3/1 
f 9/4/5 10/5/6 8/3/1 
f 10/5/6 6/1/1 8/3/1 
f 11/1/7 12/2/7 13/3/8 
f 12/2/7 14/4/8 13/3/8 
f 14/4/8 15/5/8 13/3/8 
f 15/5/8 11/1/7 13/3/8 
f 16/1/9 17/2/9 18/3/9 
f 17/2/9 19/4/7 18/3/9 
f 19/4/7 20/5/7 18/3/9 
f 20/5/7 16/1/9 18/3/9 
f 21/1/10 22/2/5 23/3/10 
f 22/2/5 24/4/10 23/3/10 
f 24/4/10 25/5/10 23/3/10 
f 25/5/10 21/1/10 23/3/10 
f 26/1/11 27/2/11 28/3/11 
f 27/2/11 29/4/11 28/3/11 
f 29/4/11 30/5/11 28/3/11 
f 30/5/11 26/1/11 28/3/11 
f 31/1/4 32/2/8 33/3/4 
f 32/2/8 34/4/8 33/3/4 
f 34/4/8 35/5/4 33/3/4 
f 35/5/4 31/1/4 33/3/4 
f 36/1/6 37/2/9 38/3/9 
f 37/2/9 39/4/2 38/3/9 
f 39/4/2 40/5/12 38/3/9 
f 40/5/12 36/1/6 38/3/9 
f 41/1/7 42/2/13 43/3/13 
f 42/2/13 44/4/13 43/3/13 
f 44/4/13 45/5/7 43/3/13 
f 45/5/7 41/1/7 43/3/13 
f 46/1/2 47/2/2 48/3/2 
f 47/2/2 49/4/2 48/3/2 
f 49/4/2 50/5/2 48/3/2 
f 50/5/2 46/1/2 48/3/2 
f 51/1/5 52/2/3 53/3/5 
f 52/2/3 54/4/5 53/3/5 
f 54/4/5 55/5/5 53/3/5 
f 55/5/5 51/1/5 53/3/5 
f 56/1/4 57/2/4 58/3/4 
f 57/2/4 59/4/4 58/3/4 
f 59/4/4 60/5/3 58/3/4 
f 60/5/3 56/1/4 58/3/4 
f 61/1/9 62/2/6 63/3/6 
f 62/2/6 64/4/6 63/3/6 
f 64/4/6 65/5/9 63/3/6 
f 65/5/9 61/1/9 63/3/6 
f 66/1/2 67/2/7 68/3/8 
f 67/2/7 69/4/8 68/3/8 
f 69/4/8 70/5/4 68/3/8 
f 70/5/4 66/1/2 68/3/8 
f 71/1/13 72/2/11 73/3/13 
f 72/2/11 74/4/13 73/3/13 
f 74/4/13 75/5/13 73/3/13 
f 75/5/13 71/1/13 73/3/13 
f 76/1/9 77/2/6 78/3/9 
f 77/2/6 79/4/13 78/3/9 
f 79/4/13 80/5/9 78/3/9 
f 80/5/9 76/1/9 78/3/9 
f 81/1/1 82/2/2 83/3/1 
f 82/2/2 84/4/1 83/3/1 
f 84/4/1 85/5/1 83/3/1 
f 85/5/1 81/1/1 83/3/1 
f 86/1/1 87/2/12 88/3/2 
f 87/2/12 89/4/2 88/3/2 
f 89/4/2 90/5/2 88/3/2 
f 90/5/2 86/1/1 88/3/2 
f 91/1/12 92/2/2 93/3/6 
f 92/2/2 94/4/1 93/3/6 
f 94/4/1 95/5/6 93/3/6 
f 95/5/6 91/1/12 93/3/6 
f 96/1/3 97/2/3 98/3/3 
f 97/2/3 99/4/3 98/3/3 
f 99/4/3 100/5/5 98/3/3 
f 100/5/5 96/1/3 98/3/3 
f 101/1/11 102/2/10 103/3/11 
f 102/2/10 104/4/11 103/3/11 
f 104/4/11 105/5/11 103/3/11 
f 105/5/11 101/1/11 103/3/11 
f 106/1/6 107/2/11 108/3/13 
f 107/2/11 109/4/13 108/3/13 
f 109/4/13 110/5/13 108/3/13 
f 110/5/13 106/1/6 108/3/13 
f 111/1/1 112/2/1 113/3/5 
f 112/2/1 114/4/5 113/3/5 
f 114/4/5 115/5/5 113/3/5 
f 115/5/5 111/1/1 113/3/5 
f 116/1/2 117/2/8 118/3/4 
f 117/2/8 119/4/4 118/3/4 
f 119/4/4 120/5/4 118/3/4 
f 120/5/4 116/1/2 118/3/4 
f 121/1/1 122/2/2 123/3/1 
f 122/2/2 124/4/3 123/3/1 
f 124/4/3 125/5/1 123/3/1 
f 125/5/1 121/1/1 123/3/1 
f 126/1/6 127/2/6 128/3/6 
f 127/2/6 129/4/6 128/3/6 
f 129/4/6 130/5/6 128/3/6 
f 130/5/6 126/1/6 128/3/6 
f 131/1/12 132/2/1 133/3/6 
f 132/2/1 134/4/6 133/3/6 
f 134/4/6 135/5/9 133/3/6 
f 135/5/9 131/1/12 133/3/6 
f 136/1/7 137/2/13 138/3/7 
f 137/2/13 139/4/7 138/3/7 
f 139/4/7 140/5/7 138/3/7 
f 140/5/7 136/1/7 138/3/7 
f 141/1/8 142/2/8 143/3/8 
f 142/2/8 144/4/8 143/3/8 
f 144/4/8 145/5/8 143/3/8 
f 145/5/8 141/1/8 143/3/8 
f 146/1/2 147/2/9 148/3/9 
f 147/2/9 149/4/9 148/3/9 
f 149/4/9 150/5/2 148/3/9 
f 150/5/2 146/1/2 148/3/9 
f 151/1/1 152/2/1 153/3/1 
f 152/2/1 154/4/3 153/3/1 
f 154/4/3 155/5/5 153/3/1 
f 155/5/5 151/1/1 153/3/1 
f 156/1/2 157/2/9 158/3/2 
f 157/2/9 159/4/8 158/3/2 
f 159/4/8 160/5/4 158/3/2 
f 160/5/4 156/1/2 158/3/2 
f 161/1/4 162/2/4 163/3/4 
f 162/2/4 164/4/4 163/3/4 
f 164/4/4 165/5/3 163/3/4 
f 165/5/3 161/1/4 163/3/4 
f 166/1/6 167/2/6 168/3/11 
f 167/2/6 169/4/11 168/3/11 
f 169/4/11 170/5/11 168/3/11 
f 170/5/11 166/1/6 168/3/11 
f 171/1/10 172/2/5 173/3/5 
f 172/2/5 174/4/5 173/3/5 
f 174/4/5 175/5/10 173/3/5 
f 175/5/10 171/1/10 173/3/5 
f 176/1/13 177/2/11 178/3/13 
f 177/2/11 179/4/13 178/3/13 
f 179/4/13 180/5/13 178/3/13 
f 180/5/13 176/1/13 178/3/13 
f 181/1/6 182/2/5 183/3/10 
f 182/2/5 184/4/10 183/3/10 
f 184/4/10 185/5/6 183/3/10 
f 185/5/6 181/1/6 183/3/10 
f 186/1/10 187/2/10 188/3/10 
f 187/2/10 189/4/10 188/3/10 
f 189/4/10 190/5/11 188/3/10 
f 190/5/11 186/1/10 188/3/10 
f 191/1/5 192/2/5 193/3/5 
f 192/2/5 194/4/5 193/3/5 
f 194/4/5 195/5/5 193/3/5 
f 195/5/5 191/1/5 193/3/5 
f 196/1/11 197/2/11 198/3/11 
f 197/2/11 199/4/11 198/3/11 
f 199/4/11 200/5/11 198/3/11 
f 200/5/11 196/1/11 198/3/11 
f 201/1/7 202/2/7 203/3/7 
f 202/2/7 204/4/7 203/3/7 
f 204/4/7 205/5/7 203/3/7 
f 205/5/7 201/1/7 203/3/7 
f 206/1/12 207/2/6 208/3/9 
f 207/2/6 209/4/9 208/3/9 
f 209/4/9 210/5/9 208/3/9 
f 210/5/9 206/1/12 208/3/9 
f 211/1/6 212/2/10 213/3/11 
f 212/2/10 214/4/11 213/3/11 
f 214/4/11 215/5/11 213/3/11 
f 215/5/11 211/1/6 213/3/11 
f 216/1/9 217/2/9 218/3/7 
f 217/2/9 219/4/7 218/3/7 
f 219/4/7 220/5/8 218/3/7 
f 220/5/8 216/1/9 218/3/7 
f 221/1/7 222/2/13 223/3/7 
f 222/2/13 224/4/13 223/3/7 
f 224/4/13 225/5/7 223/3/7 
f 225/5/7 221/1/7 223/3/7 
f 226/1/6 227/2/5 228/3/10 
f 227/2/5 229/4/10 228/3/10 
f 229/4/10 230/5/10 228/3/10 
f 230/5/10 226/1/6 228/3/10 
f 231/1/9 232/2/13 233/3/13 
f 232/2/13 234/4/13 233/3/13 
f 234/4/13 235/5/7 233/3/13 
f 235/5/7 231/1/9 233/3/13 
f 236/1/9 237/2/9 238/3/2 
f 237/2/9 239/4/9 238/3/2 
f 239/4/9 240/5/2 238/3/2 
f 240/5/2 236/1/9 238/3/2 
f 241/1/3 242/2/4 243/3/3 
f 242/2/4 244/4/3 243/3/3 
f 244/4/3 245/5/3 243/3/3 
f 245/5/3 241/1/3 243/3/3 
f 246/1/9 247/2/6 248/3/9 
f 247/2/6 249/4/9 248/3/9 
f 249/4/9 250/5/9 248/3/9 
f 250/5/9 246/1/9 248/3/9 
f 251/1/2 252/2/2 253/3/4 
f 252/2/2 254/4/4 253/3/4 
f 254/4/4 255/5/3 253/3/4 
f 255/5/3 251/1/2 253/3/4 
f 256/1/8 257/2/7 258/3/7 
f 257/2/7 259/4/7 258/3/7 
f 259/4/7 260/5/8 258/3/7 
f 260/5/8 256/1/8 258/3/7 
f 261/1/3 262/2/3 263/3/5 
f 262/2/3 264/4/5 263/3/5 
f 264/4/5 265/5/5 263/3/5 
f 265/5/5 261/1/3 263/3/5 
f 266/1/5 267/2/1 268/3/5 
f 267/2/1 269/4/3 268/3/5 
f 269/4/3 270/5/5 268/3/5 
f 270/5/5 266/1/5 268/3/5 
f 271/1/1 272/2/1 273/3/1 
f 272/2/1 274/4/3 273/3/1 
f 274/4/3 275/5/5 273/3/1 
f 275/5/5 271/1/1 273/3/1 
f 276/1/2 277/2/2 278/3/2 
f 277/2/2 279/4/2 278/3/2 
f 279/4/2 280/5/1 278/3/2 
f 280/5/1 276/1/2 278/3/2 
f 281/1/6 282/2/1 283/3/6 
f 282/2/1 284/4/10 283/3/6 
f 284/4/10 285/5/6 283/3/6 
f 285/5/6 281/1/6 283/3/6 
f 286/1/4 287/2/8 288/3/4 
f 287/2/8 289/4/4 288/3/4 
f 289/4/4 290/5/4 288/3/4 
f 290/5/4 286/1/4 288/3/4 
f 291/1/9 292/2/6 293/3/13 
f 292/2/6 294/4/11 293/3/13 
f 294/4/11 295/5/13 293/3/13 
f 295/5/13 291/1/9 293/3/13 
f 296/1/9 297/2/9 298/3/9 
f 297/2/9 299/4/13 298/3/9 
f 299/4/13 300/5/7 298/3/9 
f 300/5/7 296/1/9 298/3/9 
# 0 polygons - 240 triangles

#
# object mazePlantPyramidBig_base
#

v  0.5850 0.0000 9.0000
v  8.4150 0.0000 9.0000
v  4.5000 7.7183 5.1408
v  9.0000 0.0000 8.4150
v  9.0000 0.0000 0.5850
v  5.1408 7.7183 4.5000
v  8.4150 0.0000 -0.0000
v  0.5850 0.0000 -0.0000
v  4.5000 7.7183 3.8592
v  0.0000 0.0000 0.5850
v  0.0000 0.0000 8.4150
v  3.8592 7.7183 4.5000
v  4.5000 8.2345 4.5000
# 13 vertices

vn 0.0000 0.7044 0.7098
vn 0.0000 0.6956 0.7184
vn 0.7098 0.7044 -0.0000
vn 0.7184 0.6956 -0.0000
vn 0.0000 0.7044 -0.7098
vn 0.0000 0.6956 -0.7184
vn -0.7098 0.7044 -0.0000
vn -0.7184 0.6956 -0.0000
vn 0.0000 1.0000 -0.0000
# 9 vertex normals

vt 0.1042 0.3753 0.0000
vt 0.0000 0.0158 0.0000
vt 0.4483 0.0808 0.0000
vt 1.0000 0.0394 0.0000
vt 0.8790 0.3936 0.0000
vt 0.5492 0.0831 0.0000
vt 0.8520 0.4225 0.0000
vt 0.5071 0.5676 0.0000
vt 0.5196 0.1148 0.0000
vt 0.4675 0.5667 0.0000
vt 0.1298 0.4055 0.0000
vt 0.4763 0.1138 0.0000
vt 0.9963 0.0000 0.0000
vt 0.5452 0.0400 0.0000
vt 0.5145 0.0646 0.0000
vt 0.5104 0.0766 0.0000
vt 0.4987 0.0815 0.0000
vt 0.4873 0.0760 0.0000
# 18 texture coords

g mazePlantPyramidBig_base
s 1
f 301/6/14 302/7/14 303/8/15 
f 304/9/16 305/10/16 306/11/17 
f 307/12/18 308/13/18 309/14/19 
f 310/15/20 311/16/20 312/17/21 
f 302/18/14 304/9/16 306/11/17 303/19/15 
f 303/8/15 312/17/21 311/16/20 301/6/14 
f 305/10/16 307/12/18 309/14/19 306/11/17 
f 308/13/18 310/15/20 312/17/21 309/14/19 
f 303/19/15 306/11/17 313/20/22 
f 306/11/17 309/14/19 313/21/22 
f 309/14/19 312/17/21 313/22/22 
f 312/17/21 303/8/15 313/23/22 
# 4 polygons - 8 triangles

